<?xml version="1.0" encoding="UTF-8" standalone="no"?><!DOCTYPE svg PUBLIC "-//W3C//DTD SVG 1.1//EN" "http://www.w3.org/Graphics/SVG/1.1/DTD/svg11.dtd"><!-- Generated by graphviz version 2.40.1 (20161225.0304)
 --><!-- Title: G Pages: 1 --><svg xmlns="http://www.w3.org/2000/svg" xmlns:xlink="http://www.w3.org/1999/xlink" width="1567pt" height="364pt" viewBox="0.00 0.00 1566.71 364.18">
<g id="graph0" class="graph" transform="scale(1 1) rotate(0) translate(4 360.1832)">
<title>G</title>
<polygon fill="#ffffff" stroke="transparent" points="-4,4 -4,-360.1832 1562.7063,-360.1832 1562.7063,4 -4,4"/>
<!-- Initial -->
<g id="node1" class="node">
<title>Initial</title>
<ellipse fill="none" stroke="#000000" cx="38.1012" cy="-77.0489" rx="34.1919" ry="34.1919"/>
<ellipse fill="none" stroke="#000000" cx="38.1012" cy="-77.0489" rx="38.2026" ry="38.2026"/>
<text text-anchor="middle" x="38.1012" y="-72.8489" font-family="Times,serif" font-size="14.00" fill="#000000">Initial</text>
</g>
<!-- ConsistViewOverride -->
<g id="node2" class="node">
<title>ConsistViewOverride</title>
<ellipse fill="#d3d3d3" stroke="#000000" cx="442.318" cy="-77.0489" rx="77.0978" ry="77.0978"/>
<text text-anchor="middle" x="442.318" y="-73.4489" font-family="Times,serif" font-size="12.00" fill="#0000ff">ConsistViewOverride</text>
</g>
<!-- Initial&#45;&gt;ConsistViewOverride -->
<g id="edge1" class="edge">
<title>Initial-&gt;ConsistViewOverride</title>
<path fill="none" stroke="#ff0000" d="M76.0652,-82.4332C82.1201,-83.105 88.3245,-83.6836 94.2023,-84.0489 206.4599,-91.0253 234.8709,-88.1821 347.2691,-84.0489 349.8372,-83.9544 352.4436,-83.8457 355.074,-83.7247"/>
<polygon fill="#ff0000" stroke="#ff0000" points="355.5016,-87.2076 365.31,-83.202 355.1445,-80.2167 355.5016,-87.2076"/>
<text text-anchor="middle" x="220.7357" y="-92.2489" font-family="Times,serif" font-size="14.00" fill="#ff0000">DcoEvent::NoTrigger [!isLockedOnEntry()]/</text>
</g>
<!-- Initial&#45;&gt;ConsistViewOverride -->
<g id="edge2" class="edge">
<title>Initial-&gt;ConsistViewOverride</title>
<path fill="none" stroke="#ffc0cb" d="M70.1868,-56.0283C77.7683,-52.0755 86.032,-48.5322 94.2023,-46.4489 203.1891,-18.6584 236.1561,-29.0039 347.2691,-46.4489 351.4114,-47.0992 355.6195,-47.8999 359.8439,-48.8165"/>
<polygon fill="#ffc0cb" stroke="#ffc0cb" points="359.17,-52.2537 369.7072,-51.15 360.7817,-45.4417 359.17,-52.2537"/>
<text text-anchor="middle" x="220.7357" y="-68.0489" font-family="Times,serif" font-size="14.00" fill="#ffc0cb">DcoEvent::NoTrigger [isLockedOnEntry()]/</text>
<text text-anchor="middle" x="220.7357" y="-51.2489" font-family="Times,serif" font-size="14.00" fill="#ffc0cb">LockOnEntry()</text>
</g>
<!-- ConsistViewOverride&#45;&gt;ConsistViewOverride -->
<g id="edge5" class="edge">
<title>ConsistViewOverride-&gt;ConsistViewOverride</title>
<path fill="none" stroke="#ffa500" d="M401.5615,-142.7942C404.2403,-159.5321 417.8258,-172.0978 442.318,-172.0978 461.8352,-172.0978 474.4266,-164.1184 480.0921,-152.4071"/>
<polygon fill="#ffa500" stroke="#ffa500" points="483.4541,-153.3823 483.0745,-142.7942 476.7684,-151.308 483.4541,-153.3823"/>
<text text-anchor="middle" x="442.318" y="-193.0978" font-family="Times,serif" font-size="14.00" fill="#ffa500">DcoEvent::GuiButtonAsdoOverrideClicked [!isLockedOnEntry()]/</text>
<text text-anchor="middle" x="442.318" y="-176.2978" font-family="Times,serif" font-size="14.00" fill="#ffa500">_state.hsm().sendEvent(DcoEvent::ManualOverrideCancelled); return true; })</text>
</g>
<!-- LopEditing -->
<g id="node3" class="node">
<title>LopEditing</title>
<ellipse fill="#d3d3d3" stroke="#000000" cx="916.3485" cy="-124.0489" rx="45.2691" ry="45.2691"/>
<text text-anchor="middle" x="916.3485" y="-120.4489" font-family="Times,serif" font-size="12.00" fill="#0000ff">LopEditing</text>
</g>
<!-- ConsistViewOverride&#45;&gt;LopEditing -->
<g id="edge3" class="edge">
<title>ConsistViewOverride-&gt;LopEditing</title>
<path fill="none" stroke="#0000ff" d="M513.7587,-106.1035C521.6259,-108.4752 529.5995,-110.537 537.3669,-112.0489 650.7647,-134.1209 786.7902,-131.5703 861.128,-127.7834"/>
<polygon fill="#0000ff" stroke="#0000ff" points="861.401,-131.2738 871.1992,-127.2432 861.0261,-124.2839 861.401,-131.2738"/>
<text text-anchor="middle" x="682.9683" y="-151.0489" font-family="Times,serif" font-size="14.00" fill="#0000ff">DcoEvent::GuiCarClicked []/</text>
<text text-anchor="middle" x="682.9683" y="-134.2489" font-family="Times,serif" font-size="14.00" fill="#0000ff">carToggleSelection()</text>
</g>
<!-- ConsistViewOverride&#45;&gt;LopEditing -->
<g id="edge4" class="edge">
<title>ConsistViewOverride-&gt;LopEditing</title>
<path fill="none" stroke="#ff0000" d="M518.5412,-64.9873C597.521,-55.1476 723.8307,-46.9038 828.5697,-74.4489 843.0117,-78.247 857.5765,-85.022 870.5783,-92.3681"/>
<polygon fill="#ff0000" stroke="#ff0000" points="868.9173,-95.4518 879.3092,-97.5155 872.4724,-89.4217 868.9173,-95.4518"/>
<text text-anchor="middle" x="682.9683" y="-96.0489" font-family="Times,serif" font-size="14.00" fill="#ff0000">DcoEvent::GuiButtonSelectClearAllCarsClicked []/</text>
<text text-anchor="middle" x="682.9683" y="-79.2489" font-family="Times,serif" font-size="14.00" fill="#ff0000">selectClearAllCars()</text>
</g>
<!-- LopEditing&#45;&gt;LopEditing -->
<g id="edge8" class="edge">
<title>LopEditing-&gt;LopEditing</title>
<path fill="none" stroke="#a52a2a" d="M905.6228,-168.0109C906.3729,-178.9825 909.9481,-187.1832 916.3485,-187.1832 920.5487,-187.1832 923.5323,-183.6515 925.2991,-178.1226"/>
<polygon fill="#a52a2a" stroke="#a52a2a" points="928.7924,-178.4654 927.0741,-168.0109 921.8978,-177.2551 928.7924,-178.4654"/>
<text text-anchor="middle" x="916.3485" y="-208.1832" font-family="Times,serif" font-size="14.00" fill="#a52a2a">DcoEvent::GuiButtonAsdoOverrideClicked [!isLockedOnEntry()]/</text>
<text text-anchor="middle" x="916.3485" y="-191.3832" font-family="Times,serif" font-size="14.00" fill="#a52a2a">_state.hsm().sendEvent(DcoEvent::ManualOverrideCancelled); return true; })</text>
</g>
<!-- LopEditing&#45;&gt;LopEditing -->
<g id="edge9" class="edge">
<title>LopEditing-&gt;LopEditing</title>
<path fill="none" stroke="#00ff00" d="M896.3189,-164.5155C891.0938,-192.1826 897.7704,-220.7832 916.3485,-220.7832 932.6769,-220.7832 939.8116,-198.6899 937.7526,-174.5551"/>
<polygon fill="#00ff00" stroke="#00ff00" points="941.2023,-173.9482 936.378,-164.5155 934.267,-174.8979 941.2023,-173.9482"/>
<text text-anchor="middle" x="916.3485" y="-224.9832" font-family="Times,serif" font-size="14.00" fill="#00ff00">DcoEvent::OnLocationMessage []/</text>
</g>
<!-- LopEditing&#45;&gt;LopEditing -->
<g id="edge10" class="edge">
<title>LopEditing-&gt;LopEditing</title>
<path fill="none" stroke="#000000" d="M889.8571,-160.8681C876.3374,-196.8113 885.1678,-238.7832 916.3485,-238.7832 944.7278,-238.7832 954.5925,-204.0143 945.9426,-170.6671"/>
<polygon fill="#000000" stroke="#000000" points="949.1954,-169.3451 942.8399,-160.8681 942.5219,-171.4582 949.1954,-169.3451"/>
<text text-anchor="middle" x="916.3485" y="-259.7832" font-family="Times,serif" font-size="14.00" fill="#000000">DcoEvent::GuiButtonSelectClearAllCarsClicked []/</text>
<text text-anchor="middle" x="916.3485" y="-242.9832" font-family="Times,serif" font-size="14.00" fill="#000000">selectClearAllCars()</text>
</g>
<!-- LopEditing&#45;&gt;LopEditing -->
<g id="edge11" class="edge">
<title>LopEditing-&gt;LopEditing</title>
<path fill="none" stroke="#ffa500" d="M886.4217,-158.2356C861.1737,-206.0113 871.1493,-272.3832 916.3485,-272.3832 958.7227,-272.3832 970.1388,-214.0485 950.5965,-167.3907"/>
<polygon fill="#ffa500" stroke="#ffa500" points="953.7089,-165.7849 946.2753,-158.2356 947.3786,-168.7728 953.7089,-165.7849"/>
<text text-anchor="middle" x="916.3485" y="-293.3832" font-family="Times,serif" font-size="14.00" fill="#ffa500">DcoEvent::GuiCarClicked []/</text>
<text text-anchor="middle" x="916.3485" y="-276.5832" font-family="Times,serif" font-size="14.00" fill="#ffa500">carToggleSelection()</text>
</g>
<!-- SendEditedLop -->
<g id="node4" class="node">
<title>SendEditedLop</title>
<ellipse fill="#d3d3d3" stroke="#000000" cx="1500.8046" cy="-60.0489" rx="57.8036" ry="57.8036"/>
<text text-anchor="middle" x="1500.8046" y="-56.4489" font-family="Times,serif" font-size="12.00" fill="#0000ff">SendEditedLop</text>
</g>
<!-- LopEditing&#45;&gt;SendEditedLop -->
<g id="edge7" class="edge">
<title>LopEditing-&gt;SendEditedLop</title>
<path fill="none" stroke="#ffc0cb" d="M961.2393,-119.1332C1063.0535,-107.9842 1312.0024,-80.7234 1432.8174,-67.4937"/>
<polygon fill="#ffc0cb" stroke="#ffc0cb" points="1433.4883,-70.9413 1443.0478,-66.3735 1432.7262,-63.9829 1433.4883,-70.9413"/>
<text text-anchor="middle" x="1214.5151" y="-134.0489" font-family="Times,serif" font-size="14.00" fill="#ffc0cb">DcoEvent::GuiButtonConfirmSelectionClicked []/</text>
<text text-anchor="middle" x="1214.5151" y="-117.2489" font-family="Times,serif" font-size="14.00" fill="#ffc0cb">_state.hsm().sendEvent(DcoEvent::GuiButtonAsdoClicked); return true; })</text>
</g>
<!-- SendEditedLop&#45;&gt;ConsistViewOverride -->
<g id="edge6" class="edge">
<title>SendEditedLop-&gt;ConsistViewOverride</title>
<path fill="none" stroke="#ffc0cb" d="M1443.0232,-55.5843C1293.0333,-44.9345 879.1499,-21.542 537.3669,-58.0489 534.1458,-58.3929 530.8717,-58.7927 527.5708,-59.2378"/>
<polygon fill="#ffc0cb" stroke="#ffc0cb" points="526.9996,-55.784 517.6137,-60.6989 528.016,-62.7099 526.9996,-55.784"/>
<text text-anchor="middle" x="916.3485" y="-44.2489" font-family="Times,serif" font-size="14.00" fill="#ffc0cb">DcoEvent::NoTrigger []/</text>
</g>
</g>
</svg>