<?xml version="1.0" encoding="UTF-8" standalone="no"?><!DOCTYPE svg PUBLIC "-//W3C//DTD SVG 1.1//EN" "http://www.w3.org/Graphics/SVG/1.1/DTD/svg11.dtd"><!-- Generated by graphviz version 2.40.1 (20161225.0304)
 --><!-- Title: G Pages: 1 --><svg xmlns="http://www.w3.org/2000/svg" xmlns:xlink="http://www.w3.org/1999/xlink" width="2707pt" height="1403pt" viewBox="0.00 0.00 2706.71 1402.72">
<g id="graph0" class="graph" transform="scale(1 1) rotate(0) translate(4 1398.7175)">
<title>G</title>
<polygon fill="#ffffff" stroke="transparent" points="-4,4 -4,-1398.7175 2702.7059,-1398.7175 2702.7059,4 -4,4"/>
<!-- Initial -->
<g id="node1" class="node">
<title>Initial</title>
<ellipse fill="none" stroke="#000000" cx="1694.5553" cy="-152.9987" rx="34.1919" ry="34.1919"/>
<ellipse fill="none" stroke="#000000" cx="1694.5553" cy="-152.9987" rx="38.2026" ry="38.2026"/>
<text text-anchor="middle" x="1694.5553" y="-148.7987" font-family="Times,serif" font-size="14.00" fill="#000000">Initial</text>
</g>
<!-- CheckNvmLocation -->
<g id="node2" class="node">
<title>CheckNvmLocation</title>
<ellipse fill="#d3d3d3" stroke="#000000" cx="872.4948" cy="-1286.6357" rx="72.2398" ry="72.2398"/>
<text text-anchor="middle" x="872.4948" y="-1283.0357" font-family="Times,serif" font-size="12.00" fill="#0000ff">CheckNvmLocation</text>
</g>
<!-- LocationSelection -->
<g id="node3" class="node">
<title>LocationSelection</title>
<ellipse fill="#d3d3d3" stroke="#000000" cx="486.459" cy="-551.106" rx="65.9676" ry="65.9676"/>
<text text-anchor="middle" x="486.459" y="-547.506" font-family="Times,serif" font-size="12.00" fill="#0000ff">LocationSelection</text>
</g>
<!-- CheckNvmLocation&#45;&gt;LocationSelection -->
<g id="edge1" class="edge">
<title>CheckNvmLocation-&gt;LocationSelection</title>
<path fill="none" stroke="#ffa500" d="M838.7436,-1222.3283C766.2087,-1084.1245 596.0487,-759.9117 521.9666,-618.7602"/>
<polygon fill="#ffa500" stroke="#ffa500" points="524.9744,-616.9595 517.228,-609.7314 518.7762,-620.2126 524.9744,-616.9595"/>
<text text-anchor="middle" x="838.3143" y="-941.5442" font-family="Times,serif" font-size="14.00" fill="#ffa500">DcoEvent::NoTrigger [_state.nvmLocation() == nullptr]</text>
<text text-anchor="middle" x="838.3143" y="-924.7442" font-family="Times,serif" font-size="14.00" fill="#ffa500">&lt; clearNvmStateData(); &gt;</text>
</g>
<!-- HandleNvmLocation -->
<g id="node4" class="node">
<title>HandleNvmLocation</title>
<ellipse fill="#d3d3d3" stroke="#000000" cx="625.7762" cy="-1116.3382" rx="74.8426" ry="74.8426"/>
<text text-anchor="middle" x="625.7762" y="-1112.7382" font-family="Times,serif" font-size="12.00" fill="#0000ff">HandleNvmLocation</text>
</g>
<!-- CheckNvmLocation&#45;&gt;HandleNvmLocation -->
<g id="edge2" class="edge">
<title>CheckNvmLocation-&gt;HandleNvmLocation</title>
<path fill="none" stroke="#ffa500" d="M812.7711,-1245.4114C777.5037,-1221.0681 732.6806,-1190.129 695.7602,-1164.6446"/>
<polygon fill="#ffa500" stroke="#ffa500" points="697.7445,-1161.7615 687.5264,-1158.9613 693.768,-1167.5224 697.7445,-1161.7615"/>
<text text-anchor="middle" x="528.2006" y="-1226.028" font-family="Times,serif" font-size="14.00" fill="#ffa500">DcoEvent::NoTrigger [_state.nvmLocation() &amp;&amp; !plausibleLocations().empty()]</text>
<text text-anchor="middle" x="528.2006" y="-1209.228" font-family="Times,serif" font-size="14.00" fill="#ffa500">&lt;&gt;</text>
</g>
<!-- CheckNvmPlatform -->
<g id="node5" class="node">
<title>CheckNvmPlatform</title>
<ellipse fill="#d3d3d3" stroke="#000000" cx="1170.0944" cy="-1322.7708" rx="71.8934" ry="71.8934"/>
<text text-anchor="middle" x="1170.0944" y="-1319.1708" font-family="Times,serif" font-size="12.00" fill="#0000ff">CheckNvmPlatform</text>
</g>
<!-- CheckNvmLocation&#45;&gt;CheckNvmPlatform -->
<g id="edge3" class="edge">
<title>CheckNvmLocation-&gt;CheckNvmPlatform</title>
<path fill="none" stroke="#bf3eff" d="M944.5353,-1295.383C987.9555,-1300.6552 1043.3838,-1307.3854 1088.4276,-1312.8547"/>
<polygon fill="#bf3eff" stroke="#bf3eff" points="1088.1108,-1316.3419 1098.4598,-1314.0728 1088.9546,-1309.3929 1088.1108,-1316.3419"/>
<text text-anchor="middle" x="1240.2162" y="-1325.1189" font-family="Times,serif" font-size="14.00" fill="#bf3eff">DcoEvent::NoTrigger [_state.nvmLocation() &amp;&amp; plausibleLocations().empty()]</text>
<text text-anchor="middle" x="1240.2162" y="-1308.3189" font-family="Times,serif" font-size="14.00" fill="#bf3eff">&lt; setNvmLocationAsCurrentLocation(); _state.nvmLocation().reset(); &gt;</text>
</g>
<!-- ConfirmedLocations -->
<g id="node6" class="node">
<title>ConfirmedLocations</title>
<ellipse fill="#d3d3d3" stroke="#000000" cx="625.7762" cy="-285.6592" rx="73.7967" ry="73.7967"/>
<text text-anchor="middle" x="625.7762" y="-282.0592" font-family="Times,serif" font-size="12.00" fill="#0000ff">ConfirmedLocations</text>
</g>
<!-- LocationSelection&#45;&gt;ConfirmedLocations -->
<g id="edge16" class="edge">
<title>LocationSelection-&gt;ConfirmedLocations</title>
<path fill="none" stroke="#40e0d0" d="M517.2052,-492.5239C537.6604,-453.5498 564.7068,-402.0172 586.6874,-360.1366"/>
<polygon fill="#40e0d0" stroke="#40e0d0" points="589.8913,-361.5634 591.4395,-351.0823 583.6931,-358.3103 589.8913,-361.5634"/>
<text text-anchor="middle" x="484.1128" y="-447.3303" font-family="Times,serif" font-size="14.00" fill="#40e0d0">DcoEvent::NoTrigger []</text>
<text text-anchor="middle" x="484.1128" y="-430.5303" font-family="Times,serif" font-size="14.00" fill="#40e0d0">&lt;&gt;</text>
</g>
<!-- MultiplePlausibleLocations -->
<g id="node7" class="node">
<title>MultiplePlausibleLocations</title>
<ellipse fill="#d3d3d3" stroke="#000000" cx="486.459" cy="-850.8914" rx="94.8844" ry="94.8844"/>
<text text-anchor="middle" x="486.459" y="-847.2914" font-family="Times,serif" font-size="12.00" fill="#0000ff">MultiplePlausibleLocations</text>
</g>
<!-- LocationSelection&#45;&gt;MultiplePlausibleLocations -->
<g id="edge14" class="edge">
<title>LocationSelection-&gt;MultiplePlausibleLocations</title>
<path fill="none" stroke="#ff0000" d="M486.459,-617.2663C486.459,-654.9393 486.459,-703.0024 486.459,-745.7279"/>
<polygon fill="#ff0000" stroke="#ff0000" points="482.9591,-745.8926 486.459,-755.8926 489.9591,-745.8927 482.9591,-745.8926"/>
<text text-anchor="middle" x="262.5444" y="-702.4971" font-family="Times,serif" font-size="14.00" fill="#ff0000">DcoEvent::NoTrigger [!plausibleLocations().empty() &amp;&amp; !isWithinGeofence()]</text>
<text text-anchor="middle" x="262.5444" y="-685.6971" font-family="Times,serif" font-size="14.00" fill="#ff0000">&lt;&gt;</text>
</g>
<!-- ConsistView -->
<g id="node10" class="node">
<title>ConsistView</title>
<ellipse fill="#d3d3d3" stroke="#000000" cx="1720.9365" cy="-700.9987" rx="49.6291" ry="49.6291"/>
<text text-anchor="middle" x="1720.9365" y="-697.3987" font-family="Times,serif" font-size="12.00" fill="#0000ff">ConsistView</text>
</g>
<!-- LocationSelection&#45;&gt;ConsistView -->
<g id="edge12" class="edge">
<title>LocationSelection-&gt;ConsistView</title>
<path fill="none" stroke="#00ff00" d="M550.3548,-568.639C764.1816,-608.9063 1452.862,-692.3873 1660.8846,-703.0617"/>
<polygon fill="#00ff00" stroke="#00ff00" points="1660.8504,-706.5639 1671.0044,-703.5395 1661.1806,-699.5717 1660.8504,-706.5639"/>
<text text-anchor="middle" x="915.1427" y="-656.8503" font-family="Times,serif" font-size="14.00" fill="#00ff00">DcoEvent::NoTrigger [_state.driverOverrideInUnknownLocation()]</text>
<text text-anchor="middle" x="915.1427" y="-640.0503" font-family="Times,serif" font-size="14.00" fill="#00ff00">&lt;	updateGuiWithStationInformation(); &gt;</text>
</g>
<!-- LocationSelection&#45;&gt;ConsistView -->
<g id="edge13" class="edge">
<title>LocationSelection-&gt;ConsistView</title>
<path fill="none" stroke="#000000" d="M552.694,-549.3737C769.944,-561.4486 1458.5909,-645.2054 1663.1233,-684.6242"/>
<polygon fill="#000000" stroke="#000000" points="1662.5755,-688.0835 1673.0634,-686.5822 1663.9284,-681.2155 1662.5755,-688.0835"/>
<text text-anchor="middle" x="1040.0751" y="-604.399" font-family="Times,serif" font-size="14.00" fill="#000000">DcoEvent::NoTrigger []</text>
<text text-anchor="middle" x="1040.0751" y="-587.599" font-family="Times,serif" font-size="14.00" fill="#000000">&lt;&gt;</text>
</g>
<!-- NoPlausibleLocations -->
<g id="node12" class="node">
<title>NoPlausibleLocations</title>
<ellipse fill="#d3d3d3" stroke="#000000" cx="1649.1931" cy="-992.0729" rx="77.8162" ry="77.8162"/>
<text text-anchor="middle" x="1649.1931" y="-988.4729" font-family="Times,serif" font-size="12.00" fill="#0000ff">NoPlausibleLocations</text>
</g>
<!-- LocationSelection&#45;&gt;NoPlausibleLocations -->
<g id="edge15" class="edge">
<title>LocationSelection-&gt;NoPlausibleLocations</title>
<path fill="none" stroke="#40e0d0" d="M547.0014,-577.5361C740.2736,-655.6732 1342.7706,-884.326 1565.4111,-964.2355"/>
<polygon fill="#40e0d0" stroke="#40e0d0" points="1564.4916,-967.6238 1575.0861,-967.6998 1566.8513,-961.0335 1564.4916,-967.6238"/>
<text text-anchor="middle" x="906.927" y="-791.8858" font-family="Times,serif" font-size="14.00" fill="#40e0d0">DcoEvent::NoTrigger [plausibleLocations().empty()]</text>
<text text-anchor="middle" x="906.927" y="-775.0858" font-family="Times,serif" font-size="14.00" fill="#40e0d0">&lt;&gt;</text>
</g>
<!-- LocationSelection&#45;&gt;NoPlausibleLocations -->
<g id="edge17" class="edge">
<title>LocationSelection-&gt;NoPlausibleLocations</title>
<path fill="none" stroke="#000000" d="M549.302,-571.4698C745.7828,-641.1466 1348.3832,-869.5269 1568.0218,-957.3517"/>
<polygon fill="#000000" stroke="#000000" points="1566.9765,-960.7033 1577.5609,-961.1744 1569.5805,-954.2056 1566.9765,-960.7033"/>
<text text-anchor="middle" x="990.8284" y="-751.8107" font-family="Times,serif" font-size="14.00" fill="#000000">DcoEvent::NoTrigger []</text>
<text text-anchor="middle" x="990.8284" y="-735.0107" font-family="Times,serif" font-size="14.00" fill="#000000">&lt;&gt;</text>
</g>
<!-- HandleNvmLocation&#45;&gt;CheckNvmPlatform -->
<g id="edge4" class="edge">
<title>HandleNvmLocation-&gt;CheckNvmPlatform</title>
<path fill="none" stroke="#0000ff" d="M696.0999,-1143.0084C798.344,-1181.7845 987.3514,-1253.4656 1093.1823,-1293.6019"/>
<polygon fill="#0000ff" stroke="#0000ff" points="1091.9413,-1296.8745 1102.5326,-1297.148 1094.4236,-1290.3294 1091.9413,-1296.8745"/>
<text text-anchor="middle" x="1096.7185" y="-1205.7052" font-family="Times,serif" font-size="14.00" fill="#0000ff">DcoEvent::NoTrigger [isNvmLocationInPlausibleLocations()]</text>
<text text-anchor="middle" x="1096.7185" y="-1188.9052" font-family="Times,serif" font-size="14.00" fill="#0000ff">&lt; setNvmLocationAsCurrentLocation(); _state.nvmLocation().reset(); &gt;</text>
</g>
<!-- HandleNvmLocation&#45;&gt;ConfirmedLocations -->
<g id="edge5" class="edge">
<title>HandleNvmLocation-&gt;ConfirmedLocations</title>
<path fill="none" stroke="#0000ff" d="M625.7762,-1041.1559C625.7762,-886.2064 625.7762,-532.266 625.7762,-369.8917"/>
<polygon fill="#0000ff" stroke="#0000ff" points="629.2763,-369.4776 625.7762,-359.4776 622.2763,-369.4776 629.2763,-369.4776"/>
<text text-anchor="middle" x="853.3091" y="-692.9238" font-family="Times,serif" font-size="14.00" fill="#0000ff">DcoEvent::NoTrigger [isWithinGeofence() &amp;&amp; plausibleLocations().size() == 1]</text>
<text text-anchor="middle" x="853.3091" y="-676.1238" font-family="Times,serif" font-size="14.00" fill="#0000ff">&lt; locationMoreReliableThanNvm(); &gt;</text>
</g>
<!-- HandleNvmLocation&#45;&gt;MultiplePlausibleLocations -->
<g id="edge6" class="edge">
<title>HandleNvmLocation-&gt;MultiplePlausibleLocations</title>
<path fill="none" stroke="#000000" d="M590.8004,-1049.6974C574.0786,-1017.8365 553.7767,-979.1546 535.5416,-944.4105"/>
<polygon fill="#000000" stroke="#000000" points="538.4529,-942.4261 530.7066,-935.1981 532.2547,-945.6792 538.4529,-942.4261"/>
<text text-anchor="middle" x="281.5855" y="-1018.0539" font-family="Times,serif" font-size="14.00" fill="#000000">DcoEvent::NoTrigger [!isNvmLocationInPlausibleLocations() &amp;&amp; plausibleLocations().size() &gt;= 1]</text>
<text text-anchor="middle" x="281.5855" y="-1001.2539" font-family="Times,serif" font-size="14.00" fill="#000000">&lt; clearNvmStateData(); &gt;</text>
</g>
<!-- CheckNvmPlatform&#45;&gt;ConfirmedLocations -->
<g id="edge8" class="edge">
<title>CheckNvmPlatform-&gt;ConfirmedLocations</title>
<path fill="none" stroke="#00ff00" d="M1136.4556,-1258.6775C1040.6843,-1076.2005 766.8993,-554.5467 664.793,-359.9995"/>
<polygon fill="#00ff00" stroke="#00ff00" points="667.8084,-358.2133 660.062,-350.9853 661.6102,-361.4664 667.8084,-358.2133"/>
<text text-anchor="middle" x="1063.6445" y="-830.3385" font-family="Times,serif" font-size="14.00" fill="#00ff00">DcoEvent::NoTrigger [_state.nvmStopBoard() == nullptr]</text>
<text text-anchor="middle" x="1063.6445" y="-813.5385" font-family="Times,serif" font-size="14.00" fill="#00ff00">&lt; clearNvmStateData(); &gt;</text>
</g>
<!-- HandleNvmPlatform -->
<g id="node8" class="node">
<title>HandleNvmPlatform</title>
<ellipse fill="#d3d3d3" stroke="#000000" cx="1450.3986" cy="-185.5319" rx="74.4963" ry="74.4963"/>
<text text-anchor="middle" x="1450.3986" y="-181.9319" font-family="Times,serif" font-size="12.00" fill="#0000ff">HandleNvmPlatform</text>
</g>
<!-- CheckNvmPlatform&#45;&gt;HandleNvmPlatform -->
<g id="edge7" class="edge">
<title>CheckNvmPlatform-&gt;HandleNvmPlatform</title>
<path fill="none" stroke="#40e0d0" d="M1187.4171,-1252.4897C1236.6772,-1052.6339 1377.3896,-481.7412 1430.1181,-267.8133"/>
<polygon fill="#40e0d0" stroke="#40e0d0" points="1433.5668,-268.446 1432.5617,-257.8989 1426.7702,-266.7707 1433.5668,-268.446"/>
<text text-anchor="middle" x="1470.1708" y="-781.1515" font-family="Times,serif" font-size="14.00" fill="#40e0d0">DcoEvent::NoTrigger [_state.nvmStopBoard() != nullptr]</text>
<text text-anchor="middle" x="1470.1708" y="-764.3515" font-family="Times,serif" font-size="14.00" fill="#40e0d0">&lt; setNvmStopBoardAsCurrentStopBoard(); &gt;</text>
</g>
<!-- ApplyLockoutPattern -->
<g id="node9" class="node">
<title>ApplyLockoutPattern</title>
<ellipse fill="#d3d3d3" stroke="#000000" cx="1170.0944" cy="-79.2265" rx="76.761" ry="76.761"/>
<text text-anchor="middle" x="1170.0944" y="-75.6265" font-family="Times,serif" font-size="12.00" fill="#0000ff">ApplyLockoutPattern</text>
</g>
<!-- ConfirmedLocations&#45;&gt;ApplyLockoutPattern -->
<g id="edge30" class="edge">
<title>ConfirmedLocations-&gt;ApplyLockoutPattern</title>
<path fill="none" stroke="#ffa500" d="M694.7145,-259.5143C795.2383,-221.3907 981.6986,-150.6756 1088.7861,-110.0627"/>
<polygon fill="#ffa500" stroke="#ffa500" points="1090.1516,-113.2881 1098.2607,-106.4695 1087.6694,-106.743 1090.1516,-113.2881"/>
<text text-anchor="middle" x="1063.2503" y="-205.7885" font-family="Times,serif" font-size="14.00" fill="#ffa500">DcoEvent::NoTrigger [_state.selectedStopBoard() != nullptr]</text>
<text text-anchor="middle" x="1063.2503" y="-188.9885" font-family="Times,serif" font-size="14.00" fill="#ffa500">&lt;&gt;</text>
</g>
<!-- MultiplePlatformsDetectDirection -->
<g id="node13" class="node">
<title>MultiplePlatformsDetectDirection</title>
<ellipse fill="#d3d3d3" stroke="#000000" cx="872.4948" cy="-115.3617" rx="115.2235" ry="115.2235"/>
<text text-anchor="middle" x="872.4948" y="-111.7617" font-family="Times,serif" font-size="12.00" fill="#0000ff">MultiplePlatformsDetectDirection</text>
</g>
<!-- ConfirmedLocations&#45;&gt;MultiplePlatformsDetectDirection -->
<g id="edge31" class="edge">
<title>ConfirmedLocations-&gt;MultiplePlatformsDetectDirection</title>
<path fill="none" stroke="#a52a2a" d="M686.4463,-243.7816C711.3793,-226.5716 740.9656,-206.1497 769.1244,-186.713"/>
<polygon fill="#a52a2a" stroke="#a52a2a" points="771.1741,-189.5511 777.4157,-180.99 767.1976,-183.7902 771.1741,-189.5511"/>
<text text-anchor="middle" x="576.57" y="-202.6473" font-family="Times,serif" font-size="14.00" fill="#a52a2a">DcoEvent::NoTrigger [!availablePlatforms().empty()]</text>
<text text-anchor="middle" x="576.57" y="-185.8473" font-family="Times,serif" font-size="14.00" fill="#a52a2a">&lt;&gt;</text>
</g>
<!-- MultiplePlausibleLocations&#45;&gt;ConfirmedLocations -->
<g id="edge20" class="edge">
<title>MultiplePlausibleLocations-&gt;ConfirmedLocations</title>
<path fill="none" stroke="#000000" d="M514.1441,-760.0493C543.1161,-651.787 587.2358,-472.4598 610.5192,-368.0601"/>
<polygon fill="#000000" stroke="#000000" points="613.9586,-368.7162 612.7062,-358.1957 607.1246,-367.2011 613.9586,-368.7162"/>
<text text-anchor="middle" x="690.0389" y="-585.0547" font-family="Times,serif" font-size="14.00" fill="#000000">DcoEvent::OnTmcStationSelectedMessage []</text>
<text text-anchor="middle" x="690.0389" y="-568.2547" font-family="Times,serif" font-size="14.00" fill="#000000">&lt; clearPlatformIfLocationChanged(); &gt;</text>
</g>
<!-- MultiplePlausibleLocations&#45;&gt;ConfirmedLocations -->
<g id="edge21" class="edge">
<title>MultiplePlausibleLocations-&gt;ConfirmedLocations</title>
<path fill="none" stroke="#0000ff" d="M504.1615,-757.5888C528.82,-648.2634 573.0915,-468.9735 600.992,-365.7119"/>
<polygon fill="#0000ff" stroke="#0000ff" points="604.3969,-366.5288 603.6397,-355.961 597.6415,-364.6944 604.3969,-366.5288"/>
<text text-anchor="middle" x="921.7917" y="-549.0503" font-family="Times,serif" font-size="14.00" fill="#0000ff">DcoEvent::GuiButtonConfirmSelectionClicked [_state.selectedStation() != nullptr &amp;&amp; filterStopboards( *_state.selectedStation() )]</text>
<text text-anchor="middle" x="921.7917" y="-532.2503" font-family="Times,serif" font-size="14.00" fill="#0000ff">&lt;&gt;</text>
</g>
<!-- MultiplePlausibleLocations&#45;&gt;MultiplePlausibleLocations -->
<g id="edge22" class="edge">
<title>MultiplePlausibleLocations-&gt;MultiplePlausibleLocations</title>
<path fill="none" stroke="#ffa500" d="M581.6259,-856.6114C592.4112,-855.5403 599.4012,-853.6336 599.4012,-850.8914 599.4012,-849.1347 596.5325,-847.7209 591.635,-846.6499"/>
<polygon fill="#ffa500" stroke="#ffa500" points="592.0301,-843.1704 581.6259,-845.1714 591.0071,-850.0952 592.0301,-843.1704"/>
<text text-anchor="middle" x="691.7361" y="-855.0914" font-family="Times,serif" font-size="14.00" fill="#ffa500">DcoEvent::GuiStationSelected []</text>
<text text-anchor="middle" x="691.7361" y="-838.2914" font-family="Times,serif" font-size="14.00" fill="#ffa500">&lt; handleStationSelected(); &gt;</text>
</g>
<!-- MultiplePlausibleLocations&#45;&gt;ConsistView -->
<g id="edge23" class="edge">
<title>MultiplePlausibleLocations-&gt;ConsistView</title>
<path fill="none" stroke="#00ff00" d="M581.225,-843.2122C824.2366,-817.8889 1464.3328,-739.934 1661.964,-711.2872"/>
<polygon fill="#00ff00" stroke="#00ff00" points="1662.479,-714.7492 1671.8669,-709.8382 1661.4655,-707.8229 1662.479,-714.7492"/>
<text text-anchor="middle" x="1186.2301" y="-764.6497" font-family="Times,serif" font-size="14.00" fill="#00ff00">DcoEvent::GuiButtonAsdoOverrideClicked []</text>
<text text-anchor="middle" x="1186.2301" y="-747.8497" font-family="Times,serif" font-size="14.00" fill="#00ff00">&lt; handleOverrideInUnknownLocation(); &gt;</text>
</g>
<!-- MultiplePlausibleLocations&#45;&gt;ConsistView -->
<g id="edge24" class="edge">
<title>MultiplePlausibleLocations-&gt;ConsistView</title>
<path fill="none" stroke="#bf3eff" d="M580.309,-835.6684C822.3194,-802.0994 1462.4714,-724.6041 1661.2154,-705.1222"/>
<polygon fill="#bf3eff" stroke="#bf3eff" points="1661.5606,-708.6052 1671.1774,-704.1591 1660.8869,-701.6377 1661.5606,-708.6052"/>
<text text-anchor="middle" x="947.9707" y="-757.7953" font-family="Times,serif" font-size="14.00" fill="#bf3eff">DcoEvent::OnDriverOverrideInUnknownLocationMessage []</text>
<text text-anchor="middle" x="947.9707" y="-740.9953" font-family="Times,serif" font-size="14.00" fill="#bf3eff">&lt; handleOverrideInUnknownLocation(); &gt;</text>
</g>
<!-- MultiplePlausibleLocations&#45;&gt;NoPlausibleLocations -->
<g id="edge18" class="edge">
<title>MultiplePlausibleLocations-&gt;NoPlausibleLocations</title>
<path fill="none" stroke="#0000ff" d="M580.6469,-866.2598C800.8893,-896.8673 1347.0436,-963.1403 1561.1152,-985.1836"/>
<polygon fill="#0000ff" stroke="#0000ff" points="1561.0587,-988.696 1571.3627,-986.2307 1561.7703,-981.7322 1561.0587,-988.696"/>
<text text-anchor="middle" x="1217.986" y="-946.7217" font-family="Times,serif" font-size="14.00" fill="#0000ff">DcoEvent::GuiButtonLocationClicked []</text>
<text text-anchor="middle" x="1217.986" y="-929.9217" font-family="Times,serif" font-size="14.00" fill="#0000ff">&lt;}), true); _state.reactToLocationMessages(false); &gt;</text>
</g>
<!-- MultiplePlausibleLocations&#45;&gt;NoPlausibleLocations -->
<g id="edge19" class="edge">
<title>MultiplePlausibleLocations-&gt;NoPlausibleLocations</title>
<path fill="none" stroke="#40e0d0" d="M581.5879,-858.5102C802.7553,-881.4995 1348.8995,-947.8556 1562.0258,-977.6835"/>
<polygon fill="#40e0d0" stroke="#40e0d0" points="1561.8359,-981.1912 1572.2262,-979.1193 1562.8117,-974.2595 1561.8359,-981.1912"/>
<text text-anchor="middle" x="924.7019" y="-905.4969" font-family="Times,serif" font-size="14.00" fill="#40e0d0">DcoEvent::GuiButtonListAllLocationsClicked []</text>
<text text-anchor="middle" x="924.7019" y="-888.6969" font-family="Times,serif" font-size="14.00" fill="#40e0d0">&lt;}), true); _state.reactToLocationMessages(false); &gt;</text>
</g>
<!-- HandleNvmPlatform&#45;&gt;ApplyLockoutPattern -->
<g id="edge9" class="edge">
<title>HandleNvmPlatform-&gt;ApplyLockoutPattern</title>
<path fill="none" stroke="#ff0000" d="M1380.3891,-158.9808C1341.2752,-144.1468 1292.3408,-125.5885 1251.5204,-110.1073"/>
<polygon fill="#ff0000" stroke="#ff0000" points="1252.7288,-106.8224 1242.1374,-106.5489 1250.2465,-113.3675 1252.7288,-106.8224"/>
<text text-anchor="middle" x="1171.6007" y="-155.5441" font-family="Times,serif" font-size="14.00" fill="#ff0000">DcoEvent::NoTrigger [_state.nvmLop() == nullptr]</text>
<text text-anchor="middle" x="1171.6007" y="-138.7441" font-family="Times,serif" font-size="14.00" fill="#ff0000">&lt; clearNvmStateData(); &gt;</text>
</g>
<!-- HandleNvmPlatform&#45;&gt;ConsistView -->
<g id="edge10" class="edge">
<title>HandleNvmPlatform-&gt;ConsistView</title>
<path fill="none" stroke="#ffc0cb" d="M1485.0749,-251.6021C1539.3031,-354.9252 1643.117,-552.7261 1692.9241,-647.6256"/>
<polygon fill="#ffc0cb" stroke="#ffc0cb" points="1689.9699,-649.5284 1697.7163,-656.7564 1696.1681,-646.2753 1689.9699,-649.5284"/>
<text text-anchor="middle" x="1446.2625" y="-470.6139" font-family="Times,serif" font-size="14.00" fill="#ffc0cb">DcoEvent::NoTrigger [_state.nvmLop() != nullptr]</text>
<text text-anchor="middle" x="1446.2625" y="-453.8139" font-family="Times,serif" font-size="14.00" fill="#ffc0cb">&lt; _state.nvmStopBoard().reset(); &gt;</text>
</g>
<!-- ApplyLockoutPattern&#45;&gt;LocationSelection -->
<g id="edge40" class="edge">
<title>ApplyLockoutPattern-&gt;LocationSelection</title>
<path fill="none" stroke="#00ff00" d="M1107.005,-122.774C976.8184,-212.6353 679.7232,-417.7053 549.5421,-507.5629"/>
<polygon fill="#00ff00" stroke="#00ff00" points="547.4538,-504.7514 541.2122,-513.3126 551.4303,-510.5123 547.4538,-504.7514"/>
<text text-anchor="middle" x="992.9191" y="-336.1684" font-family="Times,serif" font-size="14.00" fill="#00ff00">DcoEvent::EnforceStopboardSelectionDueToEmptyLop []</text>
<text text-anchor="middle" x="992.9191" y="-319.3684" font-family="Times,serif" font-size="14.00" fill="#00ff00">&lt;&gt;</text>
</g>
<!-- ApplyLockoutPattern&#45;&gt;ConsistView -->
<g id="edge39" class="edge">
<title>ApplyLockoutPattern-&gt;ConsistView</title>
<path fill="none" stroke="#a52a2a" d="M1214.538,-141.7739C1317.7625,-269.317 1571.8737,-555.7446 1675.7885,-661.2042"/>
<polygon fill="#a52a2a" stroke="#a52a2a" points="1673.479,-663.8458 1683.0067,-668.4798 1678.4484,-658.9157 1673.479,-663.8458"/>
<text text-anchor="middle" x="1377.3298" y="-422.489" font-family="Times,serif" font-size="14.00" fill="#a52a2a">DcoEvent::NoTrigger []</text>
<text text-anchor="middle" x="1377.3298" y="-405.689" font-family="Times,serif" font-size="14.00" fill="#a52a2a">&lt;&gt;</text>
</g>
<!-- ConsistView&#45;&gt;LocationSelection -->
<g id="edge47" class="edge">
<title>ConsistView-&gt;LocationSelection</title>
<path fill="none" stroke="#40e0d0" d="M1671.7439,-692.141C1481.5596,-664.0363 793.5657,-580.2992 562.6398,-556.8728"/>
<polygon fill="#40e0d0" stroke="#40e0d0" points="562.9469,-553.3861 552.647,-555.8683 562.2468,-560.351 562.9469,-553.3861"/>
<text text-anchor="middle" x="1338.38" y="-611.9069" font-family="Times,serif" font-size="14.00" fill="#40e0d0">DcoEvent::OnLocationMessage [!_state.driverOverrideInUnknownLocation()]</text>
<text text-anchor="middle" x="1338.38" y="-595.1069" font-family="Times,serif" font-size="14.00" fill="#40e0d0">&lt; clearPlatformIfLocationChanged(); &gt;</text>
</g>
<!-- ConsistView&#45;&gt;LocationSelection -->
<g id="edge48" class="edge">
<title>ConsistView-&gt;LocationSelection</title>
<path fill="none" stroke="#a52a2a" d="M1671.0536,-697.8265C1479.6698,-679.6004 791.6282,-596.2565 561.8062,-563.738"/>
<polygon fill="#a52a2a" stroke="#a52a2a" points="562.257,-560.267 551.8634,-562.3218 561.2699,-567.1971 562.257,-560.267"/>
<text text-anchor="middle" x="1335.2877" y="-651.7822" font-family="Times,serif" font-size="14.00" fill="#a52a2a">DcoEvent::OnLocationMessage [_state.driverOverrideInUnknownLocation()]</text>
<text text-anchor="middle" x="1335.2877" y="-634.9822" font-family="Times,serif" font-size="14.00" fill="#a52a2a">&lt; clearPlatformIfLocationChanged(); &gt;</text>
</g>
<!-- ConsistView&#45;&gt;ConfirmedLocations -->
<g id="edge50" class="edge">
<title>ConsistView-&gt;ConfirmedLocations</title>
<path fill="none" stroke="#ffc0cb" d="M1674.2291,-683.2849C1504.3456,-618.8566 918.101,-396.5234 704.4586,-315.4995"/>
<polygon fill="#ffc0cb" stroke="#ffc0cb" points="705.4661,-312.1384 694.8748,-311.8648 702.9839,-318.6835 705.4661,-312.1384"/>
<text text-anchor="middle" x="1061.6365" y="-486.7922" font-family="Times,serif" font-size="14.00" fill="#ffc0cb">DcoEvent::OnTmcStationSelectedMessage []</text>
<text text-anchor="middle" x="1061.6365" y="-469.9922" font-family="Times,serif" font-size="14.00" fill="#ffc0cb">&lt; clearPlatformIfLocationChanged(); &gt;</text>
</g>
<!-- ConsistView&#45;&gt;ApplyLockoutPattern -->
<g id="edge43" class="edge">
<title>ConsistView-&gt;ApplyLockoutPattern</title>
<path fill="none" stroke="#00ff00" d="M1693.2376,-659.4397C1608.6869,-551.5677 1354.036,-263.213 1233.898,-138.2124"/>
<polygon fill="#00ff00" stroke="#00ff00" points="1236.3432,-135.7058 1226.881,-130.9394 1231.3055,-140.5662 1236.3432,-135.7058"/>
<text text-anchor="middle" x="1211.5244" y="-386.226" font-family="Times,serif" font-size="14.00" fill="#00ff00">DcoEvent::OnDoorMapMessage [_state.nvmLop()==nullptr &amp;&amp; hasDoorMapChanged()]</text>
<text text-anchor="middle" x="1211.5244" y="-369.426" font-family="Times,serif" font-size="14.00" fill="#00ff00">&lt; updateGuiWithDoorMap();  &gt;</text>
</g>
<!-- ConsistView&#45;&gt;ApplyLockoutPattern -->
<g id="edge46" class="edge">
<title>ConsistView-&gt;ApplyLockoutPattern</title>
<path fill="none" stroke="#0000ff" d="M1687.7193,-663.5043C1596.7235,-560.7912 1342.5872,-273.9307 1227.7385,-144.2933"/>
<polygon fill="#0000ff" stroke="#0000ff" points="1230.2943,-141.9001 1221.0433,-136.7359 1225.0547,-146.542 1230.2943,-141.9001"/>
<text text-anchor="middle" x="1325.361" y="-424.8988" font-family="Times,serif" font-size="14.00" fill="#0000ff">DcoEvent::OnTmcPlatformSelectedMessage []</text>
<text text-anchor="middle" x="1325.361" y="-408.0988" font-family="Times,serif" font-size="14.00" fill="#0000ff">&lt; clearNvmStateData(); &gt;</text>
</g>
<!-- ConsistView&#45;&gt;ConsistView -->
<g id="edge41" class="edge">
<title>ConsistView-&gt;ConsistView</title>
<path fill="none" stroke="#00ff00" d="M1770.9134,-703.1696C1781.2894,-702.9411 1788.7507,-702.2174 1788.7507,-700.9987 1788.7507,-700.237 1785.8361,-699.6686 1781.117,-699.2937"/>
<polygon fill="#00ff00" stroke="#00ff00" points="1781.0627,-695.7877 1770.9134,-698.8278 1780.7433,-702.7804 1781.0627,-695.7877"/>
<text text-anchor="middle" x="1893.9166" y="-705.1987" font-family="Times,serif" font-size="14.00" fill="#00ff00">DcoEvent::OnConsistMapMessage []</text>
<text text-anchor="middle" x="1893.9166" y="-688.3987" font-family="Times,serif" font-size="14.00" fill="#00ff00">&lt; updateGuiWithConsistMap(); &gt;</text>
</g>
<!-- ConsistView&#45;&gt;ConsistView -->
<g id="edge42" class="edge">
<title>ConsistView-&gt;ConsistView</title>
<path fill="none" stroke="#ffa500" d="M1770.7277,-704.1566C1945.2791,-709.834 2507.8299,-708.7814 2507.8299,-700.9987 2507.8299,-693.3604 1965.9613,-692.2047 1780.8386,-697.5317"/>
<polygon fill="#ffa500" stroke="#ffa500" points="1780.6161,-694.0367 1770.7277,-697.8408 1780.83,-701.0335 1780.6161,-694.0367"/>
<text text-anchor="middle" x="2603.2679" y="-705.1987" font-family="Times,serif" font-size="14.00" fill="#ffa500">DcoEvent::OnTmcLopMessage []</text>
<text text-anchor="middle" x="2603.2679" y="-688.3987" font-family="Times,serif" font-size="14.00" fill="#ffa500">&lt; sendLockOutPattern(); &gt;</text>
</g>
<!-- ConsistView&#45;&gt;ConsistView -->
<g id="edge44" class="edge">
<title>ConsistView-&gt;ConsistView</title>
<path fill="none" stroke="#ffa500" d="M1770.7794,-704.2099C1852.0587,-706.6746 1999.0825,-705.6042 1999.0825,-700.9987 1999.0825,-696.5776 1863.5964,-695.4142 1780.845,-697.5084"/>
<polygon fill="#ffa500" stroke="#ffa500" points="1780.6786,-694.0116 1770.7794,-697.7874 1780.8726,-701.0089 1780.6786,-694.0116"/>
<text text-anchor="middle" x="2253.4562" y="-705.1987" font-family="Times,serif" font-size="14.00" fill="#ffa500">DcoEvent::OnDoorMapMessage [_state.nvmLop()==nullptr &amp;&amp; !hasDoorMapChanged()]</text>
<text text-anchor="middle" x="2253.4562" y="-688.3987" font-family="Times,serif" font-size="14.00" fill="#ffa500">&lt; updateGuiWithDoorMap();  &gt;</text>
</g>
<!-- ApplyNvmLockoutPattern -->
<g id="node11" class="node">
<title>ApplyNvmLockoutPattern</title>
<ellipse fill="#d3d3d3" stroke="#000000" cx="1884.8941" cy="-700.9987" rx="91.9154" ry="91.9154"/>
<text text-anchor="middle" x="1884.8941" y="-697.3987" font-family="Times,serif" font-size="12.00" fill="#0000ff">ApplyNvmLockoutPattern</text>
</g>
<!-- ConsistView&#45;&gt;ApplyNvmLockoutPattern -->
<g id="edge45" class="edge">
<title>ConsistView-&gt;ApplyNvmLockoutPattern</title>
<path fill="none" stroke="#00ff00" d="M1770.5741,-707.2583C1774.4915,-707.3833 1778.5261,-707.4844 1782.6333,-707.5616"/>
<polygon fill="#00ff00" stroke="#00ff00" points="1782.9188,-711.0658 1792.9662,-707.7043 1783.0156,-704.0665 1782.9188,-711.0658"/>
<text text-anchor="middle" x="1606.6542" y="-728.41" font-family="Times,serif" font-size="14.00" fill="#00ff00">DcoEvent::OnDoorMapMessage [_state.nvmLop()!=nullptr]</text>
<text text-anchor="middle" x="1606.6542" y="-711.61" font-family="Times,serif" font-size="14.00" fill="#00ff00">&lt; updateGuiWithDoorMap();  &gt;</text>
</g>
<!-- ConsistView&#45;&gt;NoPlausibleLocations -->
<g id="edge49" class="edge">
<title>ConsistView-&gt;NoPlausibleLocations</title>
<path fill="none" stroke="#000000" d="M1694.7458,-743.4668C1678.9696,-785.4254 1661.7384,-850.7945 1651.8234,-903.9878"/>
<polygon fill="#000000" stroke="#000000" points="1648.3282,-903.6493 1649.9999,-914.1114 1655.2173,-904.8903 1648.3282,-903.6493"/>
<text text-anchor="middle" x="1558.7814" y="-844.7273" font-family="Times,serif" font-size="14.00" fill="#000000">DcoEvent::GuiButtonLocationClicked []</text>
<text text-anchor="middle" x="1558.7814" y="-827.9273" font-family="Times,serif" font-size="14.00" fill="#000000">&lt;}), true); &gt;</text>
</g>
<!-- ConsistView&#45;&gt;NoPlausibleLocations -->
<g id="edge52" class="edge">
<title>ConsistView-&gt;NoPlausibleLocations</title>
<path fill="none" stroke="#0000ff" d="M1724.3912,-750.7737C1718.8612,-795.2578 1703.7402,-861.147 1687.7992,-912.8551"/>
<polygon fill="#0000ff" stroke="#0000ff" points="1684.3749,-912.0769 1684.7092,-922.6665 1691.0516,-914.1797 1684.3749,-912.0769"/>
<text text-anchor="middle" x="1878.8867" y="-852.8144" font-family="Times,serif" font-size="14.00" fill="#0000ff">DcoEvent::OnDriverOverrideInUnknownLocationMessage []</text>
<text text-anchor="middle" x="1878.8867" y="-836.0144" font-family="Times,serif" font-size="14.00" fill="#0000ff">&lt; handleOverrideInUnknownLocation(); &gt;</text>
</g>
<!-- ManualOverride -->
<g id="node15" class="node">
<title>ManualOverride</title>
<ellipse fill="#d3d3d3" stroke="#000000" cx="1450.3986" cy="-1216.4655" rx="60.7313" ry="60.7313"/>
<text text-anchor="middle" x="1450.3986" y="-1212.8655" font-family="Times,serif" font-size="12.00" fill="#0000ff">ManualOverride</text>
</g>
<!-- ConsistView&#45;&gt;ManualOverride -->
<g id="edge51" class="edge">
<title>ConsistView-&gt;ManualOverride</title>
<path fill="none" stroke="#00ff00" d="M1694.0975,-743.5359C1642.9042,-833.6431 1532.182,-1044.1681 1479.3805,-1151.3291"/>
<polygon fill="#00ff00" stroke="#00ff00" points="1476.1778,-1149.9108 1474.9142,-1160.43 1482.4619,-1152.9948 1476.1778,-1149.9108"/>
<text text-anchor="middle" x="1396.8367" y="-968.4325" font-family="Times,serif" font-size="14.00" fill="#00ff00">DcoEvent::GuiButtonAsdoOverrideClicked [canManualOverride()]</text>
<text text-anchor="middle" x="1396.8367" y="-951.6325" font-family="Times,serif" font-size="14.00" fill="#00ff00">&lt;&gt;</text>
</g>
<!-- ApplyNvmLockoutPattern&#45;&gt;ConsistView -->
<g id="edge11" class="edge">
<title>ApplyNvmLockoutPattern-&gt;ConsistView</title>
<path fill="none" stroke="#0000ff" d="M1792.8507,-694.2941C1788.8177,-694.3307 1784.8176,-694.3893 1780.8905,-694.47"/>
<polygon fill="#0000ff" stroke="#0000ff" points="1780.598,-690.9764 1770.6925,-694.7353 1780.7801,-697.974 1780.598,-690.9764"/>
<text text-anchor="middle" x="1707.4479" y="-681.7821" font-family="Times,serif" font-size="14.00" fill="#0000ff">DcoEvent::NoTrigger []</text>
<text text-anchor="middle" x="1707.4479" y="-664.9821" font-family="Times,serif" font-size="14.00" fill="#0000ff">&lt; _state.nvmLop().reset(); &gt;</text>
</g>
<!-- NoPlausibleLocations&#45;&gt;ConfirmedLocations -->
<g id="edge25" class="edge">
<title>NoPlausibleLocations-&gt;ConfirmedLocations</title>
<path fill="none" stroke="#bf3eff" d="M1586.772,-944.7389C1406.7556,-815.2547 887.4733,-456.7761 696.9449,-330.4038"/>
<polygon fill="#bf3eff" stroke="#bf3eff" points="698.6657,-327.3455 688.3954,-324.7432 694.8013,-333.1822 698.6657,-327.3455"/>
<text text-anchor="middle" x="772.6434" y="-624.9714" font-family="Times,serif" font-size="14.00" fill="#bf3eff">DcoEvent::GuiButtonConfirmSelectionClicked [_state.selectedStation() != nullptr &amp;&amp; filterStopboards( *_state.selectedStation() )]</text>
<text text-anchor="middle" x="772.6434" y="-608.1714" font-family="Times,serif" font-size="14.00" fill="#bf3eff">&lt;&gt;</text>
</g>
<!-- NoPlausibleLocations&#45;&gt;ConfirmedLocations -->
<g id="edge26" class="edge">
<title>NoPlausibleLocations-&gt;ConfirmedLocations</title>
<path fill="none" stroke="#ffa500" d="M1582.8003,-950.4929C1397.8958,-828.0904 878.5724,-469.6713 692.8499,-336.3364"/>
<polygon fill="#ffa500" stroke="#ffa500" points="694.6876,-333.3469 684.5255,-330.3498 690.6005,-339.0299 694.6876,-333.3469"/>
<text text-anchor="middle" x="1358.3783" y="-664.4147" font-family="Times,serif" font-size="14.00" fill="#ffa500">DcoEvent::OnTmcStationSelectedMessage []</text>
<text text-anchor="middle" x="1358.3783" y="-647.6147" font-family="Times,serif" font-size="14.00" fill="#ffa500">&lt; clearPlatformIfLocationChanged(); _state.notifyStationConsistWide(true); &gt;</text>
</g>
<!-- NoPlausibleLocations&#45;&gt;ConsistView -->
<g id="edge28" class="edge">
<title>NoPlausibleLocations-&gt;ConsistView</title>
<path fill="none" stroke="#a52a2a" d="M1673.6869,-917.7937C1686.8666,-869.0481 1702.2073,-806.1464 1711.927,-760.6618"/>
<polygon fill="#a52a2a" stroke="#a52a2a" points="1715.3986,-761.1607 1714.0325,-750.6543 1708.5485,-759.7195 1715.3986,-761.1607"/>
<text text-anchor="middle" x="1822.078" y="-826.6278" font-family="Times,serif" font-size="14.00" fill="#a52a2a">DcoEvent::GuiButtonAsdoOverrideClicked []</text>
<text text-anchor="middle" x="1822.078" y="-809.8278" font-family="Times,serif" font-size="14.00" fill="#a52a2a">&lt; handleOverrideInUnknownLocation(); &gt;</text>
</g>
<!-- NoPlausibleLocations&#45;&gt;ConsistView -->
<g id="edge29" class="edge">
<title>NoPlausibleLocations-&gt;ConsistView</title>
<path fill="none" stroke="#0000ff" d="M1662.0242,-914.9191C1673.0074,-865.6322 1688.6557,-802.8062 1701.1871,-758.0147"/>
<polygon fill="#0000ff" stroke="#0000ff" points="1704.6163,-758.7503 1703.9735,-748.175 1697.8812,-756.843 1704.6163,-758.7503"/>
<text text-anchor="middle" x="1508.8142" y="-823.8669" font-family="Times,serif" font-size="14.00" fill="#0000ff">DcoEvent::OnDriverOverrideInUnknownLocationMessage []</text>
<text text-anchor="middle" x="1508.8142" y="-807.0669" font-family="Times,serif" font-size="14.00" fill="#0000ff">&lt; handleOverrideInUnknownLocation(); &gt;</text>
</g>
<!-- NoPlausibleLocations&#45;&gt;NoPlausibleLocations -->
<g id="edge27" class="edge">
<title>NoPlausibleLocations-&gt;NoPlausibleLocations</title>
<path fill="none" stroke="#ffc0cb" d="M1727.09,-998.0961C1737.8854,-997.1041 1745.1012,-995.0963 1745.1012,-992.0729 1745.1012,-990.136 1742.1398,-988.6159 1737.1731,-987.5127"/>
<polygon fill="#ffc0cb" stroke="#ffc0cb" points="1737.489,-984.022 1727.09,-986.0496 1736.4837,-990.9494 1737.489,-984.022"/>
<text text-anchor="middle" x="1837.4361" y="-996.2729" font-family="Times,serif" font-size="14.00" fill="#ffc0cb">DcoEvent::GuiStationSelected []</text>
<text text-anchor="middle" x="1837.4361" y="-979.4729" font-family="Times,serif" font-size="14.00" fill="#ffc0cb">&lt; handleStationSelected(); &gt;</text>
</g>
<!-- MultiplePlatformsDetectDirection&#45;&gt;ApplyLockoutPattern -->
<g id="edge54" class="edge">
<title>MultiplePlatformsDetectDirection-&gt;ApplyLockoutPattern</title>
<path fill="none" stroke="#000000" d="M987.1289,-101.4426C1019.1989,-97.5486 1053.5073,-93.3828 1083.6484,-89.723"/>
<polygon fill="#000000" stroke="#000000" points="1084.196,-93.1823 1093.7012,-88.5023 1083.3522,-86.2333 1084.196,-93.1823"/>
<text text-anchor="middle" x="1180.3908" y="-116.5828" font-family="Times,serif" font-size="14.00" fill="#000000">DcoEvent::NoTrigger [_state.platformConfirmed()]</text>
<text text-anchor="middle" x="1180.3908" y="-99.7828" font-family="Times,serif" font-size="14.00" fill="#000000">&lt;&gt;</text>
</g>
<!-- MultiplePlatforms -->
<g id="node14" class="node">
<title>MultiplePlatforms</title>
<ellipse fill="#d3d3d3" stroke="#000000" cx="1649.1931" cy="-409.9245" rx="66.3384" ry="66.3384"/>
<text text-anchor="middle" x="1649.1931" y="-406.3245" font-family="Times,serif" font-size="12.00" fill="#0000ff">MultiplePlatforms</text>
</g>
<!-- MultiplePlatformsDetectDirection&#45;&gt;MultiplePlatforms -->
<g id="edge53" class="edge">
<title>MultiplePlatformsDetectDirection-&gt;MultiplePlatforms</title>
<path fill="none" stroke="#0000ff" d="M980.4913,-156.3194C1141.5844,-217.4139 1440.489,-330.7735 1577.3692,-382.6853"/>
<polygon fill="#0000ff" stroke="#0000ff" points="1576.3491,-386.0416 1586.9405,-386.3152 1578.8314,-379.4965 1576.3491,-386.0416"/>
<text text-anchor="middle" x="1131.5978" y="-290.5023" font-family="Times,serif" font-size="14.00" fill="#0000ff">DcoEvent::NoTrigger [!_state.platformConfirmed()]</text>
<text text-anchor="middle" x="1131.5978" y="-273.7023" font-family="Times,serif" font-size="14.00" fill="#0000ff">&lt;&gt;</text>
</g>
<!-- MultiplePlatforms&#45;&gt;ConfirmedLocations -->
<g id="edge32" class="edge">
<title>MultiplePlatforms-&gt;ConfirmedLocations</title>
<path fill="none" stroke="#a52a2a" d="M1583.2252,-401.9145C1403.8852,-380.1387 907.6118,-319.8802 709.2655,-295.7966"/>
<polygon fill="#a52a2a" stroke="#a52a2a" points="709.542,-292.3046 699.193,-294.5736 708.6982,-299.2535 709.542,-292.3046"/>
<text text-anchor="middle" x="1273.9526" y="-336.2556" font-family="Times,serif" font-size="14.00" fill="#a52a2a">DcoEvent::OnTmcStationSelectedMessage []</text>
<text text-anchor="middle" x="1273.9526" y="-319.4556" font-family="Times,serif" font-size="14.00" fill="#a52a2a">&lt; clearPlatformIfLocationChanged(); &gt;</text>
</g>
<!-- MultiplePlatforms&#45;&gt;ApplyLockoutPattern -->
<g id="edge33" class="edge">
<title>MultiplePlatforms-&gt;ApplyLockoutPattern</title>
<path fill="none" stroke="#ffa500" d="M1596.7873,-368.2908C1511.4337,-305.9281 1342.2036,-188.9211 1244.454,-124.5053"/>
<polygon fill="#ffa500" stroke="#ffa500" points="1246.0821,-121.3871 1235.8031,-118.8195 1242.2374,-127.2367 1246.0821,-121.3871"/>
<text text-anchor="middle" x="1552.9886" y="-267.398" font-family="Times,serif" font-size="14.00" fill="#ffa500">DcoEvent::OnTmcPlatformSelectedMessage []</text>
<text text-anchor="middle" x="1552.9886" y="-250.598" font-family="Times,serif" font-size="14.00" fill="#ffa500">&lt;&gt;</text>
</g>
<!-- MultiplePlatforms&#45;&gt;ApplyLockoutPattern -->
<g id="edge35" class="edge">
<title>MultiplePlatforms-&gt;ApplyLockoutPattern</title>
<path fill="none" stroke="#ffc0cb" d="M1591.6815,-375.6877C1503.1046,-317.9949 1333.6914,-201.2532 1238.7991,-132.6979"/>
<polygon fill="#ffc0cb" stroke="#ffc0cb" points="1240.567,-129.6568 1230.4151,-126.6254 1236.4608,-135.326 1240.567,-129.6568"/>
<text text-anchor="middle" x="1172.1835" y="-241.5928" font-family="Times,serif" font-size="14.00" fill="#ffc0cb">DcoEvent::GuiButtonConfirmSelectionClicked [_state.selectedStopBoard() != nullptr]</text>
<text text-anchor="middle" x="1172.1835" y="-224.7928" font-family="Times,serif" font-size="14.00" fill="#ffc0cb">&lt; _state.clearTheRealNvmLop(); _state.notifyStopBoardConsistWide(true); &gt;</text>
</g>
<!-- MultiplePlatforms&#45;&gt;ConsistView -->
<g id="edge37" class="edge">
<title>MultiplePlatforms-&gt;ConsistView</title>
<path fill="none" stroke="#bf3eff" d="M1659.5615,-475.8922C1670.6009,-526.6909 1687.7932,-596.1586 1701.314,-644.4361"/>
<polygon fill="#bf3eff" stroke="#bf3eff" points="1697.9586,-645.4328 1704.053,-654.0993 1704.6933,-643.5239 1697.9586,-645.4328"/>
<text text-anchor="middle" x="1507.6462" y="-547.5641" font-family="Times,serif" font-size="14.00" fill="#bf3eff">DcoEvent::OnDriverOverrideInUnknownLocationMessage []</text>
<text text-anchor="middle" x="1507.6462" y="-530.7641" font-family="Times,serif" font-size="14.00" fill="#bf3eff">&lt; handleOverrideInUnknownLocation(); &gt;</text>
</g>
<!-- MultiplePlatforms&#45;&gt;ConsistView -->
<g id="edge38" class="edge">
<title>MultiplePlatforms-&gt;ConsistView</title>
<path fill="none" stroke="#40e0d0" d="M1670.6691,-473.1544C1684.5015,-523.2647 1701.5617,-592.7649 1712.0253,-641.796"/>
<polygon fill="#40e0d0" stroke="#40e0d0" points="1708.6091,-642.5588 1714.0908,-651.6252 1715.4595,-641.1192 1708.6091,-642.5588"/>
<text text-anchor="middle" x="1820.6183" y="-578.4752" font-family="Times,serif" font-size="14.00" fill="#40e0d0">DcoEvent::GuiButtonAsdoOverrideClicked []</text>
<text text-anchor="middle" x="1820.6183" y="-561.6752" font-family="Times,serif" font-size="14.00" fill="#40e0d0">&lt; handleOverrideInUnknownLocation(); &gt;</text>
</g>
<!-- MultiplePlatforms&#45;&gt;NoPlausibleLocations -->
<g id="edge34" class="edge">
<title>MultiplePlatforms-&gt;NoPlausibleLocations</title>
<path fill="none" stroke="#a52a2a" d="M1649.1931,-476.4207C1649.1931,-581.6486 1649.1931,-786.6162 1649.1931,-903.9608"/>
<polygon fill="#a52a2a" stroke="#a52a2a" points="1645.6932,-903.9931 1649.1931,-913.9931 1652.6932,-903.9932 1645.6932,-903.9931"/>
<text text-anchor="middle" x="1534.6899" y="-711.1907" font-family="Times,serif" font-size="14.00" fill="#a52a2a">DcoEvent::GuiButtonLocationClicked []</text>
<text text-anchor="middle" x="1534.6899" y="-694.3907" font-family="Times,serif" font-size="14.00" fill="#a52a2a">&lt;}), true); &gt;</text>
</g>
<!-- MultiplePlatforms&#45;&gt;MultiplePlatforms -->
<g id="edge36" class="edge">
<title>MultiplePlatforms-&gt;MultiplePlatforms</title>
<path fill="none" stroke="#00ff00" d="M1715.3775,-416.1698C1726.1849,-415.2758 1733.6122,-413.194 1733.6122,-409.9245 1733.6122,-407.83 1730.5641,-406.2229 1725.5317,-405.1032"/>
<polygon fill="#00ff00" stroke="#00ff00" points="1725.7667,-401.602 1715.3775,-403.6792 1724.7944,-408.5342 1725.7667,-401.602"/>
<text text-anchor="middle" x="1830.6077" y="-414.1245" font-family="Times,serif" font-size="14.00" fill="#00ff00">DcoEvent::GuiPlatformSelected []</text>
<text text-anchor="middle" x="1830.6077" y="-397.3245" font-family="Times,serif" font-size="14.00" fill="#00ff00">&lt; handlePlatformSelected(); &gt;</text>
</g>
<!-- ManualOverride&#45;&gt;ConsistView -->
<g id="edge56" class="edge">
<title>ManualOverride-&gt;ConsistView</title>
<path fill="none" stroke="#a52a2a" d="M1482.6815,-1164.2922C1537.7007,-1066.4053 1648.0398,-856.1458 1696.8871,-756.0795"/>
<polygon fill="#a52a2a" stroke="#a52a2a" points="1700.0585,-757.561 1701.2786,-747.0367 1693.7617,-754.5031 1700.0585,-757.561"/>
<text text-anchor="middle" x="1747.8037" y="-947.5858" font-family="Times,serif" font-size="14.00" fill="#a52a2a">DcoEvent::OnDoorReleaseMessage [!allDoorsClosed()]</text>
<text text-anchor="middle" x="1747.8037" y="-930.7858" font-family="Times,serif" font-size="14.00" fill="#a52a2a">&lt;&gt;</text>
</g>
<!-- ManualOverride&#45;&gt;NoPlausibleLocations -->
<g id="edge57" class="edge">
<title>ManualOverride-&gt;NoPlausibleLocations</title>
<path fill="none" stroke="#bf3eff" d="M1490.8673,-1170.7858C1519.5894,-1138.3652 1558.586,-1094.3472 1590.6893,-1058.11"/>
<polygon fill="#bf3eff" stroke="#bf3eff" points="1593.4176,-1060.3085 1597.429,-1050.5025 1588.178,-1055.6666 1593.4176,-1060.3085"/>
<text text-anchor="middle" x="1403.7197" y="-1135.4479" font-family="Times,serif" font-size="14.00" fill="#bf3eff">DcoEvent::GuiButtonListAllLocationsClicked []</text>
<text text-anchor="middle" x="1403.7197" y="-1118.6479" font-family="Times,serif" font-size="14.00" fill="#bf3eff">&lt;}), true); &gt;</text>
</g>
<!-- ManualOverride&#45;&gt;ManualOverride -->
<g id="edge55" class="edge">
<title>ManualOverride-&gt;ManualOverride</title>
<path fill="none" stroke="#ff0000" d="M1511.2421,-1222.7936C1521.8705,-1221.9498 1529.2641,-1219.8405 1529.2641,-1216.4655 1529.2641,-1214.3034 1526.2298,-1212.6607 1521.2545,-1211.5374"/>
<polygon fill="#ff0000" stroke="#ff0000" points="1521.6305,-1208.056 1511.2421,-1210.1373 1520.6611,-1214.9885 1521.6305,-1208.056"/>
<text text-anchor="middle" x="1625.4784" y="-1220.6655" font-family="Times,serif" font-size="14.00" fill="#ff0000">DcoEvent::OnLocationMessage []</text>
<text text-anchor="middle" x="1625.4784" y="-1203.8655" font-family="Times,serif" font-size="14.00" fill="#ff0000">&lt;&gt;</text>
</g>
</g>
</svg>