<?xml version="1.0" encoding="UTF-8" standalone="no"?><!DOCTYPE svg PUBLIC "-//W3C//DTD SVG 1.1//EN" "http://www.w3.org/Graphics/SVG/1.1/DTD/svg11.dtd"><!-- Generated by graphviz version 2.40.1 (20161225.0304)
 --><!-- Title: G Pages: 1 --><svg xmlns="http://www.w3.org/2000/svg" xmlns:xlink="http://www.w3.org/1999/xlink" width="1702pt" height="1161pt" viewBox="0.00 0.00 1702.03 1160.64">
<g id="graph0" class="graph" transform="scale(1 1) rotate(0) translate(4 1156.6365)">
<title>G</title>
<polygon fill="#ffffff" stroke="transparent" points="-4,4 -4,-1156.6365 1698.0328,-1156.6365 1698.0328,4 -4,4"/>
<!-- Initial -->
<g id="node1" class="node">
<title>Initial</title>
<ellipse fill="none" stroke="#000000" cx="38.1012" cy="-417.3901" rx="34.1919" ry="34.1919"/>
<ellipse fill="none" stroke="#000000" cx="38.1012" cy="-417.3901" rx="38.2026" ry="38.2026"/>
<text text-anchor="middle" x="38.1012" y="-413.1901" font-family="Times,serif" font-size="14.00" fill="#000000">Initial</text>
</g>
<!-- Otcm -->
<g id="node2" class="node">
<title>Otcm</title>
<ellipse fill="#d3d3d3" stroke="#000000" cx="1074.9592" cy="-717.3901" rx="27.4951" ry="27.4951"/>
<text text-anchor="middle" x="1074.9592" y="-713.7901" font-family="Times,serif" font-size="12.00" fill="#0000ff">Otcm</text>
</g>
<!-- Initial&#45;&gt;Otcm -->
<g id="edge1" class="edge">
<title>Initial-&gt;Otcm</title>
<path fill="none" stroke="#ff0000" d="M40.1313,-455.5367C44.66,-524.1873 58.1846,-664.2243 94.2023,-694.3901 381.4528,-934.9698 899.2821,-779.0485 1039.2611,-730.4301"/>
<polygon fill="#ff0000" stroke="#ff0000" points="1040.7768,-733.6073 1049.0506,-726.9895 1038.4558,-727.0033 1040.7768,-733.6073"/>
<text text-anchor="middle" x="456.9206" y="-845.3901" font-family="Times,serif" font-size="14.00" fill="#ff0000">DcoEvent::GuiButtonOtcmClicked [_state.dualScreenShowOtcmMessage() == nullptr]/</text>
<text text-anchor="middle" x="456.9206" y="-828.5901" font-family="Times,serif" font-size="14.00" fill="#ff0000">setDistanceAlarm(true); _state.wantToShowOtcm(true); handleShowOtcm(true)</text>
</g>
<!-- Initial&#45;&gt;Otcm -->
<g id="edge4" class="edge">
<title>Initial-&gt;Otcm</title>
<path fill="none" stroke="#000000" d="M42.3103,-455.3645C49.4623,-512.1334 66.0209,-614.8826 94.2023,-637.3901 157.2071,-687.7096 748.227,-619.3467 819.6389,-656.7901 831.6372,-663.0811 826.0528,-674.3687 837.6389,-681.3901 900.0606,-719.2181 988.1558,-722.1356 1037.5751,-720.2053"/>
<polygon fill="#000000" stroke="#000000" points="1037.9829,-723.6898 1047.8035,-719.7139 1037.647,-716.6979 1037.9829,-723.6898"/>
<text text-anchor="middle" x="456.9206" y="-677.3901" font-family="Times,serif" font-size="14.00" fill="#000000">DcoEvent::GuiButtonOtcmClicked [_state.icmType() == IcmType::Otcm]/</text>
<text text-anchor="middle" x="456.9206" y="-660.5901" font-family="Times,serif" font-size="14.00" fill="#000000">setDistanceAlarm(true); startTimeoutToOtcmGuiButtonOtcmClickedThread();  handleShowOtcm(true)</text>
</g>
<!-- Initial&#45;&gt;Otcm -->
<g id="edge5" class="edge">
<title>Initial-&gt;Otcm</title>
<path fill="none" stroke="#ff0000" d="M45.934,-454.8883C55.7559,-497.8993 73.8012,-564.4287 94.2023,-579.3901 159.2267,-627.0763 757.495,-548.4064 819.6389,-599.7901 848.2606,-623.4559 810.5187,-656.0176 837.6389,-681.3901 892.0165,-732.2634 986.1077,-729.6566 1037.9784,-723.4424"/>
<polygon fill="#ff0000" stroke="#ff0000" points="1038.6091,-726.8899 1048.0711,-722.123 1037.7017,-719.9489 1038.6091,-726.8899"/>
<text text-anchor="middle" x="456.9206" y="-620.3901" font-family="Times,serif" font-size="14.00" fill="#ff0000">DcoEvent::ShowOtcmOnDoorClosed []/</text>
<text text-anchor="middle" x="456.9206" y="-603.5901" font-family="Times,serif" font-size="14.00" fill="#ff0000">handleShowOtcm(false)</text>
</g>
<!-- Initial&#45;&gt;Otcm -->
<g id="edge6" class="edge">
<title>Initial-&gt;Otcm</title>
<path fill="none" stroke="#00ff00" d="M48.1657,-454.4079C56.4991,-477.3523 70.8477,-505.0903 94.2023,-519.3901 162.977,-561.5 759.9087,-487.6097 819.6389,-541.7901 865.9744,-583.8203 793.8999,-636.6641 837.6389,-681.3901 889.8391,-734.7682 985.2079,-731.0664 1037.7578,-724.0346"/>
<polygon fill="#00ff00" stroke="#00ff00" points="1038.5872,-727.451 1047.981,-722.5515 1037.5821,-720.5236 1038.5872,-727.451"/>
<text text-anchor="middle" x="456.9206" y="-562.3901" font-family="Times,serif" font-size="14.00" fill="#00ff00">DcoEvent::ShowOtcmOnDoorReleased []/</text>
<text text-anchor="middle" x="456.9206" y="-545.5901" font-family="Times,serif" font-size="14.00" fill="#00ff00">handleShowOtcm(false)</text>
</g>
<!-- Initial&#45;&gt;Otcm -->
<g id="edge8" class="edge">
<title>Initial-&gt;Otcm</title>
<path fill="none" stroke="#0000ff" d="M67.242,-442.2881C75.4578,-447.9635 84.7479,-453.244 94.2023,-456.3901 132.4661,-469.1229 790.3512,-454.0687 819.6389,-481.7901 851.9833,-512.4046 807.1162,-648.9589 837.6389,-681.3901 889.0482,-736.0136 985.4907,-731.6207 1038.2225,-724.1981"/>
<polygon fill="#0000ff" stroke="#0000ff" points="1038.7983,-727.6509 1048.1598,-722.6898 1037.7478,-720.7301 1038.7983,-727.6509"/>
<text text-anchor="middle" x="456.9206" y="-502.3901" font-family="Times,serif" font-size="14.00" fill="#0000ff">DcoEvent::NoTrigger [_state.icmType() == IcmType::Otcm]/</text>
<text text-anchor="middle" x="456.9206" y="-485.5901" font-family="Times,serif" font-size="14.00" fill="#0000ff">handleShowOtcm(false)</text>
</g>
<!-- DualScreenOtcm -->
<g id="node3" class="node">
<title>DualScreenOtcm</title>
<ellipse fill="#d3d3d3" stroke="#000000" cx="1074.9592" cy="-303.3901" rx="62.9894" ry="62.9894"/>
<text text-anchor="middle" x="1074.9592" y="-299.7901" font-family="Times,serif" font-size="12.00" fill="#0000ff">DualScreenOtcm</text>
</g>
<!-- Initial&#45;&gt;DualScreenOtcm -->
<g id="edge2" class="edge">
<title>Initial-&gt;DualScreenOtcm</title>
<path fill="none" stroke="#bf3eff" d="M76.442,-417.9146C212.9344,-419.5323 674.7646,-422.8012 819.6389,-395.3901 885.8841,-382.8561 957.8437,-355.5899 1008.4322,-333.9771"/>
<polygon fill="#bf3eff" stroke="#bf3eff" points="1009.8276,-337.187 1017.6233,-330.0121 1007.0548,-330.7595 1009.8276,-337.187"/>
<text text-anchor="middle" x="456.9206" y="-439.3901" font-family="Times,serif" font-size="14.00" fill="#bf3eff">DcoEvent::GuiButtonOtcmClicked [_state.icmType() == IcmType::Asdo &amp;&amp; _state.dualScreenShowOtcmMessage() != nullptr]/</text>
<text text-anchor="middle" x="456.9206" y="-422.5901" font-family="Times,serif" font-size="14.00" fill="#bf3eff">setDistanceAlarm(true); _state.wantToShowOtcm(true); handleShowOtcm(true)</text>
</g>
<!-- Initial&#45;&gt;DualScreenOtcm -->
<g id="edge9" class="edge">
<title>Initial-&gt;DualScreenOtcm</title>
<path fill="none" stroke="#40e0d0" d="M59.6844,-385.6972C68.9276,-374.8013 80.7153,-363.8321 94.2023,-357.7901 130.9953,-341.3071 779.4562,-341.6716 819.6389,-338.3901 881.7201,-333.3202 951.7883,-323.4135 1002.7963,-315.4301"/>
<polygon fill="#40e0d0" stroke="#40e0d0" points="1003.4038,-318.8777 1012.7357,-313.8611 1002.3123,-311.9633 1003.4038,-318.8777"/>
<text text-anchor="middle" x="456.9206" y="-378.3901" font-family="Times,serif" font-size="14.00" fill="#40e0d0">DcoEvent::GuiButtonOtcmClicked [_state.icmType() == IcmType::Asdo &amp;&amp; _state.dualScreenShowOtcmMessage() != nullptr]/</text>
<text text-anchor="middle" x="456.9206" y="-361.5901" font-family="Times,serif" font-size="14.00" fill="#40e0d0">setDistanceAlarm(true);  handleShowOtcm(true); handleDualScreenOtcmShowCameras()</text>
</g>
<!-- Initial&#45;&gt;DualScreenOtcm -->
<g id="edge10" class="edge">
<title>Initial-&gt;DualScreenOtcm</title>
<path fill="none" stroke="#bf3eff" d="M45.1933,-379.8497C52.4877,-352.7464 66.815,-318.0054 94.2023,-300.7901 367.1698,-129.2063 497.2268,-299.1485 819.6389,-300.7901 880.9124,-301.102 950.4542,-301.8351 1001.4713,-302.4436"/>
<polygon fill="#bf3eff" stroke="#bf3eff" points="1001.7016,-305.9465 1011.743,-302.5674 1001.786,-298.9471 1001.7016,-305.9465"/>
<text text-anchor="middle" x="456.9206" y="-321.3901" font-family="Times,serif" font-size="14.00" fill="#bf3eff">DcoEvent::DualScreenOtcmEnable []/</text>
<text text-anchor="middle" x="456.9206" y="-304.5901" font-family="Times,serif" font-size="14.00" fill="#bf3eff">handleShowOtcm(false); handleDualScreenOtcmShowCameras()</text>
</g>
<!-- Asdo -->
<g id="node4" class="node">
<title>Asdo</title>
<ellipse fill="#d3d3d3" stroke="#000000" cx="1594.3115" cy="-188.3901" rx="26.2948" ry="26.2948"/>
<text text-anchor="middle" x="1594.3115" y="-184.7901" font-family="Times,serif" font-size="12.00" fill="#0000ff">Asdo</text>
</g>
<!-- Initial&#45;&gt;Asdo -->
<g id="edge3" class="edge">
<title>Initial-&gt;Asdo</title>
<path fill="none" stroke="#0000ff" d="M43.4968,-379.3264C51.697,-327.5194 69.0481,-238.9878 94.2023,-219.3901 212.8586,-126.9443 1338.5683,-176.0811 1557.5133,-186.5707"/>
<polygon fill="#0000ff" stroke="#0000ff" points="1557.6603,-190.0818 1567.8174,-187.0681 1557.9978,-183.09 1557.6603,-190.0818"/>
<text text-anchor="middle" x="1074.9592" y="-196.3901" font-family="Times,serif" font-size="14.00" fill="#0000ff">DcoEvent::GuiButtonAsdoClicked []/</text>
<text text-anchor="middle" x="1074.9592" y="-179.5901" font-family="Times,serif" font-size="14.00" fill="#0000ff">handleShowAsdo(_state.hsm().currentEventType()); checkForEvacForInactiveCab()</text>
</g>
<!-- Initial&#45;&gt;Asdo -->
<g id="edge7" class="edge">
<title>Initial-&gt;Asdo</title>
<path fill="none" stroke="#bf3eff" d="M40.8113,-379.3599C46.2856,-314.6266 61.0785,-187.3042 94.2023,-159.3901 197.7325,-72.143 1177.497,-113.9752 1312.2795,-126.7901 1419.3391,-136.9691 1446.2035,-143.9394 1549.9143,-172.3901 1553.255,-173.3065 1556.7033,-174.3567 1560.1325,-175.4714"/>
<polygon fill="#bf3eff" stroke="#bf3eff" points="1559.0464,-178.799 1569.641,-178.7265 1561.3136,-172.1763 1559.0464,-178.799"/>
<text text-anchor="middle" x="1074.9592" y="-148.3901" font-family="Times,serif" font-size="14.00" fill="#bf3eff">DcoEvent::NoTrigger [_state.icmType() == IcmType::Asdo]/</text>
<text text-anchor="middle" x="1074.9592" y="-131.5901" font-family="Times,serif" font-size="14.00" fill="#bf3eff">handleShowAsdo(_state.hsm().currentEventType()); checkForEvacForInactiveCab()</text>
</g>
<!-- Settings -->
<g id="node5" class="node">
<title>Settings</title>
<ellipse fill="#d3d3d3" stroke="#000000" cx="1074.9592" cy="-47.3901" rx="34.8341" ry="34.8341"/>
<text text-anchor="middle" x="1074.9592" y="-43.7901" font-family="Times,serif" font-size="12.00" fill="#0000ff">Settings</text>
</g>
<!-- Initial&#45;&gt;Settings -->
<g id="edge11" class="edge">
<title>Initial-&gt;Settings</title>
<path fill="none" stroke="#bf3eff" d="M41.5298,-379.3771C49.6441,-293.6117 71.0865,-90.9455 94.2023,-70.7901 235.3374,52.2704 857.5699,-18.8038 1030.3318,-41.3077"/>
<polygon fill="#bf3eff" stroke="#bf3eff" points="1029.9781,-44.7912 1040.3489,-42.624 1030.8902,-37.8509 1029.9781,-44.7912"/>
<text text-anchor="middle" x="456.9206" y="-92.3901" font-family="Times,serif" font-size="14.00" fill="#bf3eff">DcoEvent::GuiButtonSettingsClicked []/</text>
<text text-anchor="middle" x="456.9206" y="-75.5901" font-family="Times,serif" font-size="14.00" fill="#bf3eff">handleShowSettings()</text>
</g>
<!-- Otcm&#45;&gt;Otcm -->
<g id="edge13" class="edge">
<title>Otcm-&gt;Otcm</title>
<path fill="none" stroke="#ff0000" d="M1066.48,-743.4279C1066.001,-753.8711 1068.8274,-762.6365 1074.9592,-762.6365 1078.8874,-762.6365 1081.4591,-759.0392 1082.6742,-753.7079"/>
<polygon fill="#ff0000" stroke="#ff0000" points="1086.1873,-753.6599 1083.4384,-743.4279 1079.2066,-753.1409 1086.1873,-753.6599"/>
<text text-anchor="middle" x="1074.9592" y="-783.6365" font-family="Times,serif" font-size="14.00" fill="#ff0000">DcoEvent::OnDoorReleaseMessage []/</text>
<text text-anchor="middle" x="1074.9592" y="-766.8365" font-family="Times,serif" font-size="14.00" fill="#ff0000">updateGuiWithDoorRelease(); handleShowOtcm(false)</text>
</g>
<!-- Otcm&#45;&gt;Otcm -->
<g id="edge14" class="edge">
<title>Otcm-&gt;Otcm</title>
<path fill="none" stroke="#0000ff" d="M1061.2803,-741.3809C1053.9591,-766.0701 1058.5188,-796.2365 1074.9592,-796.2365 1089.2161,-796.2365 1094.5386,-773.5509 1090.9265,-751.4244"/>
<polygon fill="#0000ff" stroke="#0000ff" points="1094.2723,-750.3535 1088.6382,-741.3809 1087.4472,-751.9086 1094.2723,-750.3535"/>
<text text-anchor="middle" x="1074.9592" y="-817.2365" font-family="Times,serif" font-size="14.00" fill="#0000ff">DcoEvent::OnCameraMapMessage []/</text>
<text text-anchor="middle" x="1074.9592" y="-800.4365" font-family="Times,serif" font-size="14.00" fill="#0000ff">handleShowOtcm(false)</text>
</g>
<!-- Otcm&#45;&gt;Otcm -->
<g id="edge15" class="edge">
<title>Otcm-&gt;Otcm</title>
<path fill="none" stroke="#ff0000" d="M1058.6273,-739.3794C1042.1886,-775.0966 1047.6325,-829.8365 1074.9592,-829.8365 1099.9375,-829.8365 1106.6326,-784.1007 1095.0444,-748.9624"/>
<polygon fill="#ff0000" stroke="#ff0000" points="1098.197,-747.4143 1091.2912,-739.3794 1091.6791,-749.9672 1098.197,-747.4143"/>
<text text-anchor="middle" x="1074.9592" y="-850.8365" font-family="Times,serif" font-size="14.00" fill="#ff0000">DcoEvent::OnCameraSectionMapMessage []/</text>
<text text-anchor="middle" x="1074.9592" y="-834.0365" font-family="Times,serif" font-size="14.00" fill="#ff0000">updateGuiWithSectionsMap(); handleShowOtcm(false)</text>
</g>
<!-- Otcm&#45;&gt;Otcm -->
<g id="edge16" class="edge">
<title>Otcm-&gt;Otcm</title>
<path fill="none" stroke="#ff0000" d="M1056.9636,-738.0124C1030.57,-783.0156 1036.5686,-863.4365 1074.9592,-863.4365 1110.8754,-863.4365 1118.4406,-793.0483 1097.6546,-747.1246"/>
<polygon fill="#ff0000" stroke="#ff0000" points="1100.6494,-745.2956 1092.9548,-738.0124 1094.4281,-748.5043 1100.6494,-745.2956"/>
<text text-anchor="middle" x="1074.9592" y="-884.4365" font-family="Times,serif" font-size="14.00" fill="#ff0000">DcoEvent::OnLowSpeedMessage [_state.icmType() == IcmType::Otcm]/</text>
<text text-anchor="middle" x="1074.9592" y="-867.6365" font-family="Times,serif" font-size="14.00" fill="#ff0000">_state.markEventOnHighSpeedCamerasNotViewed(false)</text>
</g>
<!-- Otcm&#45;&gt;Otcm -->
<g id="edge17" class="edge">
<title>Otcm-&gt;Otcm</title>
<path fill="none" stroke="#0000ff" d="M1055.7998,-737.0443C1019.0293,-790.3757 1025.4158,-897.0365 1074.9592,-897.0365 1121.9868,-897.0365 1130.1292,-800.9334 1099.3865,-745.5606"/>
<polygon fill="#0000ff" stroke="#0000ff" points="1102.3558,-743.7076 1094.1186,-737.0443 1096.4026,-747.39 1102.3558,-743.7076"/>
<text text-anchor="middle" x="1074.9592" y="-918.0365" font-family="Times,serif" font-size="14.00" fill="#0000ff">DcoEvent::GuiButtonOtcmClicked [( _state.icmType() == IcmType::Otcm &amp;&amp; !_state.monitorFailureMode() )]/</text>
<text text-anchor="middle" x="1074.9592" y="-901.2365" font-family="Times,serif" font-size="14.00" fill="#0000ff">setDistanceAlarm(true); _state.wantToShowOtcm( true ); handleShowOtcm(true)</text>
</g>
<!-- Otcm&#45;&gt;Otcm -->
<g id="edge18" class="edge">
<title>Otcm-&gt;Otcm</title>
<path fill="none" stroke="#00ff00" d="M1055.0141,-736.2188C1007.5257,-797.2464 1014.1741,-930.6365 1074.9592,-930.6365 1133.1325,-930.6365 1141.7214,-808.4633 1100.726,-744.4701"/>
<polygon fill="#00ff00" stroke="#00ff00" points="1103.5292,-742.372 1094.9043,-736.2188 1097.8095,-746.4076 1103.5292,-742.372"/>
<text text-anchor="middle" x="1074.9592" y="-951.6365" font-family="Times,serif" font-size="14.00" fill="#00ff00">DcoEvent::GuiButtonOtcmClicked []/</text>
<text text-anchor="middle" x="1074.9592" y="-934.8365" font-family="Times,serif" font-size="14.00" fill="#00ff00">setDistanceAlarm(true); _state.wantToShowOtcm( false )</text>
</g>
<!-- Otcm&#45;&gt;Otcm -->
<g id="edge19" class="edge">
<title>Otcm-&gt;Otcm</title>
<path fill="none" stroke="#ffc0cb" d="M1054.286,-735.7333C996.0635,-804.1497 1002.9546,-964.2365 1074.9592,-964.2365 1144.2918,-964.2365 1153.2538,-815.8107 1101.8452,-743.7158"/>
<polygon fill="#ffc0cb" stroke="#ffc0cb" points="1104.5365,-741.4751 1095.6324,-735.7333 1099.0124,-745.7745 1104.5365,-741.4751"/>
<text text-anchor="middle" x="1074.9592" y="-985.2365" font-family="Times,serif" font-size="14.00" fill="#ffc0cb">DcoEvent::OnDistanceAlarmMessage []/</text>
<text text-anchor="middle" x="1074.9592" y="-968.4365" font-family="Times,serif" font-size="14.00" fill="#ffc0cb">handleDistanceAlarmMessage()</text>
</g>
<!-- Otcm&#45;&gt;Otcm -->
<g id="edge26" class="edge">
<title>Otcm-&gt;Otcm</title>
<path fill="none" stroke="#000000" d="M1053.957,-735.0598C984.6011,-810.4149 991.6018,-997.8365 1074.9592,-997.8365 1155.5489,-997.8365 1164.7683,-822.6543 1102.6173,-742.9256"/>
<polygon fill="#000000" stroke="#000000" points="1105.0928,-740.4327 1095.9614,-735.0598 1099.7492,-744.9544 1105.0928,-740.4327"/>
<text text-anchor="middle" x="1074.9592" y="-1018.8365" font-family="Times,serif" font-size="14.00" fill="#000000">DcoEvent::GuiOtcmStatusChangeEvent []/</text>
<text text-anchor="middle" x="1074.9592" y="-1002.0365" font-family="Times,serif" font-size="14.00" fill="#000000">handleGuiOtcmStatusChangeEvent()</text>
</g>
<!-- DualScreenOtcm&#45;&gt;DualScreenOtcm -->
<g id="edge21" class="edge">
<title>DualScreenOtcm-&gt;DualScreenOtcm</title>
<path fill="none" stroke="#bf3eff" d="M1064.2514,-365.534C1065.6432,-376.6325 1069.2125,-384.3847 1074.9592,-384.3847 1078.7305,-384.3847 1081.5641,-381.0461 1083.4598,-375.6141"/>
<polygon fill="#bf3eff" stroke="#bf3eff" points="1086.947,-376.0512 1085.667,-365.534 1080.109,-374.5539 1086.947,-376.0512"/>
<text text-anchor="middle" x="1074.9592" y="-405.3847" font-family="Times,serif" font-size="14.00" fill="#bf3eff">DcoEvent::OnLowSpeedMessage [!_state.lowSpeed()]/</text>
<text text-anchor="middle" x="1074.9592" y="-388.5847" font-family="Times,serif" font-size="14.00" fill="#bf3eff">_state.markEventOnHighSpeedCamerasNotViewed(false)</text>
</g>
<!-- DualScreenOtcm&#45;&gt;DualScreenOtcm -->
<g id="edge22" class="edge">
<title>DualScreenOtcm-&gt;DualScreenOtcm</title>
<path fill="none" stroke="#a52a2a" d="M1052.6591,-362.5163C1050.2264,-391.445 1057.6597,-417.9847 1074.9592,-417.9847 1090.2314,-417.9847 1097.8144,-397.3008 1097.7081,-372.5492"/>
<polygon fill="#a52a2a" stroke="#a52a2a" points="1101.2028,-372.3498 1097.2593,-362.5163 1094.2098,-372.6627 1101.2028,-372.3498"/>
<text text-anchor="middle" x="1074.9592" y="-438.9847" font-family="Times,serif" font-size="14.00" fill="#a52a2a">DcoEvent::OnDoorReleaseMessage []/</text>
<text text-anchor="middle" x="1074.9592" y="-422.1847" font-family="Times,serif" font-size="14.00" fill="#a52a2a">updateGuiWithDoorRelease(); markEvacAsCompleteIfPending()</text>
</g>
<!-- DualScreenOtcm&#45;&gt;DualScreenOtcm -->
<g id="edge23" class="edge">
<title>DualScreenOtcm-&gt;DualScreenOtcm</title>
<path fill="none" stroke="#0000ff" d="M1044.6854,-358.8862C1034.4753,-402.8632 1044.5666,-451.5847 1074.9592,-451.5847 1103.0961,-451.5847 1113.8333,-409.8269 1107.1709,-368.7345"/>
<polygon fill="#0000ff" stroke="#0000ff" points="1110.598,-368.0223 1105.2331,-358.8862 1103.7297,-369.3738 1110.598,-368.0223"/>
<text text-anchor="middle" x="1074.9592" y="-472.5847" font-family="Times,serif" font-size="14.00" fill="#0000ff">DcoEvent::GuiButtonOtcmClicked []/</text>
<text text-anchor="middle" x="1074.9592" y="-455.7847" font-family="Times,serif" font-size="14.00" fill="#0000ff">setDistanceAlarm(true); handleDualScreenOtcmShowCameras()</text>
</g>
<!-- DualScreenOtcm&#45;&gt;DualScreenOtcm -->
<g id="edge24" class="edge">
<title>DualScreenOtcm-&gt;DualScreenOtcm</title>
<path fill="none" stroke="#ffc0cb" d="M1039.1263,-355.3059C1018.6998,-412.1923 1030.6441,-485.1847 1074.9592,-485.1847 1116.7643,-485.1847 1129.7617,-420.2268 1113.9515,-365.111"/>
<polygon fill="#ffc0cb" stroke="#ffc0cb" points="1117.1904,-363.7506 1110.7921,-355.3059 1110.5278,-365.8975 1117.1904,-363.7506"/>
<text text-anchor="middle" x="1074.9592" y="-506.1847" font-family="Times,serif" font-size="14.00" fill="#ffc0cb">DcoEvent::DualScreenOtcmShowCameras []/</text>
<text text-anchor="middle" x="1074.9592" y="-489.3847" font-family="Times,serif" font-size="14.00" fill="#ffc0cb">handleDualScreenOtcmShowCameras()</text>
</g>
<!-- DualScreenOtcm&#45;&gt;DualScreenOtcm -->
<g id="edge25" class="edge">
<title>DualScreenOtcm-&gt;DualScreenOtcm</title>
<path fill="none" stroke="#0000ff" d="M1035.0939,-352.2847C1003.0184,-420.4419 1016.3069,-518.7847 1074.9592,-518.7847 1130.9768,-518.7847 1145.6145,-429.0789 1118.8725,-361.641"/>
<polygon fill="#0000ff" stroke="#0000ff" points="1122.0076,-360.0727 1114.8245,-352.2847 1115.5831,-362.8523 1122.0076,-360.0727"/>
<text text-anchor="middle" x="1074.9592" y="-539.7847" font-family="Times,serif" font-size="14.00" fill="#0000ff">DcoEvent::GuiImageClicked []/</text>
<text text-anchor="middle" x="1074.9592" y="-522.9847" font-family="Times,serif" font-size="14.00" fill="#0000ff">handleImageClickedInDualScreenOtcmMode()</text>
</g>
<!-- DualScreenOtcm&#45;&gt;DualScreenOtcm -->
<g id="edge27" class="edge">
<title>DualScreenOtcm-&gt;DualScreenOtcm</title>
<path fill="none" stroke="#000000" d="M1032.053,-349.8005C987.4306,-428.0628 1001.7326,-552.3847 1074.9592,-552.3847 1145.4684,-552.3847 1161.3452,-437.1186 1122.5897,-358.6949"/>
<polygon fill="#000000" stroke="#000000" points="1125.6474,-356.9902 1117.8654,-349.8005 1119.4653,-360.2738 1125.6474,-356.9902"/>
<text text-anchor="middle" x="1074.9592" y="-573.3847" font-family="Times,serif" font-size="14.00" fill="#000000">DcoEvent::GuiOtcmStatusChangeEvent []/</text>
<text text-anchor="middle" x="1074.9592" y="-556.5847" font-family="Times,serif" font-size="14.00" fill="#000000">handleGuiOtcmStatusChangeEvent()</text>
</g>
<!-- DualScreenOtcm&#45;&gt;Asdo -->
<g id="edge20" class="edge">
<title>DualScreenOtcm-&gt;Asdo</title>
<path fill="none" stroke="#000000" d="M1137.2665,-292.1173C1228.4639,-275.1721 1403.3788,-240.9794 1549.9143,-202.3901 1553.0405,-201.5668 1556.2737,-200.659 1559.5041,-199.7132"/>
<polygon fill="#000000" stroke="#000000" points="1560.5244,-203.0612 1569.0772,-196.8082 1558.4918,-196.3628 1560.5244,-203.0612"/>
<text text-anchor="middle" x="1440.0969" y="-271.3901" font-family="Times,serif" font-size="14.00" fill="#000000">DcoEvent::DualScreenOtcmDisable []/</text>
<text text-anchor="middle" x="1440.0969" y="-254.5901" font-family="Times,serif" font-size="14.00" fill="#000000">})</text>
</g>
<!-- Asdo&#45;&gt;Asdo -->
<g id="edge12" class="edge">
<title>Asdo-&gt;Asdo</title>
<path fill="none" stroke="#ffc0cb" d="M1571.7811,-202.4835C1558.5279,-216.8248 1566.0381,-232.7873 1594.3115,-232.7873 1617.0628,-232.7873 1626.3694,-222.4512 1622.2313,-210.9411"/>
<polygon fill="#ffc0cb" stroke="#ffc0cb" points="1625.1675,-209.036 1616.8419,-202.4835 1619.2642,-212.7977 1625.1675,-209.036"/>
<text text-anchor="middle" x="1594.3115" y="-236.9873" font-family="Times,serif" font-size="14.00" fill="#ffc0cb">DcoEvent::ExitEvacuationMode []/</text>
</g>
</g>
</svg>