<?xml version="1.0" encoding="UTF-8" standalone="no"?><!DOCTYPE svg PUBLIC "-//W3C//DTD SVG 1.1//EN" "http://www.w3.org/Graphics/SVG/1.1/DTD/svg11.dtd"><!-- Generated by graphviz version 2.40.1 (20161225.0304)
 --><!-- Title: G Pages: 1 --><svg xmlns="http://www.w3.org/2000/svg" xmlns:xlink="http://www.w3.org/1999/xlink" width="2402pt" height="1711pt" viewBox="0.00 0.00 2402.01 1711.13">
<g id="graph0" class="graph" transform="scale(1 1) rotate(0) translate(4 1707.1263)">
<title>G</title>
<polygon fill="#ffffff" stroke="transparent" points="-4,4 -4,-1707.1263 2398.014,-1707.1263 2398.014,4 -4,4"/>
<!-- Initial -->
<g id="node1" class="node">
<title>Initial</title>
<ellipse fill="none" stroke="#000000" cx="38.1012" cy="-711.1317" rx="34.1919" ry="34.1919"/>
<ellipse fill="none" stroke="#000000" cx="38.1012" cy="-711.1317" rx="38.2026" ry="38.2026"/>
<text text-anchor="middle" x="38.1012" y="-706.9317" font-family="Times,serif" font-size="14.00" fill="#000000">Initial</text>
</g>
<!-- DualScreenCctv -->
<g id="node2" class="node">
<title>DualScreenCctv</title>
<ellipse fill="#d3d3d3" stroke="#000000" cx="1229.116" cy="-1108.1317" rx="60.3865" ry="60.3865"/>
<text text-anchor="middle" x="1229.116" y="-1104.5317" font-family="Times,serif" font-size="12.00" fill="#0000ff">DualScreenCctv</text>
</g>
<!-- Initial&#45;&gt;DualScreenCctv -->
<g id="edge1" class="edge">
<title>Initial-&gt;DualScreenCctv</title>
<path fill="none" stroke="#0000ff" d="M39.5882,-749.3213C43.2913,-822.1017 55.6099,-976.4382 94.2023,-1010.1317 154.9978,-1063.2097 739.3344,-1038.4966 819.6389,-1046.5317 939.5149,-1058.5261 1077.9163,-1081.2142 1159.219,-1095.4554"/>
<polygon fill="#0000ff" stroke="#0000ff" points="1158.8764,-1098.9489 1169.3316,-1097.2349 1160.0895,-1092.0548 1158.8764,-1098.9489"/>
<text text-anchor="middle" x="456.9206" y="-1067.1317" font-family="Times,serif" font-size="14.00" fill="#0000ff">DcoEvent::NoTrigger [_state.icmType() == IcmType::Asdo &amp;&amp; _state.dualScreenEnableCctvAlarmMessage() != nullptr]/</text>
<text text-anchor="middle" x="456.9206" y="-1050.3317" font-family="Times,serif" font-size="14.00" fill="#0000ff">handleDualScreenCctvEnableAlarm()</text>
</g>
<!-- Initial&#45;&gt;DualScreenCctv -->
<g id="edge13" class="edge">
<title>Initial-&gt;DualScreenCctv</title>
<path fill="none" stroke="#bf3eff" d="M41.1466,-749.2354C48.7095,-839.1027 69.5287,-1058.391 94.2023,-1080.1317 252.1302,-1219.2866 936.5741,-1145.7269 1159.0039,-1117.5371"/>
<polygon fill="#bf3eff" stroke="#bf3eff" points="1159.4523,-1121.0083 1168.9287,-1116.2704 1158.566,-1114.0646 1159.4523,-1121.0083"/>
<text text-anchor="middle" x="456.9206" y="-1183.1317" font-family="Times,serif" font-size="14.00" fill="#bf3eff">DcoEvent::DualScreenCctvEnableAlarm []/</text>
<text text-anchor="middle" x="456.9206" y="-1166.3317" font-family="Times,serif" font-size="14.00" fill="#bf3eff">handleDualScreenCctvEnableAlarm()</text>
</g>
<!-- Asdo -->
<g id="node3" class="node">
<title>Asdo</title>
<ellipse fill="#d3d3d3" stroke="#000000" cx="2085.3917" cy="-1086.1317" rx="26.2948" ry="26.2948"/>
<text text-anchor="middle" x="2085.3917" y="-1082.5317" font-family="Times,serif" font-size="12.00" fill="#0000ff">Asdo</text>
</g>
<!-- Initial&#45;&gt;Asdo -->
<g id="edge2" class="edge">
<title>Initial-&gt;Asdo</title>
<path fill="none" stroke="#ffc0cb" d="M41.9515,-749.1416C48.7505,-807.8138 65.0002,-916.1926 94.2023,-940.1317 159.8425,-993.9417 1536.2036,-996.4451 1620.5931,-1005.5317 1781.7713,-1022.8863 1971.5791,-1061.5898 2049.3843,-1078.2527"/>
<polygon fill="#ffc0cb" stroke="#ffc0cb" points="2049.0923,-1081.77 2059.6049,-1080.4532 2050.5656,-1074.9268 2049.0923,-1081.77"/>
<text text-anchor="middle" x="1229.116" y="-1026.1317" font-family="Times,serif" font-size="14.00" fill="#ffc0cb">DcoEvent::NoTrigger [_state.icmType() == IcmType::Asdo &amp;&amp; _state.dualScreenEnableCctvAlarmMessage() == nullptr]/</text>
<text text-anchor="middle" x="1229.116" y="-1009.3317" font-family="Times,serif" font-size="14.00" fill="#ffc0cb">handleShowAsdo(_state.hsm().currentEventType())</text>
</g>
<!-- Initial&#45;&gt;Asdo -->
<g id="edge7" class="edge">
<title>Initial-&gt;Asdo</title>
<path fill="none" stroke="#bf3eff" d="M45.1106,-748.751C52.3942,-776.5557 66.7458,-812.808 94.2023,-832.1317 233.3194,-930.0411 1451.2367,-935.4626 1620.5931,-951.5317 1807.6257,-969.2779 1884.7734,-897.5112 2040.1453,-1003.1317 2049.3432,-1009.3843 2061.4843,-1032.2811 2070.874,-1052.4456"/>
<polygon fill="#bf3eff" stroke="#bf3eff" points="2067.7776,-1054.0915 2075.1055,-1061.7434 2074.1488,-1051.1918 2067.7776,-1054.0915"/>
<text text-anchor="middle" x="1229.116" y="-972.1317" font-family="Times,serif" font-size="14.00" fill="#bf3eff">DcoEvent::GuiButtonAsdoClicked []/</text>
<text text-anchor="middle" x="1229.116" y="-955.3317" font-family="Times,serif" font-size="14.00" fill="#bf3eff">handleShowAsdo(_state.hsm().currentEventType()); startTimeoutToOtcmGuiButtonOtcmClickedThread(); checkForEvacForInactiveCab()</text>
</g>
<!-- TcmsAlarm -->
<g id="node4" class="node">
<title>TcmsAlarm</title>
<ellipse fill="#d3d3d3" stroke="#000000" cx="1229.116" cy="-809.1317" rx="46.6509" ry="46.6509"/>
<text text-anchor="middle" x="1229.116" y="-805.5317" font-family="Times,serif" font-size="12.00" fill="#0000ff">TcmsAlarm</text>
</g>
<!-- Initial&#45;&gt;TcmsAlarm -->
<g id="edge3" class="edge">
<title>Initial-&gt;TcmsAlarm</title>
<path fill="none" stroke="#ffc0cb" d="M75.0345,-721.2957C81.3895,-722.7719 87.9581,-724.129 94.2023,-725.1317 503.8153,-790.9058 1005.0177,-805.2934 1171.9832,-808.3406"/>
<polygon fill="#ffc0cb" stroke="#ffc0cb" points="1171.967,-811.8408 1182.0272,-808.5175 1172.0904,-804.8419 1171.967,-811.8408"/>
<text text-anchor="middle" x="456.9206" y="-815.1317" font-family="Times,serif" font-size="14.00" fill="#ffc0cb">DcoEvent::NoTrigger [_state.icmType() == IcmType::Otcm &amp;&amp; _state.tcmsAlarm()]/</text>
<text text-anchor="middle" x="456.9206" y="-798.3317" font-family="Times,serif" font-size="14.00" fill="#ffc0cb">enableTcmsAlarmView()</text>
</g>
<!-- Otcm -->
<g id="node5" class="node">
<title>Otcm</title>
<ellipse fill="#d3d3d3" stroke="#000000" cx="2085.3917" cy="-578.1317" rx="27.4951" ry="27.4951"/>
<text text-anchor="middle" x="2085.3917" y="-574.5317" font-family="Times,serif" font-size="12.00" fill="#0000ff">Otcm</text>
</g>
<!-- Initial&#45;&gt;Otcm -->
<g id="edge4" class="edge">
<title>Initial-&gt;Otcm</title>
<path fill="none" stroke="#000000" d="M76.3781,-710.8789C252.7155,-709.6047 1004.4845,-702.9747 1620.5931,-679.1317 1807.2259,-671.9091 1880.7551,-752.4903 2040.1453,-655.1317 2055.4862,-645.7612 2066.2119,-629.0853 2073.3564,-613.6429"/>
<polygon fill="#000000" stroke="#000000" points="2076.6527,-614.8354 2077.3512,-604.2636 2070.2125,-612.0923 2076.6527,-614.8354"/>
<text text-anchor="middle" x="1229.116" y="-721.1317" font-family="Times,serif" font-size="14.00" fill="#000000">DcoEvent::NoTrigger [_state.icmType() == IcmType::Otcm &amp;&amp; !_state.tcmsAlarm()]/</text>
<text text-anchor="middle" x="1229.116" y="-704.3317" font-family="Times,serif" font-size="14.00" fill="#000000">handleShowOtcm(false)</text>
</g>
<!-- Initial&#45;&gt;Otcm -->
<g id="edge5" class="edge">
<title>Initial-&gt;Otcm</title>
<path fill="none" stroke="#00ff00" d="M75.0352,-700.9717C81.3901,-699.495 87.9584,-698.1367 94.2023,-697.1317 421.3302,-644.4736 506.8571,-660.7397 837.6389,-641.5317 1185.3307,-621.3417 1272.7379,-626.2773 1620.5931,-609.1317 1807.1391,-599.9369 1854.4077,-604.7655 2040.1453,-585.1317 2042.7045,-584.8611 2045.34,-584.5471 2047.9916,-584.2048"/>
<polygon fill="#00ff00" stroke="#00ff00" points="2048.754,-587.6323 2058.1711,-582.7775 2047.782,-580.7001 2048.754,-587.6323"/>
<text text-anchor="middle" x="1229.116" y="-662.1317" font-family="Times,serif" font-size="14.00" fill="#00ff00">DcoEvent::GuiButtonOtcmClicked [_state.dualScreenShowOtcmMessage() == nullptr]/</text>
<text text-anchor="middle" x="1229.116" y="-645.3317" font-family="Times,serif" font-size="14.00" fill="#00ff00">setDistanceAlarm(true); _state.wantToShowOtcm(true); handleShowOtcm(true)</text>
</g>
<!-- Initial&#45;&gt;Otcm -->
<g id="edge8" class="edge">
<title>Initial-&gt;Otcm</title>
<path fill="none" stroke="#ffc0cb" d="M55.7494,-677.1463C65.1355,-662.6139 78.0927,-646.9837 94.2023,-638.1317 391.7601,-474.6273 1281.081,-569.1213 1620.5931,-571.5317 1779.1751,-572.6575 1968.1686,-575.9438 2047.4457,-577.4104"/>
<polygon fill="#ffc0cb" stroke="#ffc0cb" points="2047.8258,-580.918 2057.8893,-577.6049 2047.9562,-573.9192 2047.8258,-580.918"/>
<text text-anchor="middle" x="1229.116" y="-592.1317" font-family="Times,serif" font-size="14.00" fill="#ffc0cb">DcoEvent::GuiButtonOtcmClicked [_state.icmType() == IcmType::Otcm]/</text>
<text text-anchor="middle" x="1229.116" y="-575.3317" font-family="Times,serif" font-size="14.00" fill="#ffc0cb">setDistanceAlarm(true); startTimeoutToOtcmGuiButtonOtcmClickedThread()</text>
</g>
<!-- Initial&#45;&gt;Otcm -->
<g id="edge10" class="edge">
<title>Initial-&gt;Otcm</title>
<path fill="none" stroke="#000000" d="M45.1185,-673.5882C54.4961,-627.872 72.4794,-554.6863 94.2023,-538.1317 229.1279,-435.3074 1451.418,-491.9801 1620.5931,-504.5317 1808.6082,-518.481 1855.1248,-530.9149 2040.1453,-567.1317 2042.9716,-567.6849 2045.8875,-568.2972 2048.8134,-568.9414"/>
<polygon fill="#000000" stroke="#000000" points="2048.1531,-572.3808 2058.6836,-571.2149 2049.7244,-565.5595 2048.1531,-572.3808"/>
<text text-anchor="middle" x="1229.116" y="-525.1317" font-family="Times,serif" font-size="14.00" fill="#000000">DcoEvent::ShowOtcmOnDoorClosed []/</text>
<text text-anchor="middle" x="1229.116" y="-508.3317" font-family="Times,serif" font-size="14.00" fill="#000000">handleShowOtcm(false)</text>
</g>
<!-- Initial&#45;&gt;Otcm -->
<g id="edge11" class="edge">
<title>Initial-&gt;Otcm</title>
<path fill="none" stroke="#a52a2a" d="M41.5737,-673.1309C47.9659,-612.5507 63.8096,-498.3302 94.2023,-473.1317 159.4986,-418.9946 1535.9983,-433.3545 1620.5931,-439.5317 1808.5594,-453.257 1883.8198,-395.8603 2040.1453,-501.1317 2054.9494,-511.1009 2065.5883,-527.6729 2072.8146,-542.8942"/>
<polygon fill="#a52a2a" stroke="#a52a2a" points="2069.6465,-544.3845 2076.8797,-552.1259 2076.0529,-541.5634 2069.6465,-544.3845"/>
<text text-anchor="middle" x="1229.116" y="-460.1317" font-family="Times,serif" font-size="14.00" fill="#a52a2a">DcoEvent::ShowOtcmOnDoorReleased []/</text>
<text text-anchor="middle" x="1229.116" y="-443.3317" font-family="Times,serif" font-size="14.00" fill="#a52a2a">handleShowOtcm(false)</text>
</g>
<!-- DualScreenOtcm -->
<g id="node6" class="node">
<title>DualScreenOtcm</title>
<ellipse fill="#d3d3d3" stroke="#000000" cx="1229.116" cy="-1334.1317" rx="62.9894" ry="62.9894"/>
<text text-anchor="middle" x="1229.116" y="-1330.5317" font-family="Times,serif" font-size="12.00" fill="#0000ff">DualScreenOtcm</text>
</g>
<!-- Initial&#45;&gt;DualScreenOtcm -->
<g id="edge6" class="edge">
<title>Initial-&gt;DualScreenOtcm</title>
<path fill="none" stroke="#bf3eff" d="M39.7715,-749.5009C44.902,-858.7068 62.0657,-1165.3497 94.2023,-1196.1317 210.9243,-1307.9335 668.3476,-1191.6582 819.6389,-1248.5317 829.0244,-1252.0598 828.4611,-1258.0939 837.6389,-1262.1317 942.2762,-1308.167 1075.1483,-1324.7717 1156.0725,-1330.7586"/>
<polygon fill="#bf3eff" stroke="#bf3eff" points="1155.9431,-1334.2581 1166.1645,-1331.47 1156.4354,-1327.2754 1155.9431,-1334.2581"/>
<text text-anchor="middle" x="456.9206" y="-1269.1317" font-family="Times,serif" font-size="14.00" fill="#bf3eff">DcoEvent::GuiButtonOtcmClicked [_state.icmType() == IcmType::Asdo &amp;&amp; _state.dualScreenShowOtcmMessage() != nullptr]/</text>
<text text-anchor="middle" x="456.9206" y="-1252.3317" font-family="Times,serif" font-size="14.00" fill="#bf3eff">setDistanceAlarm(true); _state.wantToShowOtcm(true); handleShowOtcm(true); handleDualScreenOtcmShowCameras()</text>
</g>
<!-- Initial&#45;&gt;DualScreenOtcm -->
<g id="edge12" class="edge">
<title>Initial-&gt;DualScreenOtcm</title>
<path fill="none" stroke="#0000ff" d="M39.0147,-749.2341C42.3166,-871.0837 55.5503,-1245.4445 94.2023,-1282.1317 393.683,-1566.388 962.2819,-1420.522 1159.6012,-1357.9076"/>
<polygon fill="#0000ff" stroke="#0000ff" points="1160.8178,-1361.1932 1169.274,-1354.8101 1158.683,-1354.5266 1160.8178,-1361.1932"/>
<text text-anchor="middle" x="456.9206" y="-1472.1317" font-family="Times,serif" font-size="14.00" fill="#0000ff">DcoEvent::DualScreenOtcmEnable []/</text>
<text text-anchor="middle" x="456.9206" y="-1455.3317" font-family="Times,serif" font-size="14.00" fill="#0000ff">handleShowOtcm(false); handleDualScreenOtcmShowCameras()</text>
</g>
<!-- Cctv -->
<g id="node7" class="node">
<title>Cctv</title>
<ellipse fill="#d3d3d3" stroke="#000000" cx="1229.116" cy="-146.1317" rx="24.8914" ry="24.8914"/>
<text text-anchor="middle" x="1229.116" y="-142.5317" font-family="Times,serif" font-size="12.00" fill="#0000ff">Cctv</text>
</g>
<!-- Initial&#45;&gt;Cctv -->
<g id="edge9" class="edge">
<title>Initial-&gt;Cctv</title>
<path fill="none" stroke="#ffa500" d="M40.2316,-673.0887C46.3335,-570.6577 65.3136,-294.8532 94.2023,-266.5317 254.6158,-109.2678 1021.2597,-136.1368 1194.3414,-144.329"/>
<polygon fill="#ffa500" stroke="#ffa500" points="1194.2637,-147.8293 1204.4213,-144.8172 1194.6024,-140.8375 1194.2637,-147.8293"/>
<text text-anchor="middle" x="456.9206" y="-288.1317" font-family="Times,serif" font-size="14.00" fill="#ffa500">DcoEvent::GuiButtonCctvClicked []/</text>
<text text-anchor="middle" x="456.9206" y="-271.3317" font-family="Times,serif" font-size="14.00" fill="#ffa500">handleShowCctv()</text>
</g>
<!-- Pis -->
<g id="node8" class="node">
<title>Pis</title>
<ellipse fill="#d3d3d3" stroke="#000000" cx="2085.3917" cy="-146.1317" rx="19.6813" ry="19.6813"/>
<text text-anchor="middle" x="2085.3917" y="-142.5317" font-family="Times,serif" font-size="12.00" fill="#0000ff">Pis</text>
</g>
<!-- Initial&#45;&gt;Pis -->
<g id="edge14" class="edge">
<title>Initial-&gt;Pis</title>
<path fill="none" stroke="#00ff00" d="M39.0344,-672.7438C42.3966,-549.975 55.7941,-172.7377 94.2023,-135.1317 385.5358,150.1171 1830.5776,-99.6488 2055.8446,-140.6563"/>
<polygon fill="#00ff00" stroke="#00ff00" points="2055.4537,-144.1428 2065.9204,-142.4998 2056.7136,-137.2571 2055.4537,-144.1428"/>
<text text-anchor="middle" x="1229.116" y="-92.1317" font-family="Times,serif" font-size="14.00" fill="#00ff00">DcoEvent::GuiButtonPisClicked []/</text>
<text text-anchor="middle" x="1229.116" y="-75.3317" font-family="Times,serif" font-size="14.00" fill="#00ff00">handleShowPis()</text>
</g>
<!-- Settings -->
<g id="node9" class="node">
<title>Settings</title>
<ellipse fill="#d3d3d3" stroke="#000000" cx="1229.116" cy="-360.1317" rx="34.8341" ry="34.8341"/>
<text text-anchor="middle" x="1229.116" y="-356.5317" font-family="Times,serif" font-size="12.00" fill="#0000ff">Settings</text>
</g>
<!-- Initial&#45;&gt;Settings -->
<g id="edge17" class="edge">
<title>Initial-&gt;Settings</title>
<path fill="none" stroke="#0000ff" d="M38.8041,-672.8599C41.1279,-594.6243 51.1325,-420.6191 94.2023,-383.5317 260.2815,-240.5206 994.476,-328.3499 1184.2295,-353.8519"/>
<polygon fill="#0000ff" stroke="#0000ff" points="1184.0211,-357.3556 1194.4004,-355.2295 1184.9607,-350.4189 1184.0211,-357.3556"/>
<text text-anchor="middle" x="456.9206" y="-404.1317" font-family="Times,serif" font-size="14.00" fill="#0000ff">DcoEvent::GuiButtonSettingsClicked []/</text>
<text text-anchor="middle" x="456.9206" y="-387.3317" font-family="Times,serif" font-size="14.00" fill="#0000ff">handleShowSettings()</text>
</g>
<!-- DualScreenCctv&#45;&gt;DualScreenCctv -->
<g id="edge37" class="edge">
<title>DualScreenCctv-&gt;DualScreenCctv</title>
<path fill="none" stroke="#bf3eff" d="M1177.796,-1140.7709C1161.6724,-1163.7842 1178.7791,-1186.5749 1229.116,-1186.5749 1272.7676,-1186.5749 1291.4295,-1169.4359 1285.1018,-1149.8756"/>
<polygon fill="#bf3eff" stroke="#bf3eff" points="1288.1115,-1148.0742 1280.4361,-1140.7709 1281.8819,-1151.2666 1288.1115,-1148.0742"/>
<text text-anchor="middle" x="1229.116" y="-1207.5749" font-family="Times,serif" font-size="14.00" fill="#bf3eff">DcoEvent::DualScreenCctvEnableAlarm []/</text>
<text text-anchor="middle" x="1229.116" y="-1190.7749" font-family="Times,serif" font-size="14.00" fill="#bf3eff">handleDualScreenCctvEnableAlarm()</text>
</g>
<!-- DualScreenCctv&#45;&gt;DualScreenCctv -->
<g id="edge39" class="edge">
<title>DualScreenCctv-&gt;DualScreenCctv</title>
<path fill="none" stroke="#ffa500" d="M1170.9726,-1125.3137C1080.0205,-1162.3708 1099.4017,-1220.1749 1229.116,-1220.1749 1354.2701,-1220.1749 1376.7124,-1166.3637 1296.443,-1129.2956"/>
<polygon fill="#ffa500" stroke="#ffa500" points="1297.8265,-1126.0807 1287.2595,-1125.3137 1295.0418,-1132.503 1297.8265,-1126.0807"/>
<text text-anchor="middle" x="1229.116" y="-1224.3749" font-family="Times,serif" font-size="14.00" fill="#ffa500">DcoEvent::OnLowSpeedMessage []/</text>
</g>
<!-- DualScreenCctv&#45;&gt;Asdo -->
<g id="edge38" class="edge">
<title>DualScreenCctv-&gt;Asdo</title>
<path fill="none" stroke="#000000" d="M1289.6688,-1106.5759C1455.8357,-1102.3066 1915.4273,-1090.4985 2048.7157,-1087.074"/>
<polygon fill="#000000" stroke="#000000" points="2048.9076,-1090.5703 2058.8143,-1086.8145 2048.7277,-1083.5726 2048.9076,-1090.5703"/>
<text text-anchor="middle" x="1839.3692" y="-1118.1317" font-family="Times,serif" font-size="14.00" fill="#000000">DcoEvent::OnTcmsAlarmCancelMessage []/</text>
<text text-anchor="middle" x="1839.3692" y="-1101.3317" font-family="Times,serif" font-size="14.00" fill="#000000">handleShowAsdo(_state.hsm().currentEventType()); clearTcmsAlarm()</text>
</g>
<!-- Asdo&#45;&gt;Asdo -->
<g id="edge18" class="edge">
<title>Asdo-&gt;Asdo</title>
<path fill="none" stroke="#00ff00" d="M2065.3078,-1103.4487C2057.7967,-1116.8553 2064.4913,-1130.5289 2085.3917,-1130.5289 2101.2303,-1130.5289 2108.9108,-1122.6764 2108.4333,-1113.0384"/>
<polygon fill="#00ff00" stroke="#00ff00" points="2111.7675,-1111.9731 2105.4757,-1103.4487 2105.0784,-1114.0361 2111.7675,-1111.9731"/>
<text text-anchor="middle" x="2085.3917" y="-1134.7289" font-family="Times,serif" font-size="14.00" fill="#00ff00">DcoEvent::ExitEvacuationMode []/</text>
</g>
<!-- Asdo&#45;&gt;Asdo -->
<g id="edge30" class="edge">
<title>Asdo-&gt;Asdo</title>
<path fill="none" stroke="#000000" d="M2061.3164,-1097.0157C2025.3559,-1118.7773 2033.381,-1148.5289 2085.3917,-1148.5289 2132.9328,-1148.5289 2143.7234,-1123.6711 2117.7636,-1102.7792"/>
<polygon fill="#000000" stroke="#000000" points="2119.6767,-1099.8465 2109.467,-1097.0157 2115.6829,-1105.5955 2119.6767,-1099.8465"/>
<text text-anchor="middle" x="2085.3917" y="-1152.7289" font-family="Times,serif" font-size="14.00" fill="#000000">DcoEvent::ExitEvacuationMode []/</text>
</g>
<!-- TcmsAlarm&#45;&gt;TcmsAlarm -->
<g id="edge41" class="edge">
<title>TcmsAlarm-&gt;TcmsAlarm</title>
<path fill="none" stroke="#00ff00" d="M1182.8157,-817.288C1078.6069,-840.0515 1094.0403,-873.9568 1229.116,-873.9568 1359.7068,-873.9568 1378.4684,-842.2657 1285.4008,-819.5907"/>
<polygon fill="#00ff00" stroke="#00ff00" points="1285.9472,-816.1249 1275.4164,-817.288 1284.374,-822.9458 1285.9472,-816.1249"/>
<text text-anchor="middle" x="1229.116" y="-878.1568" font-family="Times,serif" font-size="14.00" fill="#00ff00">DcoEvent::OnLowSpeedMessage []/</text>
</g>
<!-- TcmsAlarm&#45;&gt;Otcm -->
<g id="edge40" class="edge">
<title>TcmsAlarm-&gt;Otcm</title>
<path fill="none" stroke="#ffa500" d="M1275.0486,-820.0393C1409.9452,-849.1609 1809.8963,-914.2767 2040.1453,-725.1317 2057.1918,-711.1283 2071.0828,-653.9614 2078.7901,-615.1842"/>
<polygon fill="#ffa500" stroke="#ffa500" points="2082.2444,-615.7557 2080.7061,-605.2732 2075.3716,-614.4271 2082.2444,-615.7557"/>
<text text-anchor="middle" x="1839.3692" y="-873.1317" font-family="Times,serif" font-size="14.00" fill="#ffa500">DcoEvent::OnTcmsAlarmCancelMessage []/</text>
<text text-anchor="middle" x="1839.3692" y="-856.3317" font-family="Times,serif" font-size="14.00" fill="#ffa500">clearTcmsAlarm(); handleShowOtcm(false)</text>
</g>
<!-- Otcm&#45;&gt;Otcm -->
<g id="edge19" class="edge">
<title>Otcm-&gt;Otcm</title>
<path fill="none" stroke="#40e0d0" d="M2079.6388,-605.0732C2079.4501,-615.1135 2081.3678,-623.3781 2085.3917,-623.3781 2087.9067,-623.3781 2089.5989,-620.1497 2090.4683,-615.2772"/>
<polygon fill="#40e0d0" stroke="#40e0d0" points="2093.9755,-615.2829 2091.1447,-605.0732 2086.9908,-614.8198 2093.9755,-615.2829"/>
<text text-anchor="middle" x="2085.3917" y="-644.3781" font-family="Times,serif" font-size="14.00" fill="#40e0d0">DcoEvent::OnDoorReleaseMessage []/</text>
<text text-anchor="middle" x="2085.3917" y="-627.5781" font-family="Times,serif" font-size="14.00" fill="#40e0d0">updateGuiWithDoorRelease(); handleShowOtcm(false)</text>
</g>
<!-- Otcm&#45;&gt;Otcm -->
<g id="edge20" class="edge">
<title>Otcm-&gt;Otcm</title>
<path fill="none" stroke="#ffc0cb" d="M2075.8375,-603.7313C2071.3364,-628.1021 2074.5211,-656.9781 2085.3917,-656.9781 2094.7761,-656.9781 2098.4326,-635.4581 2096.3611,-613.8945"/>
<polygon fill="#ffc0cb" stroke="#ffc0cb" points="2099.7917,-613.153 2094.946,-603.7313 2092.8586,-614.1185 2099.7917,-613.153"/>
<text text-anchor="middle" x="2085.3917" y="-677.9781" font-family="Times,serif" font-size="14.00" fill="#ffc0cb">DcoEvent::OnCameraMapMessage []/</text>
<text text-anchor="middle" x="2085.3917" y="-661.1781" font-family="Times,serif" font-size="14.00" fill="#ffc0cb">handleShowOtcm(false)</text>
</g>
<!-- Otcm&#45;&gt;Otcm -->
<g id="edge21" class="edge">
<title>Otcm-&gt;Otcm</title>
<path fill="none" stroke="#bf3eff" d="M2073.5677,-602.7674C2063.4328,-638.4759 2067.3741,-690.5781 2085.3917,-690.5781 2101.7905,-690.5781 2106.5288,-647.4174 2099.6066,-612.7392"/>
<polygon fill="#bf3eff" stroke="#bf3eff" points="2102.9509,-611.6757 2097.2158,-602.7674 2096.1438,-613.3078 2102.9509,-611.6757"/>
<text text-anchor="middle" x="2085.3917" y="-711.5781" font-family="Times,serif" font-size="14.00" fill="#bf3eff">DcoEvent::OnCameraSectionMapMessage []/</text>
<text text-anchor="middle" x="2085.3917" y="-694.7781" font-family="Times,serif" font-size="14.00" fill="#bf3eff">updateGuiWithSectionsMap(); handleShowOtcm(false)</text>
</g>
<!-- Otcm&#45;&gt;Otcm -->
<g id="edge22" class="edge">
<title>Otcm-&gt;Otcm</title>
<path fill="none" stroke="#40e0d0" d="M2072.0263,-601.9347C2055.5919,-647.4373 2060.047,-724.1781 2085.3917,-724.1781 2109.0039,-724.1781 2114.4849,-657.5706 2101.8346,-611.6697"/>
<polygon fill="#40e0d0" stroke="#40e0d0" points="2105.1086,-610.4146 2098.7571,-601.9347 2098.4342,-612.5246 2105.1086,-610.4146"/>
<text text-anchor="middle" x="2085.3917" y="-745.1781" font-family="Times,serif" font-size="14.00" fill="#40e0d0">DcoEvent::OnLowSpeedMessage [_state.icmType() == IcmType::Otcm]/</text>
<text text-anchor="middle" x="2085.3917" y="-728.3781" font-family="Times,serif" font-size="14.00" fill="#40e0d0">_state.markEventOnHighSpeedCamerasNotViewed(false)</text>
</g>
<!-- Otcm&#45;&gt;Otcm -->
<g id="edge23" class="edge">
<title>Otcm-&gt;Otcm</title>
<path fill="none" stroke="#ffa500" d="M2070.8158,-601.4519C2047.8011,-655.8467 2052.6598,-757.7781 2085.3917,-757.7781 2116.2697,-757.7781 2122.3425,-667.0666 2103.6101,-611.1251"/>
<polygon fill="#ffa500" stroke="#ffa500" points="2106.7671,-609.577 2099.9677,-601.4519 2100.2162,-612.0438 2106.7671,-609.577"/>
<text text-anchor="middle" x="2085.3917" y="-778.7781" font-family="Times,serif" font-size="14.00" fill="#ffa500">DcoEvent::GuiButtonOtcmClicked [_state.icmType() == IcmType::Otcm &amp;&amp; !_state.monitorFailureMode()]/</text>
<text text-anchor="middle" x="2085.3917" y="-761.9781" font-family="Times,serif" font-size="14.00" fill="#ffa500">setDistanceAlarm(true); _state.wantToShowOtcm( true ); handleShowOtcm(true)</text>
</g>
<!-- Otcm&#45;&gt;Otcm -->
<g id="edge24" class="edge">
<title>Otcm-&gt;Otcm</title>
<path fill="none" stroke="#0000ff" d="M2070.0548,-600.6569C2040.0101,-663.2014 2045.1224,-791.3781 2085.3917,-791.3781 2123.7734,-791.3781 2130.2168,-674.9364 2104.7219,-609.8649"/>
<polygon fill="#0000ff" stroke="#0000ff" points="2107.9185,-608.4387 2100.7287,-600.6569 2101.4964,-611.2239 2107.9185,-608.4387"/>
<text text-anchor="middle" x="2085.3917" y="-812.3781" font-family="Times,serif" font-size="14.00" fill="#0000ff">DcoEvent::OnDistanceAlarmMessage []/</text>
<text text-anchor="middle" x="2085.3917" y="-795.5781" font-family="Times,serif" font-size="14.00" fill="#0000ff">handleDistanceAlarmMessage()</text>
</g>
<!-- Otcm&#45;&gt;Otcm -->
<g id="edge25" class="edge">
<title>Otcm-&gt;Otcm</title>
<path fill="none" stroke="#bf3eff" d="M2069.1755,-600.5667C2032.2698,-671.0545 2037.6752,-824.9781 2085.3917,-824.9781 2131.1512,-824.9781 2137.9991,-683.4221 2105.9355,-609.6447"/>
<polygon fill="#bf3eff" stroke="#bf3eff" points="2109.0705,-608.0873 2101.6079,-600.5667 2102.7518,-611.0996 2109.0705,-608.0873"/>
<text text-anchor="middle" x="2085.3917" y="-845.9781" font-family="Times,serif" font-size="14.00" fill="#bf3eff">DcoEvent::GuiButtonOtcmClicked []/</text>
<text text-anchor="middle" x="2085.3917" y="-829.1781" font-family="Times,serif" font-size="14.00" fill="#bf3eff">setDistanceAlarm(true); _state.wantToShowOtcm( false )</text>
</g>
<!-- Otcm&#45;&gt;Otcm -->
<g id="edge42" class="edge">
<title>Otcm-&gt;Otcm</title>
<path fill="none" stroke="#bf3eff" d="M2068.7003,-600.0072C2024.514,-677.8885 2030.0778,-858.5781 2085.3917,-858.5781 2138.653,-858.5781 2145.788,-691.0502 2106.7968,-609.0878"/>
<polygon fill="#bf3eff" stroke="#bf3eff" points="2109.7968,-607.2702 2102.0831,-600.0072 2103.5839,-610.4952 2109.7968,-607.2702"/>
<text text-anchor="middle" x="2085.3917" y="-879.5781" font-family="Times,serif" font-size="14.00" fill="#bf3eff">DcoEvent::GuiOtcmStatusChangeEvent []/</text>
<text text-anchor="middle" x="2085.3917" y="-862.7781" font-family="Times,serif" font-size="14.00" fill="#bf3eff">handleGuiOtcmStatusChangeEvent()</text>
</g>
<!-- DualScreenOtcm&#45;&gt;Asdo -->
<g id="edge31" class="edge">
<title>DualScreenOtcm-&gt;Asdo</title>
<path fill="none" stroke="#ff0000" d="M1292.2089,-1331.8846C1435.8378,-1324.1041 1793.7941,-1289.4339 2040.1453,-1135.1317 2048.5048,-1129.8957 2056.311,-1122.7186 2063.0065,-1115.4719"/>
<polygon fill="#ff0000" stroke="#ff0000" points="2065.8755,-1117.5073 2069.8096,-1107.6699 2060.5995,-1112.9068 2065.8755,-1117.5073"/>
<text text-anchor="middle" x="1839.3692" y="-1306.1317" font-family="Times,serif" font-size="14.00" fill="#ff0000">DcoEvent::DualScreenOtcmDisable []/</text>
<text text-anchor="middle" x="1839.3692" y="-1289.3317" font-family="Times,serif" font-size="14.00" fill="#ff0000">})</text>
</g>
<!-- DualScreenOtcm&#45;&gt;DualScreenOtcm -->
<g id="edge32" class="edge">
<title>DualScreenOtcm-&gt;DualScreenOtcm</title>
<path fill="none" stroke="#ffa500" d="M1210.84,-1394.5333C1212.8971,-1406.5543 1218.9891,-1415.1263 1229.116,-1415.1263 1236.2365,-1415.1263 1241.3622,-1410.8884 1244.4931,-1404.1935"/>
<polygon fill="#ffa500" stroke="#ffa500" points="1247.87,-1405.1173 1247.392,-1394.5333 1241.1654,-1403.1053 1247.87,-1405.1173"/>
<text text-anchor="middle" x="1229.116" y="-1436.1263" font-family="Times,serif" font-size="14.00" fill="#ffa500">DcoEvent::OnLowSpeedMessage []/</text>
<text text-anchor="middle" x="1229.116" y="-1419.3263" font-family="Times,serif" font-size="14.00" fill="#ffa500">_state.markEventOnHighSpeedCamerasNotViewed(false)</text>
</g>
<!-- DualScreenOtcm&#45;&gt;DualScreenOtcm -->
<g id="edge33" class="edge">
<title>DualScreenOtcm-&gt;DualScreenOtcm</title>
<path fill="none" stroke="#ff0000" d="M1193.0853,-1386.0898C1185.7321,-1417.6446 1197.7423,-1448.7263 1229.116,-1448.7263 1257.1808,-1448.7263 1269.7511,-1423.8552 1266.8272,-1396.0222"/>
<polygon fill="#ff0000" stroke="#ff0000" points="1270.2659,-1395.3658 1265.1467,-1386.0898 1263.364,-1396.5335 1270.2659,-1395.3658"/>
<text text-anchor="middle" x="1229.116" y="-1469.7263" font-family="Times,serif" font-size="14.00" fill="#ff0000">DcoEvent::OnDoorReleaseMessage []/</text>
<text text-anchor="middle" x="1229.116" y="-1452.9263" font-family="Times,serif" font-size="14.00" fill="#ff0000">updateGuiWithDoorRelease(); markEvacAsCompleteIfPending()</text>
</g>
<!-- DualScreenOtcm&#45;&gt;DualScreenOtcm -->
<g id="edge34" class="edge">
<title>DualScreenOtcm-&gt;DualScreenOtcm</title>
<path fill="none" stroke="#ff0000" d="M1183.6704,-1378.2005C1158.5671,-1424.6823 1173.7156,-1482.3263 1229.116,-1482.3263 1280.9457,-1482.3263 1297.545,-1431.8735 1278.914,-1387.3089"/>
<polygon fill="#ff0000" stroke="#ff0000" points="1282.0311,-1385.7143 1274.5616,-1378.2005 1275.7151,-1388.7324 1282.0311,-1385.7143"/>
<text text-anchor="middle" x="1229.116" y="-1503.3263" font-family="Times,serif" font-size="14.00" fill="#ff0000">DcoEvent::GuiButtonOtcmClicked []/</text>
<text text-anchor="middle" x="1229.116" y="-1486.5263" font-family="Times,serif" font-size="14.00" fill="#ff0000">setDistanceAlarm(true); handleDualScreenOtcmShowCameras()</text>
</g>
<!-- DualScreenOtcm&#45;&gt;DualScreenOtcm -->
<g id="edge35" class="edge">
<title>DualScreenOtcm-&gt;DualScreenOtcm</title>
<path fill="none" stroke="#ffa500" d="M1178.6965,-1372.2847C1131.8896,-1430.332 1148.6961,-1515.9263 1229.116,-1515.9263 1305.7662,-1515.9263 1324.6271,-1438.1684 1285.6984,-1380.6175"/>
<polygon fill="#ffa500" stroke="#ffa500" points="1288.2959,-1378.2435 1279.5355,-1372.2847 1282.6679,-1382.4059 1288.2959,-1378.2435"/>
<text text-anchor="middle" x="1229.116" y="-1536.9263" font-family="Times,serif" font-size="14.00" fill="#ffa500">DcoEvent::DualScreenOtcmShowCameras []/</text>
<text text-anchor="middle" x="1229.116" y="-1520.1263" font-family="Times,serif" font-size="14.00" fill="#ffa500">handleDualScreenOtcmShowCameras()</text>
</g>
<!-- DualScreenOtcm&#45;&gt;DualScreenOtcm -->
<g id="edge36" class="edge">
<title>DualScreenOtcm-&gt;DualScreenOtcm</title>
<path fill="none" stroke="#ffc0cb" d="M1175.8343,-1368.1116C1105.6181,-1435.7186 1123.3787,-1549.5263 1229.116,-1549.5263 1331.136,-1549.5263 1351.2564,-1443.5801 1289.4771,-1375.4064"/>
<polygon fill="#ffc0cb" stroke="#ffc0cb" points="1291.8737,-1372.8503 1282.3977,-1368.1116 1286.8504,-1377.7254 1291.8737,-1372.8503"/>
<text text-anchor="middle" x="1229.116" y="-1570.5263" font-family="Times,serif" font-size="14.00" fill="#ffc0cb">DcoEvent::GuiImageClicked []/</text>
<text text-anchor="middle" x="1229.116" y="-1553.7263" font-family="Times,serif" font-size="14.00" fill="#ffc0cb">handleImageClickedInDualScreenOtcmMode()</text>
</g>
<!-- DualScreenOtcm&#45;&gt;DualScreenOtcm -->
<g id="edge43" class="edge">
<title>DualScreenOtcm-&gt;DualScreenOtcm</title>
<path fill="none" stroke="#0000ff" d="M1174.1489,-1365.0183C1079.59,-1441.0096 1097.9124,-1583.1263 1229.116,-1583.1263 1356.6039,-1583.1263 1377.5137,-1448.9452 1291.8454,-1371.629"/>
<polygon fill="#0000ff" stroke="#0000ff" points="1293.9657,-1368.8375 1284.0831,-1365.0183 1289.427,-1374.1668 1293.9657,-1368.8375"/>
<text text-anchor="middle" x="1229.116" y="-1604.1263" font-family="Times,serif" font-size="14.00" fill="#0000ff">DcoEvent::GuiOtcmStatusChangeEvent []/</text>
<text text-anchor="middle" x="1229.116" y="-1587.3263" font-family="Times,serif" font-size="14.00" fill="#0000ff">handleGuiOtcmStatusChangeEvent()</text>
</g>
<!-- Cctv&#45;&gt;Cctv -->
<g id="edge26" class="edge">
<title>Cctv-&gt;Cctv</title>
<path fill="none" stroke="#000000" d="M1207.6707,-158.8067C1193.3738,-172.816 1200.5223,-188.8266 1229.116,-188.8266 1252.125,-188.8266 1261.2478,-178.4594 1256.4842,-167.1101"/>
<polygon fill="#000000" stroke="#000000" points="1259.2179,-164.9153 1250.5613,-158.8067 1253.5191,-168.9803 1259.2179,-164.9153"/>
<text text-anchor="middle" x="1229.116" y="-193.0266" font-family="Times,serif" font-size="14.00" fill="#000000">DcoEvent::GuiButtonSaloonClicked [(amIActiveCab() &amp;&amp; _state.lowSpeed()) || (!_state.lowSpeed() &amp;&amp; _state.tcmsAlarm()) || !amIActiveCab()]/</text>
</g>
<!-- Cctv&#45;&gt;Cctv -->
<g id="edge27" class="edge">
<title>Cctv-&gt;Cctv</title>
<path fill="none" stroke="#000000" d="M1205.4508,-153.9802C1153.9131,-175.2912 1161.8016,-206.8266 1229.116,-206.8266 1292.0918,-206.8266 1303.0551,-179.2253 1262.0059,-158.2171"/>
<polygon fill="#000000" stroke="#000000" points="1263.3294,-154.9735 1252.7812,-153.9802 1260.4077,-161.3346 1263.3294,-154.9735"/>
<text text-anchor="middle" x="1229.116" y="-211.0266" font-family="Times,serif" font-size="14.00" fill="#000000">DcoEvent::GuiButtonPantographClicked [(amIActiveCab() &amp;&amp; _state.lowSpeed()) || !amIActiveCab()]/</text>
</g>
<!-- Cctv&#45;&gt;Cctv -->
<g id="edge28" class="edge">
<title>Cctv-&gt;Cctv</title>
<path fill="none" stroke="#ff0000" d="M1204.9704,-152.5478C1115.4046,-180.0514 1123.4532,-224.8266 1229.116,-224.8266 1330.8578,-224.8266 1342.0956,-183.3129 1262.8295,-155.6779"/>
<polygon fill="#ff0000" stroke="#ff0000" points="1263.8542,-152.3307 1253.2616,-152.5478 1261.6777,-158.9837 1263.8542,-152.3307"/>
<text text-anchor="middle" x="1229.116" y="-229.0266" font-family="Times,serif" font-size="14.00" fill="#ff0000">DcoEvent::GuiButtonTdAndFfClicked [(amIActiveCab() &amp;&amp; _state.lowSpeed()) || !amIActiveCab()]/</text>
</g>
<!-- Cctv&#45;&gt;Cctv -->
<g id="edge29" class="edge">
<title>Cctv-&gt;Cctv</title>
<path fill="none" stroke="#a52a2a" d="M1205.0673,-151.797C1077.0885,-185.3401 1085.1048,-242.8266 1229.116,-242.8266 1369.3301,-242.8266 1380.6262,-188.3317 1263.0044,-154.4988"/>
<polygon fill="#a52a2a" stroke="#a52a2a" points="1263.7346,-151.0698 1253.1648,-151.797 1261.8811,-157.82 1263.7346,-151.0698"/>
<text text-anchor="middle" x="1229.116" y="-247.0266" font-family="Times,serif" font-size="14.00" fill="#a52a2a">DcoEvent::GuiButtonCctvClicked []/</text>
</g>
<!-- Cctv&#45;&gt;Pis -->
<g id="edge15" class="edge">
<title>Cctv-&gt;Pis</title>
<path fill="none" stroke="#ffc0cb" d="M1253.8192,-146.1317C1376.64,-146.1317 1920.9803,-146.1317 2055.3359,-146.1317"/>
<polygon fill="#ffc0cb" stroke="#ffc0cb" points="2055.6767,-149.6318 2065.6766,-146.1317 2055.6766,-142.6318 2055.6767,-149.6318"/>
<text text-anchor="middle" x="1839.3692" y="-167.1317" font-family="Times,serif" font-size="14.00" fill="#ffc0cb">DcoEvent::OnPisActivationRequestMessage []/</text>
<text text-anchor="middle" x="1839.3692" y="-150.3317" font-family="Times,serif" font-size="14.00" fill="#ffc0cb">handleShowPis()</text>
</g>
<!-- Settings&#45;&gt;Pis -->
<g id="edge16" class="edge">
<title>Settings-&gt;Pis</title>
<path fill="none" stroke="#000000" d="M1264.0375,-358.4691C1332.8981,-354.6948 1490.7813,-343.579 1620.5931,-316.1317 1811.8436,-275.6937 1868.7554,-278.1394 2040.1453,-184.1317 2048.4198,-179.5931 2056.5906,-173.4089 2063.6636,-167.348"/>
<polygon fill="#000000" stroke="#000000" points="2066.3025,-169.6822 2071.4028,-160.3958 2061.6246,-164.4748 2066.3025,-169.6822"/>
<text text-anchor="middle" x="1839.3692" y="-333.1317" font-family="Times,serif" font-size="14.00" fill="#000000">DcoEvent::OnPisActivationRequestMessage []/</text>
<text text-anchor="middle" x="1839.3692" y="-316.3317" font-family="Times,serif" font-size="14.00" fill="#000000">handleShowPis()</text>
</g>
</g>
</svg>