<?xml version="1.0" encoding="UTF-8" standalone="no"?><!DOCTYPE svg PUBLIC "-//W3C//DTD SVG 1.1//EN" "http://www.w3.org/Graphics/SVG/1.1/DTD/svg11.dtd"><!-- Generated by graphviz version 2.40.1 (20161225.0304)
 --><!-- Title: G Pages: 1 --><svg xmlns="http://www.w3.org/2000/svg" xmlns:xlink="http://www.w3.org/1999/xlink" width="2989pt" height="411pt" viewBox="0.00 0.00 2989.22 410.54">
<g id="graph0" class="graph" transform="scale(1 1) rotate(0) translate(4 406.5355)">
<title>G</title>
<polygon fill="#ffffff" stroke="transparent" points="-4,4 -4,-406.5355 2985.2197,-406.5355 2985.2197,4 -4,4"/>
<!-- Initial -->
<g id="node1" class="node">
<title>Initial</title>
<ellipse fill="none" stroke="#000000" cx="38.1012" cy="-96.5395" rx="34.1919" ry="34.1919"/>
<ellipse fill="none" stroke="#000000" cx="38.1012" cy="-96.5395" rx="38.2026" ry="38.2026"/>
<text text-anchor="middle" x="38.1012" y="-92.3395" font-family="Times,serif" font-size="14.00" fill="#000000">Initial</text>
</g>
<!-- Evacuation -->
<g id="node2" class="node">
<title>Evacuation</title>
<ellipse fill="#d3d3d3" stroke="#000000" cx="1064.3892" cy="-96.5395" rx="44.8943" ry="44.8943"/>
<text text-anchor="middle" x="1064.3892" y="-92.9395" font-family="Times,serif" font-size="12.00" fill="#0000ff">Evacuation</text>
</g>
<!-- Initial&#45;&gt;Evacuation -->
<g id="edge1" class="edge">
<title>Initial-&gt;Evacuation</title>
<path fill="none" stroke="#ffa500" d="M76.4598,-96.5395C233.1667,-96.5395 825.1631,-96.5395 1009.3496,-96.5395"/>
<polygon fill="#ffa500" stroke="#ffa500" points="1009.609,-100.0396 1019.609,-96.5395 1009.609,-93.0396 1009.609,-100.0396"/>
<text text-anchor="middle" x="506.3854" y="-100.7395" font-family="Times,serif" font-size="14.00" fill="#ffa500">DcoEvent::NoTrigger [reEnterEvacuationMode()]&lt; setEvacModeLop(); exitCsde(); _state.makeSureSelectedStationMatchesLocationMessage(); &gt;</text>
</g>
<!-- Journey -->
<g id="node3" class="node">
<title>Journey</title>
<ellipse fill="#d3d3d3" stroke="#000000" cx="2749.9894" cy="-89.5395" rx="34.4647" ry="34.4647"/>
<text text-anchor="middle" x="2749.9894" y="-85.9395" font-family="Times,serif" font-size="12.00" fill="#0000ff">Journey</text>
</g>
<!-- Initial&#45;&gt;Journey -->
<g id="edge2" class="edge">
<title>Initial-&gt;Journey</title>
<path fill="none" stroke="#0000ff" d="M76.4881,-92.5247C223.3268,-77.3958 763.585,-23.8233 1210.2099,-6.7395 1574.7385,7.2041 2669.3236,-4.1238 2697.5071,-18.5395 2710.7946,-25.3359 2721.5666,-37.2332 2729.8144,-49.3681"/>
<polygon fill="#0000ff" stroke="#0000ff" points="2727.0767,-51.5881 2735.3739,-58.1766 2732.9963,-47.852 2727.0767,-51.5881"/>
<text text-anchor="middle" x="1433.9376" y="-11.7395" font-family="Times,serif" font-size="14.00" fill="#0000ff">DcoEvent::NoTrigger [!_state.lowSpeed()]&lt;&gt;</text>
</g>
<!-- LowSpeed -->
<g id="node4" class="node">
<title>LowSpeed</title>
<ellipse fill="#d3d3d3" stroke="#000000" cx="1718.6613" cy="-121.5395" rx="42.992" ry="42.992"/>
<text text-anchor="middle" x="1718.6613" y="-117.9395" font-family="Times,serif" font-size="12.00" fill="#0000ff">LowSpeed</text>
</g>
<!-- Initial&#45;&gt;LowSpeed -->
<g id="edge3" class="edge">
<title>Initial-&gt;LowSpeed</title>
<path fill="none" stroke="#000000" d="M73.2366,-111.5118C80.0824,-113.9065 87.2838,-116.0748 94.2023,-117.5395 580.2986,-220.4483 713.5566,-168.8664 1210.2099,-183.5395 1408.9922,-189.4123 1474.2464,-260.3926 1657.6653,-183.5395 1668.2212,-179.1165 1677.8735,-171.8775 1686.2318,-163.8777"/>
<polygon fill="#000000" stroke="#000000" points="1688.7541,-166.3044 1693.2341,-156.7034 1683.7446,-161.4151 1688.7541,-166.3044"/>
<text text-anchor="middle" x="1064.3892" y="-186.7395" font-family="Times,serif" font-size="14.00" fill="#000000">DcoEvent::NoTrigger [_state.lowSpeed()]	&lt;&gt;</text>
</g>
<!-- Evacuation&#45;&gt;LowSpeed -->
<g id="edge17" class="edge">
<title>Evacuation-&gt;LowSpeed</title>
<path fill="none" stroke="#bf3eff" d="M1104.3252,-76.0216C1132.9597,-62.5055 1172.9084,-46.0397 1210.2099,-38.9395 1259.0503,-29.6429 1613.2798,-16.5401 1657.6653,-38.9395 1672.8216,-46.5882 1685.1426,-59.9772 1694.6404,-73.7771"/>
<polygon fill="#bf3eff" stroke="#bf3eff" points="1691.8259,-75.8708 1700.1893,-82.3749 1697.7074,-72.0749 1691.8259,-75.8708"/>
<text text-anchor="middle" x="1433.9376" y="-60.5395" font-family="Times,serif" font-size="14.00" fill="#bf3eff">DcoEvent::GuiButtonEvacuationClicked []</text>
<text text-anchor="middle" x="1433.9376" y="-43.7395" font-family="Times,serif" font-size="14.00" fill="#bf3eff">&lt; _state.hsm().sendEvent(DcoEvent::GuiButtonAsdoClicked); return true; }); &gt;</text>
</g>
<!-- Evacuation&#45;&gt;LowSpeed -->
<g id="edge18" class="edge">
<title>Evacuation-&gt;LowSpeed</title>
<path fill="none" stroke="#ffc0cb" d="M1107.2947,-109.6583C1136.0906,-117.7608 1175.0475,-127.3787 1210.2099,-131.5395 1407.7011,-154.9086 1459.4523,-147.6798 1657.6653,-131.5395 1660.3793,-131.3185 1663.1546,-131.043 1665.9523,-130.7261"/>
<polygon fill="#ffc0cb" stroke="#ffc0cb" points="1666.6396,-134.1667 1676.1117,-129.4202 1665.7471,-127.2238 1666.6396,-134.1667"/>
<text text-anchor="middle" x="1433.9376" y="-166.5395" font-family="Times,serif" font-size="14.00" fill="#ffc0cb">DcoEvent::ManualOverrideCancelled []</text>
<text text-anchor="middle" x="1433.9376" y="-149.7395" font-family="Times,serif" font-size="14.00" fill="#ffc0cb">&lt;&gt;</text>
</g>
<!-- Journey&#45;&gt;Journey -->
<g id="edge12" class="edge">
<title>Journey-&gt;Journey</title>
<path fill="none" stroke="#ffc0cb" d="M2722.2311,-110.0101C2711.8499,-125.8581 2721.1027,-142.0218 2749.9894,-142.0218 2773.0085,-142.0218 2783.5599,-131.7577 2781.6435,-119.5685"/>
<polygon fill="#ffc0cb" stroke="#ffc0cb" points="2784.7633,-117.9495 2777.7478,-110.0101 2778.281,-120.5916 2784.7633,-117.9495"/>
<text text-anchor="middle" x="2749.9894" y="-163.0218" font-family="Times,serif" font-size="14.00" fill="#ffc0cb">DcoEvent::OnLowSpeedMessage []</text>
<text text-anchor="middle" x="2749.9894" y="-146.2218" font-family="Times,serif" font-size="14.00" fill="#ffc0cb">&lt;&gt;</text>
</g>
<!-- Journey&#45;&gt;Journey -->
<g id="edge13" class="edge">
<title>Journey-&gt;Journey</title>
<path fill="none" stroke="#40e0d0" d="M2717.7565,-102.2533C2666.8623,-130.2354 2677.6066,-175.6218 2749.9894,-175.6218 2817.9897,-175.6218 2831.5895,-135.5651 2790.789,-107.5135"/>
<polygon fill="#40e0d0" stroke="#40e0d0" points="2792.5756,-104.5034 2782.2224,-102.2533 2788.9127,-110.4686 2792.5756,-104.5034"/>
<text text-anchor="middle" x="2749.9894" y="-196.6218" font-family="Times,serif" font-size="14.00" fill="#40e0d0">DcoEvent::OnLocationMessage []</text>
<text text-anchor="middle" x="2749.9894" y="-179.8218" font-family="Times,serif" font-size="14.00" fill="#40e0d0">&lt; updateGuiWithLocationInJourneyPhase(); clearPlatformIfLocationChanged(); &gt;</text>
</g>
<!-- Journey&#45;&gt;Journey -->
<g id="edge14" class="edge">
<title>Journey-&gt;Journey</title>
<path fill="none" stroke="#000000" d="M2716.8863,-99.543C2623.6572,-135.4701 2634.6916,-209.2218 2749.9894,-209.2218 2861.2338,-209.2218 2875.4169,-140.5647 2792.5387,-103.4676"/>
<polygon fill="#000000" stroke="#000000" points="2793.6701,-100.1476 2783.0925,-99.543 2790.9843,-106.6119 2793.6701,-100.1476"/>
<text text-anchor="middle" x="2749.9894" y="-230.2218" font-family="Times,serif" font-size="14.00" fill="#000000">DcoEvent::GuiScreenTouched [!_state.lowSpeed()]</text>
<text text-anchor="middle" x="2749.9894" y="-213.4218" font-family="Times,serif" font-size="14.00" fill="#000000">&lt; screenTouched(); &gt;</text>
</g>
<!-- Journey&#45;&gt;LowSpeed -->
<g id="edge11" class="edge">
<title>Journey-&gt;LowSpeed</title>
<path fill="none" stroke="#0000ff" d="M2715.5569,-87.5895C2709.5423,-87.3187 2703.3438,-87.084 2697.5071,-86.9395 2595.555,-84.4156 1878.2653,-60.9192 1779.6573,-86.9395 1774.2864,-88.3567 1768.8925,-90.3678 1763.6545,-92.716"/>
<polygon fill="#0000ff" stroke="#0000ff" points="1761.8615,-89.6974 1754.4328,-97.2515 1764.9509,-95.9788 1761.8615,-89.6974"/>
<text text-anchor="middle" x="2238.5822" y="-108.5395" font-family="Times,serif" font-size="14.00" fill="#0000ff">DcoEvent::NoTrigger [_state.lowSpeed() &amp;&amp; isWithinGeofence() &amp;&amp; ( _state.icmType() == IcmType::Asdo || _state.monitorFailureMode() )]</text>
<text text-anchor="middle" x="2238.5822" y="-91.7395" font-family="Times,serif" font-size="14.00" fill="#0000ff">&lt; unblankScreenIfActiveCab(); &gt;</text>
</g>
<!-- Journey&#45;&gt;LowSpeed -->
<g id="edge15" class="edge">
<title>Journey-&gt;LowSpeed</title>
<path fill="none" stroke="#ffc0cb" d="M2729.2105,-61.6188C2720.5625,-52.2511 2709.6876,-42.9244 2697.5071,-37.9395 2650.3146,-18.6257 1825.1144,-14.8354 1779.6573,-37.9395 1764.2715,-45.7594 1751.8439,-59.4822 1742.3207,-73.5766"/>
<polygon fill="#ffc0cb" stroke="#ffc0cb" points="1739.1577,-72.0296 1736.7661,-82.351 1745.0722,-75.7738 1739.1577,-72.0296"/>
<text text-anchor="middle" x="2238.5822" y="-59.5395" font-family="Times,serif" font-size="14.00" fill="#ffc0cb">DcoEvent::GuiScreenTouched [_state.lowSpeed()]</text>
<text text-anchor="middle" x="2238.5822" y="-42.7395" font-family="Times,serif" font-size="14.00" fill="#ffc0cb">&lt; _state.unblankScreen(true); updateOthersWithLowSpeedMessageIfActiveCab(); &gt;</text>
</g>
<!-- Journey&#45;&gt;LowSpeed -->
<g id="edge16" class="edge">
<title>Journey-&gt;LowSpeed</title>
<path fill="none" stroke="#40e0d0" d="M2734.7718,-120.837C2726.022,-135.1151 2713.5534,-150.584 2697.5071,-158.5395 2332.0261,-339.7388 2172.5241,-268.381 1779.6573,-158.5395 1773.9262,-156.9371 1768.1978,-154.6329 1762.6729,-151.9467"/>
<polygon fill="#40e0d0" stroke="#40e0d0" points="1764.075,-148.7282 1753.6026,-147.122 1760.7876,-154.9083 1764.075,-148.7282"/>
<text text-anchor="middle" x="2238.5822" y="-289.5395" font-family="Times,serif" font-size="14.00" fill="#40e0d0">DcoEvent::OnScreenTouchedInTheActiveCab [_state.lowSpeed() &amp;&amp; (_state.icmType() == IcmType::Asdo || _state.monitorFailureMode()) &amp;&amp; !amIActiveCab()]</text>
<text text-anchor="middle" x="2238.5822" y="-272.7395" font-family="Times,serif" font-size="14.00" fill="#40e0d0">&lt;&gt;</text>
</g>
<!-- LowSpeed&#45;&gt;Evacuation -->
<g id="edge6" class="edge">
<title>LowSpeed-&gt;Evacuation</title>
<path fill="none" stroke="#bf3eff" d="M1679.2479,-103.8919C1672.1904,-101.4278 1664.8072,-99.2817 1657.6653,-97.9395 1462.2245,-61.2098 1224.1294,-79.0856 1118.8833,-90.0934"/>
<polygon fill="#bf3eff" stroke="#bf3eff" points="1118.3897,-86.6261 1108.8178,-91.1679 1119.1328,-93.5865 1118.3897,-86.6261"/>
<text text-anchor="middle" x="1433.9376" y="-118.5395" font-family="Times,serif" font-size="14.00" fill="#bf3eff">DcoEvent::GuiButtonEvacuationClicked [amIActiveCab()]</text>
<text text-anchor="middle" x="1433.9376" y="-101.7395" font-family="Times,serif" font-size="14.00" fill="#bf3eff">&lt; exitCsde(); _state.makeSureSelectedStationMatchesLocationMessage(); &gt;</text>
</g>
<!-- LowSpeed&#45;&gt;Journey -->
<g id="edge5" class="edge">
<title>LowSpeed-&gt;Journey</title>
<path fill="none" stroke="#ff0000" d="M1761.6395,-123.9186C1767.6876,-124.176 1773.8277,-124.3962 1779.6573,-124.5395 1881.6098,-127.0452 2599.9019,-154.1002 2697.5071,-124.5395 2703.2818,-122.7905 2709.0017,-120.1733 2714.4229,-117.1426"/>
<polygon fill="#ff0000" stroke="#ff0000" points="2716.5366,-119.9517 2723.2214,-111.732 2712.8698,-113.9889 2716.5366,-119.9517"/>
<text text-anchor="middle" x="2238.5822" y="-141.7395" font-family="Times,serif" font-size="14.00" fill="#ff0000">DcoEvent::OnLowSpeedMessage [!_state.lowSpeed()]&lt;&gt;</text>
</g>
<!-- LowSpeed&#45;&gt;LowSpeed -->
<g id="edge4" class="edge">
<title>LowSpeed-&gt;LowSpeed</title>
<path fill="none" stroke="#0000ff" d="M1708.1211,-163.4471C1708.769,-174.3296 1712.2824,-182.5355 1718.6613,-182.5355 1722.8474,-182.5355 1725.7995,-179.0015 1727.5175,-173.4962"/>
<polygon fill="#0000ff" stroke="#0000ff" points="1731.0006,-173.8881 1729.2014,-163.4471 1724.0968,-172.7312 1731.0006,-173.8881"/>
<text text-anchor="middle" x="1718.6613" y="-186.7355" font-family="Times,serif" font-size="14.00" fill="#0000ff">DcoEvent::OnDistanceAlarmMessage []&lt;&gt;];&lt;&gt;</text>
</g>
<!-- LowSpeed&#45;&gt;LowSpeed -->
<g id="edge7" class="edge">
<title>LowSpeed-&gt;LowSpeed</title>
<path fill="none" stroke="#00ff00" d="M1698.3805,-159.7426C1694.5948,-180.9793 1701.355,-200.5355 1718.6613,-200.5355 1733.1282,-200.5355 1740.2257,-186.8698 1739.9538,-169.9804"/>
<polygon fill="#00ff00" stroke="#00ff00" points="1743.4086,-169.3499 1738.942,-159.7426 1736.4425,-170.0383 1743.4086,-169.3499"/>
<text text-anchor="middle" x="1718.6613" y="-221.5355" font-family="Times,serif" font-size="14.00" fill="#00ff00">DcoEvent::OnLocationMessage []</text>
<text text-anchor="middle" x="1718.6613" y="-204.7355" font-family="Times,serif" font-size="14.00" fill="#00ff00">&lt; clearPlatformIfLocationChanged(); &gt;</text>
</g>
<!-- LowSpeed&#45;&gt;LowSpeed -->
<g id="edge8" class="edge">
<title>LowSpeed-&gt;LowSpeed</title>
<path fill="none" stroke="#000000" d="M1693.1587,-156.4793C1679.2921,-191.9921 1687.7929,-234.1355 1718.6613,-234.1355 1746.7563,-234.1355 1756.3225,-199.2246 1747.3597,-166.1763"/>
<polygon fill="#000000" stroke="#000000" points="1750.6181,-164.8812 1744.1639,-156.4793 1743.9699,-167.0724 1750.6181,-164.8812"/>
<text text-anchor="middle" x="1718.6613" y="-255.1355" font-family="Times,serif" font-size="14.00" fill="#000000">DcoEvent::OnCabActiveMessage [(amIActiveCab() &amp;&amp; (_state.icmType() == IcmType::Asdo || _state.monitorFailureMode()))]</text>
<text text-anchor="middle" x="1718.6613" y="-238.3355" font-family="Times,serif" font-size="14.00" fill="#000000">&lt;&gt;</text>
</g>
<!-- LowSpeed&#45;&gt;LowSpeed -->
<g id="edge9" class="edge">
<title>LowSpeed-&gt;LowSpeed</title>
<path fill="none" stroke="#40e0d0" d="M1690.1077,-153.7635C1664.4356,-200.9093 1673.9535,-267.7355 1718.6613,-267.7355 1760.5749,-267.7355 1771.5598,-209.0015 1751.616,-162.8128"/>
<polygon fill="#40e0d0" stroke="#40e0d0" points="1754.7361,-161.2255 1747.2149,-153.7635 1748.4411,-164.2871 1754.7361,-161.2255"/>
<text text-anchor="middle" x="1718.6613" y="-288.7355" font-family="Times,serif" font-size="14.00" fill="#40e0d0">DcoEvent::ManualOverrideCancelled []</text>
<text text-anchor="middle" x="1718.6613" y="-271.9355" font-family="Times,serif" font-size="14.00" fill="#40e0d0">&lt;&gt;</text>
</g>
<!-- LowSpeed&#45;&gt;LowSpeed -->
<g id="edge10" class="edge">
<title>LowSpeed-&gt;LowSpeed</title>
<path fill="none" stroke="#bf3eff" d="M1687.8014,-152.1346C1649.8551,-209.3098 1660.1418,-301.3355 1718.6613,-301.3355 1774.3234,-301.3355 1786.3479,-218.0773 1754.7347,-160.7444"/>
<polygon fill="#bf3eff" stroke="#bf3eff" points="1757.6949,-158.8756 1749.5212,-152.1346 1751.7071,-162.5015 1757.6949,-158.8756"/>
<text text-anchor="middle" x="1718.6613" y="-322.3355" font-family="Times,serif" font-size="14.00" fill="#bf3eff">DcoEvent::OnCabActiveMessage []</text>
<text text-anchor="middle" x="1718.6613" y="-305.5355" font-family="Times,serif" font-size="14.00" fill="#bf3eff">&lt; updateGuiWithActiveCab(); sendTmcAsdoEnabledEvent(); &gt;</text>
</g>
</g>
</svg>