<?xml version="1.0" encoding="UTF-8" standalone="no"?><!DOCTYPE svg PUBLIC "-//W3C//DTD SVG 1.1//EN" "http://www.w3.org/Graphics/SVG/1.1/DTD/svg11.dtd"><!-- Generated by graphviz version 2.40.1 (20161225.0304)
 --><!-- Title: G Pages: 1 --><svg xmlns="http://www.w3.org/2000/svg" xmlns:xlink="http://www.w3.org/1999/xlink" width="1582pt" height="396pt" viewBox="0.00 0.00 1581.71 396.04">
<g id="graph0" class="graph" transform="scale(1 1) rotate(0) translate(4 392.036)">
<title>G</title>
<polygon fill="#ffffff" stroke="transparent" points="-4,4 -4,-392.036 1577.7143,-392.036 1577.7143,4 -4,4"/>
<!-- Initial -->
<g id="node1" class="node">
<title>Initial</title>
<ellipse fill="none" stroke="#000000" cx="38.1012" cy="-81.9017" rx="34.1919" ry="34.1919"/>
<ellipse fill="none" stroke="#000000" cx="38.1012" cy="-81.9017" rx="38.2026" ry="38.2026"/>
<text text-anchor="middle" x="38.1012" y="-77.7017" font-family="Times,serif" font-size="14.00" fill="#000000">Initial</text>
</g>
<!-- ConsistViewOverride -->
<g id="node2" class="node">
<title>ConsistViewOverride</title>
<ellipse fill="#d3d3d3" stroke="#000000" cx="438.4274" cy="-81.9017" rx="77.0978" ry="77.0978"/>
<text text-anchor="middle" x="438.4274" y="-78.3017" font-family="Times,serif" font-size="12.00" fill="#0000ff">ConsistViewOverride</text>
</g>
<!-- Initial&#45;&gt;ConsistViewOverride -->
<g id="edge1" class="edge">
<title>Initial-&gt;ConsistViewOverride</title>
<path fill="none" stroke="#ffc0cb" d="M76.0652,-87.286C82.1201,-87.9578 88.3245,-88.5364 94.2023,-88.9017 204.734,-95.7708 232.7083,-92.9714 343.3785,-88.9017 345.9466,-88.8073 348.553,-88.6985 351.1834,-88.5775"/>
<polygon fill="#ffc0cb" stroke="#ffc0cb" points="351.611,-92.0604 361.4194,-88.0548 351.2539,-85.0695 351.611,-92.0604"/>
<text text-anchor="middle" x="218.7904" y="-113.9017" font-family="Times,serif" font-size="14.00" fill="#ffc0cb">DcoEvent::NoTrigger [!isLockedOnEntry()]</text>
<text text-anchor="middle" x="218.7904" y="-97.1017" font-family="Times,serif" font-size="14.00" fill="#ffc0cb">&lt;&gt;</text>
</g>
<!-- Initial&#45;&gt;ConsistViewOverride -->
<g id="edge2" class="edge">
<title>Initial-&gt;ConsistViewOverride</title>
<path fill="none" stroke="#000000" d="M70.1868,-60.8811C77.7683,-56.9283 86.032,-53.385 94.2023,-51.3017 201.5136,-23.9385 233.9737,-34.1249 343.3785,-51.3017 347.5208,-51.952 351.7289,-52.7527 355.9533,-53.6694"/>
<polygon fill="#000000" stroke="#000000" points="355.2794,-57.1065 365.8166,-56.0029 356.8911,-50.2945 355.2794,-57.1065"/>
<text text-anchor="middle" x="218.7904" y="-72.9017" font-family="Times,serif" font-size="14.00" fill="#000000">DcoEvent::NoTrigger [isLockedOnEntry()]</text>
<text text-anchor="middle" x="218.7904" y="-56.1017" font-family="Times,serif" font-size="14.00" fill="#000000">&lt; LockOnEntry(); &gt;</text>
</g>
<!-- ConsistViewOverride&#45;&gt;ConsistViewOverride -->
<g id="edge5" class="edge">
<title>ConsistViewOverride-&gt;ConsistViewOverride</title>
<path fill="none" stroke="#40e0d0" d="M398.0414,-147.6471C400.6959,-164.3849 414.1579,-176.9506 438.4274,-176.9506 457.7672,-176.9506 470.2441,-168.9713 475.8581,-157.2599"/>
<polygon fill="#40e0d0" stroke="#40e0d0" points="479.2202,-158.2341 478.8134,-147.6471 472.5293,-156.177 479.2202,-158.2341"/>
<text text-anchor="middle" x="438.4274" y="-197.9506" font-family="Times,serif" font-size="14.00" fill="#40e0d0">DcoEvent::GuiButtonAsdoOverrideClicked [!isLockedOnEntry()]</text>
<text text-anchor="middle" x="438.4274" y="-181.1506" font-family="Times,serif" font-size="14.00" fill="#40e0d0">&lt; _state.hsm().sendEvent(DcoEvent::ManualOverrideCancelled); return true; }); &gt;</text>
</g>
<!-- LopEditing -->
<g id="node3" class="node">
<title>LopEditing</title>
<ellipse fill="#d3d3d3" stroke="#000000" cx="906.622" cy="-138.9017" rx="45.2691" ry="45.2691"/>
<text text-anchor="middle" x="906.622" y="-135.3017" font-family="Times,serif" font-size="12.00" fill="#0000ff">LopEditing</text>
</g>
<!-- ConsistViewOverride&#45;&gt;LopEditing -->
<g id="edge3" class="edge">
<title>ConsistViewOverride-&gt;LopEditing</title>
<path fill="none" stroke="#0000ff" d="M509.9115,-110.741C517.7705,-113.1539 525.7302,-115.2842 533.4763,-116.9017 644.277,-140.0385 777.3138,-141.8603 850.8505,-140.6718"/>
<polygon fill="#0000ff" stroke="#0000ff" points="851.326,-144.1636 861.2587,-140.4768 851.1948,-137.1649 851.326,-144.1636"/>
<text text-anchor="middle" x="677.1324" y="-161.9017" font-family="Times,serif" font-size="14.00" fill="#0000ff">DcoEvent::GuiCarClicked []</text>
<text text-anchor="middle" x="677.1324" y="-145.1017" font-family="Times,serif" font-size="14.00" fill="#0000ff">&lt; carToggleSelection(); &gt;</text>
</g>
<!-- ConsistViewOverride&#45;&gt;LopEditing -->
<g id="edge4" class="edge">
<title>ConsistViewOverride-&gt;LopEditing</title>
<path fill="none" stroke="#ffa500" d="M514.4442,-68.0036C593.0809,-56.6837 718.4777,-47.2641 820.7885,-79.3017 836.2686,-84.1491 851.4061,-92.8811 864.5519,-102.1928"/>
<polygon fill="#ffa500" stroke="#ffa500" points="862.7662,-105.2254 872.8865,-108.3606 866.9302,-99.5986 862.7662,-105.2254"/>
<text text-anchor="middle" x="677.1324" y="-100.9017" font-family="Times,serif" font-size="14.00" fill="#ffa500">DcoEvent::GuiButtonSelectClearAllCarsClicked []</text>
<text text-anchor="middle" x="677.1324" y="-84.1017" font-family="Times,serif" font-size="14.00" fill="#ffa500">&lt; selectClearAllCars(); &gt;</text>
</g>
<!-- LopEditing&#45;&gt;LopEditing -->
<g id="edge8" class="edge">
<title>LopEditing-&gt;LopEditing</title>
<path fill="none" stroke="#000000" d="M896.0812,-182.8637C896.8184,-193.8353 900.3319,-202.036 906.622,-202.036 910.7498,-202.036 913.6819,-198.5043 915.4183,-192.9754"/>
<polygon fill="#000000" stroke="#000000" points="918.9117,-193.3131 917.1627,-182.8637 912.0136,-192.1231 918.9117,-193.3131"/>
<text text-anchor="middle" x="906.622" y="-223.036" font-family="Times,serif" font-size="14.00" fill="#000000">DcoEvent::GuiButtonAsdoOverrideClicked [!isLockedOnEntry()]</text>
<text text-anchor="middle" x="906.622" y="-206.236" font-family="Times,serif" font-size="14.00" fill="#000000">&lt; _state.hsm().sendEvent(DcoEvent::ManualOverrideCancelled); return true; }); &gt;</text>
</g>
<!-- LopEditing&#45;&gt;LopEditing -->
<g id="edge9" class="edge">
<title>LopEditing-&gt;LopEditing</title>
<path fill="none" stroke="#40e0d0" d="M886.8911,-179.6214C881.8429,-207.2095 888.4198,-235.636 906.622,-235.636 922.62,-235.636 929.6378,-213.6772 927.6754,-189.6286"/>
<polygon fill="#40e0d0" stroke="#40e0d0" points="931.1329,-189.0766 926.3528,-179.6214 924.1933,-189.9938 931.1329,-189.0766"/>
<text text-anchor="middle" x="906.622" y="-256.636" font-family="Times,serif" font-size="14.00" fill="#40e0d0">DcoEvent::OnLocationMessage []</text>
<text text-anchor="middle" x="906.622" y="-239.836" font-family="Times,serif" font-size="14.00" fill="#40e0d0">&lt;&gt;</text>
</g>
<!-- LopEditing&#45;&gt;LopEditing -->
<g id="edge10" class="edge">
<title>LopEditing-&gt;LopEditing</title>
<path fill="none" stroke="#40e0d0" d="M881.3716,-176.4601C866.9776,-217.3238 875.3944,-269.236 906.622,-269.236 935.4099,-269.236 944.812,-225.1183 934.8283,-186.2098"/>
<polygon fill="#40e0d0" stroke="#40e0d0" points="938.1233,-185.0145 931.8724,-176.4601 931.4244,-187.0455 938.1233,-185.0145"/>
<text text-anchor="middle" x="906.622" y="-290.236" font-family="Times,serif" font-size="14.00" fill="#40e0d0">DcoEvent::GuiButtonSelectClearAllCarsClicked []</text>
<text text-anchor="middle" x="906.622" y="-273.436" font-family="Times,serif" font-size="14.00" fill="#40e0d0">&lt; selectClearAllCars(); &gt;</text>
</g>
<!-- LopEditing&#45;&gt;LopEditing -->
<g id="edge11" class="edge">
<title>LopEditing-&gt;LopEditing</title>
<path fill="none" stroke="#000000" d="M877.7767,-173.8647C852.253,-225.8453 861.8681,-302.836 906.622,-302.836 948.7536,-302.836 959.7436,-234.6033 939.5919,-183.239"/>
<polygon fill="#000000" stroke="#000000" points="942.6983,-181.6083 935.4673,-173.8647 936.2911,-184.4275 942.6983,-181.6083"/>
<text text-anchor="middle" x="906.622" y="-323.836" font-family="Times,serif" font-size="14.00" fill="#000000">DcoEvent::GuiCarClicked []</text>
<text text-anchor="middle" x="906.622" y="-307.036" font-family="Times,serif" font-size="14.00" fill="#000000">&lt; carToggleSelection(); &gt;</text>
</g>
<!-- SendEditedLop -->
<g id="node4" class="node">
<title>SendEditedLop</title>
<ellipse fill="#d3d3d3" stroke="#000000" cx="1515.8126" cy="-57.9017" rx="57.8036" ry="57.8036"/>
<text text-anchor="middle" x="1515.8126" y="-54.3017" font-family="Times,serif" font-size="12.00" fill="#0000ff">SendEditedLop</text>
</g>
<!-- LopEditing&#45;&gt;SendEditedLop -->
<g id="edge7" class="edge">
<title>LopEditing-&gt;SendEditedLop</title>
<path fill="none" stroke="#bf3eff" d="M951.4172,-132.9456C1057.1194,-118.8911 1322.5922,-83.5929 1448.0819,-66.9074"/>
<polygon fill="#bf3eff" stroke="#bf3eff" points="1448.8754,-70.3328 1458.3268,-65.5452 1447.9527,-63.3938 1448.8754,-70.3328"/>
<text text-anchor="middle" x="1216.1832" y="-147.9017" font-family="Times,serif" font-size="14.00" fill="#bf3eff">DcoEvent::GuiButtonConfirmSelectionClicked []</text>
<text text-anchor="middle" x="1216.1832" y="-131.1017" font-family="Times,serif" font-size="14.00" fill="#bf3eff">&lt; _state.hsm().sendEvent(DcoEvent::GuiButtonAsdoClicked); return true; }); &gt;</text>
</g>
<!-- SendEditedLop&#45;&gt;ConsistViewOverride -->
<g id="edge6" class="edge">
<title>SendEditedLop-&gt;ConsistViewOverride</title>
<path fill="none" stroke="#0000ff" d="M1458.1146,-52.0766C1305.948,-37.9435 881.5213,-6.4859 533.4763,-55.9017 529.787,-56.4255 526.0374,-57.0484 522.2645,-57.7497"/>
<polygon fill="#0000ff" stroke="#0000ff" points="521.3563,-54.3625 512.2484,-59.7752 522.7438,-61.2236 521.3563,-54.3625"/>
<text text-anchor="middle" x="906.622" y="-52.9017" font-family="Times,serif" font-size="14.00" fill="#0000ff">DcoEvent::NoTrigger []</text>
<text text-anchor="middle" x="906.622" y="-36.1017" font-family="Times,serif" font-size="14.00" fill="#0000ff">&lt;&gt;</text>
</g>
</g>
</svg>