<?xml version="1.0" encoding="UTF-8" standalone="no"?><!DOCTYPE svg PUBLIC "-//W3C//DTD SVG 1.1//EN" "http://www.w3.org/Graphics/SVG/1.1/DTD/svg11.dtd"><!-- Generated by graphviz version 2.40.1 (20161225.0304)
 --><!-- Title: G Pages: 1 --><svg xmlns="http://www.w3.org/2000/svg" xmlns:xlink="http://www.w3.org/1999/xlink" width="2722pt" height="1403pt" viewBox="0.00 0.00 2722.27 1402.72">
<g id="graph0" class="graph" transform="scale(1 1) rotate(0) translate(4 1398.7175)">
<title>G</title>
<polygon fill="#ffffff" stroke="transparent" points="-4,4 -4,-1398.7175 2718.2683,-1398.7175 2718.2683,4 -4,4"/>
<!-- Initial -->
<g id="node1" class="node">
<title>Initial</title>
<ellipse fill="none" stroke="#000000" cx="1698.4459" cy="-152.9987" rx="34.1919" ry="34.1919"/>
<ellipse fill="none" stroke="#000000" cx="1698.4459" cy="-152.9987" rx="38.2026" ry="38.2026"/>
<text text-anchor="middle" x="1698.4459" y="-148.7987" font-family="Times,serif" font-size="14.00" fill="#000000">Initial</text>
</g>
<!-- CheckNvmLocation -->
<g id="node2" class="node">
<title>CheckNvmLocation</title>
<ellipse fill="#d3d3d3" stroke="#000000" cx="876.3854" cy="-1286.6357" rx="72.2398" ry="72.2398"/>
<text text-anchor="middle" x="876.3854" y="-1283.0357" font-family="Times,serif" font-size="12.00" fill="#0000ff">CheckNvmLocation</text>
</g>
<!-- LocationSelection -->
<g id="node3" class="node">
<title>LocationSelection</title>
<ellipse fill="#d3d3d3" stroke="#000000" cx="490.3496" cy="-551.106" rx="65.9676" ry="65.9676"/>
<text text-anchor="middle" x="490.3496" y="-547.506" font-family="Times,serif" font-size="12.00" fill="#0000ff">LocationSelection</text>
</g>
<!-- CheckNvmLocation&#45;&gt;LocationSelection -->
<g id="edge1" class="edge">
<title>CheckNvmLocation-&gt;LocationSelection</title>
<path fill="none" stroke="#ffc0cb" d="M842.6342,-1222.3283C770.0993,-1084.1245 599.9393,-759.9117 525.8572,-618.7602"/>
<polygon fill="#ffc0cb" stroke="#ffc0cb" points="528.865,-616.9595 521.1186,-609.7314 522.6668,-620.2126 528.865,-616.9595"/>
<text text-anchor="middle" x="844.1502" y="-941.5442" font-family="Times,serif" font-size="14.00" fill="#ffc0cb">DcoEvent::NoTrigger [_state.nvmLocation() == nullptr]/</text>
<text text-anchor="middle" x="844.1502" y="-924.7442" font-family="Times,serif" font-size="14.00" fill="#ffc0cb">clearNvmStateData()</text>
</g>
<!-- HandleNvmLocation -->
<g id="node4" class="node">
<title>HandleNvmLocation</title>
<ellipse fill="#d3d3d3" stroke="#000000" cx="629.6668" cy="-1116.3382" rx="74.8426" ry="74.8426"/>
<text text-anchor="middle" x="629.6668" y="-1112.7382" font-family="Times,serif" font-size="12.00" fill="#0000ff">HandleNvmLocation</text>
</g>
<!-- CheckNvmLocation&#45;&gt;HandleNvmLocation -->
<g id="edge2" class="edge">
<title>CheckNvmLocation-&gt;HandleNvmLocation</title>
<path fill="none" stroke="#00ff00" d="M816.6617,-1245.4114C781.3943,-1221.0681 736.5712,-1190.129 699.6508,-1164.6446"/>
<polygon fill="#00ff00" stroke="#00ff00" points="701.6351,-1161.7615 691.417,-1158.9613 697.6586,-1167.5224 701.6351,-1161.7615"/>
<text text-anchor="middle" x="530.1459" y="-1209.228" font-family="Times,serif" font-size="14.00" fill="#00ff00">DcoEvent::NoTrigger [_state.nvmLocation() &amp;&amp; !plausibleLocations().empty()]/</text>
</g>
<!-- CheckNvmPlatform -->
<g id="node5" class="node">
<title>CheckNvmPlatform</title>
<ellipse fill="#d3d3d3" stroke="#000000" cx="1173.985" cy="-1322.7708" rx="71.8934" ry="71.8934"/>
<text text-anchor="middle" x="1173.985" y="-1319.1708" font-family="Times,serif" font-size="12.00" fill="#0000ff">CheckNvmPlatform</text>
</g>
<!-- CheckNvmLocation&#45;&gt;CheckNvmPlatform -->
<g id="edge3" class="edge">
<title>CheckNvmLocation-&gt;CheckNvmPlatform</title>
<path fill="none" stroke="#0000ff" d="M948.4259,-1295.383C991.8461,-1300.6552 1047.2744,-1307.3854 1092.3182,-1312.8547"/>
<polygon fill="#0000ff" stroke="#0000ff" points="1092.0014,-1316.3419 1102.3504,-1314.0728 1092.8452,-1309.3929 1092.0014,-1316.3419"/>
<text text-anchor="middle" x="1246.0521" y="-1325.1189" font-family="Times,serif" font-size="14.00" fill="#0000ff">DcoEvent::NoTrigger [_state.nvmLocation() &amp;&amp; plausibleLocations().empty()]/</text>
<text text-anchor="middle" x="1246.0521" y="-1308.3189" font-family="Times,serif" font-size="14.00" fill="#0000ff">setNvmLocationAsCurrentLocation(); _state.nvmLocation().reset()</text>
</g>
<!-- ConfirmedLocations -->
<g id="node6" class="node">
<title>ConfirmedLocations</title>
<ellipse fill="#d3d3d3" stroke="#000000" cx="629.6668" cy="-285.6592" rx="73.7967" ry="73.7967"/>
<text text-anchor="middle" x="629.6668" y="-282.0592" font-family="Times,serif" font-size="12.00" fill="#0000ff">ConfirmedLocations</text>
</g>
<!-- LocationSelection&#45;&gt;ConfirmedLocations -->
<g id="edge16" class="edge">
<title>LocationSelection-&gt;ConfirmedLocations</title>
<path fill="none" stroke="#00ff00" d="M521.0958,-492.5239C541.551,-453.5498 568.5974,-402.0172 590.578,-360.1366"/>
<polygon fill="#00ff00" stroke="#00ff00" points="593.7819,-361.5634 595.3301,-351.0823 587.5837,-358.3103 593.7819,-361.5634"/>
<text text-anchor="middle" x="486.0581" y="-430.5303" font-family="Times,serif" font-size="14.00" fill="#00ff00">DcoEvent::NoTrigger []/</text>
</g>
<!-- MultiplePlausibleLocations -->
<g id="node7" class="node">
<title>MultiplePlausibleLocations</title>
<ellipse fill="#d3d3d3" stroke="#000000" cx="490.3496" cy="-850.8914" rx="94.8844" ry="94.8844"/>
<text text-anchor="middle" x="490.3496" y="-847.2914" font-family="Times,serif" font-size="12.00" fill="#0000ff">MultiplePlausibleLocations</text>
</g>
<!-- LocationSelection&#45;&gt;MultiplePlausibleLocations -->
<g id="edge14" class="edge">
<title>LocationSelection-&gt;MultiplePlausibleLocations</title>
<path fill="none" stroke="#00ff00" d="M490.3496,-617.2663C490.3496,-654.9393 490.3496,-703.0024 490.3496,-745.7279"/>
<polygon fill="#00ff00" stroke="#00ff00" points="486.8497,-745.8926 490.3496,-755.8926 493.8497,-745.8927 486.8497,-745.8926"/>
<text text-anchor="middle" x="264.4897" y="-685.6971" font-family="Times,serif" font-size="14.00" fill="#00ff00">DcoEvent::NoTrigger [!plausibleLocations().empty() &amp;&amp; !isWithinGeofence()]/</text>
</g>
<!-- ConsistView -->
<g id="node10" class="node">
<title>ConsistView</title>
<ellipse fill="#d3d3d3" stroke="#000000" cx="1724.8271" cy="-700.9987" rx="49.6291" ry="49.6291"/>
<text text-anchor="middle" x="1724.8271" y="-697.3987" font-family="Times,serif" font-size="12.00" fill="#0000ff">ConsistView</text>
</g>
<!-- LocationSelection&#45;&gt;ConsistView -->
<g id="edge12" class="edge">
<title>LocationSelection-&gt;ConsistView</title>
<path fill="none" stroke="#40e0d0" d="M554.2454,-568.639C768.0722,-608.9063 1456.7526,-692.3873 1664.7752,-703.0617"/>
<polygon fill="#40e0d0" stroke="#40e0d0" points="1664.741,-706.5639 1674.895,-703.5395 1665.0712,-699.5717 1664.741,-706.5639"/>
<text text-anchor="middle" x="917.088" y="-656.8503" font-family="Times,serif" font-size="14.00" fill="#40e0d0">DcoEvent::NoTrigger [_state.driverOverrideInUnknownLocation()]/</text>
<text text-anchor="middle" x="917.088" y="-640.0503" font-family="Times,serif" font-size="14.00" fill="#40e0d0">updateGuiWithStationInformation()</text>
</g>
<!-- LocationSelection&#45;&gt;ConsistView -->
<g id="edge13" class="edge">
<title>LocationSelection-&gt;ConsistView</title>
<path fill="none" stroke="#ffa500" d="M556.5846,-549.3737C773.8346,-561.4486 1462.4815,-645.2054 1667.0139,-684.6242"/>
<polygon fill="#ffa500" stroke="#ffa500" points="1666.4661,-688.0835 1676.954,-686.5822 1667.819,-681.2155 1666.4661,-688.0835"/>
<text text-anchor="middle" x="1042.0204" y="-621.199" font-family="Times,serif" font-size="14.00" fill="#ffa500">DcoEvent::NoTrigger []/</text>
</g>
<!-- NoPlausibleLocations -->
<g id="node12" class="node">
<title>NoPlausibleLocations</title>
<ellipse fill="#d3d3d3" stroke="#000000" cx="1653.0837" cy="-992.0729" rx="77.8162" ry="77.8162"/>
<text text-anchor="middle" x="1653.0837" y="-988.4729" font-family="Times,serif" font-size="12.00" fill="#0000ff">NoPlausibleLocations</text>
</g>
<!-- LocationSelection&#45;&gt;NoPlausibleLocations -->
<g id="edge15" class="edge">
<title>LocationSelection-&gt;NoPlausibleLocations</title>
<path fill="none" stroke="#ffc0cb" d="M550.892,-577.5361C744.1642,-655.6732 1346.6612,-884.326 1569.3017,-964.2355"/>
<polygon fill="#ffc0cb" stroke="#ffc0cb" points="1568.3822,-967.6238 1578.9767,-967.6998 1570.7419,-961.0335 1568.3822,-967.6238"/>
<text text-anchor="middle" x="908.8723" y="-775.0858" font-family="Times,serif" font-size="14.00" fill="#ffc0cb">DcoEvent::NoTrigger [plausibleLocations().empty()]/</text>
</g>
<!-- LocationSelection&#45;&gt;NoPlausibleLocations -->
<g id="edge17" class="edge">
<title>LocationSelection-&gt;NoPlausibleLocations</title>
<path fill="none" stroke="#0000ff" d="M553.1926,-571.4698C749.6734,-641.1466 1352.2738,-869.5269 1571.9124,-957.3517"/>
<polygon fill="#0000ff" stroke="#0000ff" points="1570.8671,-960.7033 1581.4515,-961.1744 1573.4711,-954.2056 1570.8671,-960.7033"/>
<text text-anchor="middle" x="992.7737" y="-751.8107" font-family="Times,serif" font-size="14.00" fill="#0000ff">DcoEvent::NoTrigger []/</text>
</g>
<!-- HandleNvmLocation&#45;&gt;CheckNvmPlatform -->
<g id="edge4" class="edge">
<title>HandleNvmLocation-&gt;CheckNvmPlatform</title>
<path fill="none" stroke="#0000ff" d="M699.9905,-1143.0084C802.2346,-1181.7845 991.242,-1253.4656 1097.0729,-1293.6019"/>
<polygon fill="#0000ff" stroke="#0000ff" points="1095.8319,-1296.8745 1106.4232,-1297.148 1098.3142,-1290.3294 1095.8319,-1296.8745"/>
<text text-anchor="middle" x="1087.2692" y="-1205.7052" font-family="Times,serif" font-size="14.00" fill="#0000ff">DcoEvent::NoTrigger [isNvmLocationInPlausibleLocations()]/</text>
<text text-anchor="middle" x="1087.2692" y="-1188.9052" font-family="Times,serif" font-size="14.00" fill="#0000ff">setNvmLocationAsCurrentLocation(); _state.nvmLocation().reset()</text>
</g>
<!-- HandleNvmLocation&#45;&gt;ConfirmedLocations -->
<g id="edge5" class="edge">
<title>HandleNvmLocation-&gt;ConfirmedLocations</title>
<path fill="none" stroke="#40e0d0" d="M629.6668,-1041.1559C629.6668,-886.2064 629.6668,-532.266 629.6668,-369.8917"/>
<polygon fill="#40e0d0" stroke="#40e0d0" points="633.1669,-369.4776 629.6668,-359.4776 626.1669,-369.4776 633.1669,-369.4776"/>
<text text-anchor="middle" x="400.1886" y="-726.5238" font-family="Times,serif" font-size="14.00" fill="#40e0d0">DcoEvent::NoTrigger [isWithinGeofence() &amp;&amp; plausibleLocations().size() == 1]/</text>
<text text-anchor="middle" x="400.1886" y="-709.7238" font-family="Times,serif" font-size="14.00" fill="#40e0d0">locationMoreReliableThanNvm()</text>
</g>
<!-- HandleNvmLocation&#45;&gt;MultiplePlausibleLocations -->
<g id="edge6" class="edge">
<title>HandleNvmLocation-&gt;MultiplePlausibleLocations</title>
<path fill="none" stroke="#ff0000" d="M594.691,-1049.6974C577.9692,-1017.8365 557.6673,-979.1546 539.4322,-944.4105"/>
<polygon fill="#ff0000" stroke="#ff0000" points="542.3435,-942.4261 534.5972,-935.1981 536.1453,-945.6792 542.3435,-942.4261"/>
<text text-anchor="middle" x="283.5308" y="-1018.0539" font-family="Times,serif" font-size="14.00" fill="#ff0000">DcoEvent::NoTrigger [!isNvmLocationInPlausibleLocations() &amp;&amp; plausibleLocations().size() &gt;= 1]/</text>
<text text-anchor="middle" x="283.5308" y="-1001.2539" font-family="Times,serif" font-size="14.00" fill="#ff0000">clearNvmStateData()</text>
</g>
<!-- CheckNvmPlatform&#45;&gt;ConfirmedLocations -->
<g id="edge8" class="edge">
<title>CheckNvmPlatform-&gt;ConfirmedLocations</title>
<path fill="none" stroke="#40e0d0" d="M1140.3462,-1258.6775C1044.5749,-1076.2005 770.7899,-554.5467 668.6836,-359.9995"/>
<polygon fill="#40e0d0" stroke="#40e0d0" points="671.699,-358.2133 663.9526,-350.9853 665.5008,-361.4664 671.699,-358.2133"/>
<text text-anchor="middle" x="1069.4804" y="-830.3385" font-family="Times,serif" font-size="14.00" fill="#40e0d0">DcoEvent::NoTrigger [_state.nvmStopBoard() == nullptr]/</text>
<text text-anchor="middle" x="1069.4804" y="-813.5385" font-family="Times,serif" font-size="14.00" fill="#40e0d0">clearNvmStateData()</text>
</g>
<!-- HandleNvmPlatform -->
<g id="node8" class="node">
<title>HandleNvmPlatform</title>
<ellipse fill="#d3d3d3" stroke="#000000" cx="1454.2892" cy="-185.5319" rx="74.4963" ry="74.4963"/>
<text text-anchor="middle" x="1454.2892" y="-181.9319" font-family="Times,serif" font-size="12.00" fill="#0000ff">HandleNvmPlatform</text>
</g>
<!-- CheckNvmPlatform&#45;&gt;HandleNvmPlatform -->
<g id="edge7" class="edge">
<title>CheckNvmPlatform-&gt;HandleNvmPlatform</title>
<path fill="none" stroke="#bf3eff" d="M1191.3077,-1252.4897C1240.5678,-1052.6339 1381.2802,-481.7412 1434.0087,-267.8133"/>
<polygon fill="#bf3eff" stroke="#bf3eff" points="1437.4574,-268.446 1436.4523,-257.8989 1430.6608,-266.7707 1437.4574,-268.446"/>
<text text-anchor="middle" x="1476.0067" y="-781.1515" font-family="Times,serif" font-size="14.00" fill="#bf3eff">DcoEvent::NoTrigger [_state.nvmStopBoard() != nullptr]/</text>
<text text-anchor="middle" x="1476.0067" y="-764.3515" font-family="Times,serif" font-size="14.00" fill="#bf3eff">setNvmStopBoardAsCurrentStopBoard()</text>
</g>
<!-- ApplyLockoutPattern -->
<g id="node9" class="node">
<title>ApplyLockoutPattern</title>
<ellipse fill="#d3d3d3" stroke="#000000" cx="1173.985" cy="-79.2265" rx="76.761" ry="76.761"/>
<text text-anchor="middle" x="1173.985" y="-75.6265" font-family="Times,serif" font-size="12.00" fill="#0000ff">ApplyLockoutPattern</text>
</g>
<!-- ConfirmedLocations&#45;&gt;ApplyLockoutPattern -->
<g id="edge30" class="edge">
<title>ConfirmedLocations-&gt;ApplyLockoutPattern</title>
<path fill="none" stroke="#ff0000" d="M698.6051,-259.5143C799.1289,-221.3907 985.5892,-150.6756 1092.6767,-110.0627"/>
<polygon fill="#ff0000" stroke="#ff0000" points="1094.0422,-113.2881 1102.1513,-106.4695 1091.56,-106.743 1094.0422,-113.2881"/>
<text text-anchor="middle" x="1069.0862" y="-188.9885" font-family="Times,serif" font-size="14.00" fill="#ff0000">DcoEvent::NoTrigger [_state.selectedStopBoard() != nullptr]/</text>
</g>
<!-- MultiplePlatformsDetectDirection -->
<g id="node13" class="node">
<title>MultiplePlatformsDetectDirection</title>
<ellipse fill="#d3d3d3" stroke="#000000" cx="876.3854" cy="-115.3617" rx="115.2235" ry="115.2235"/>
<text text-anchor="middle" x="876.3854" y="-111.7617" font-family="Times,serif" font-size="12.00" fill="#0000ff">MultiplePlatformsDetectDirection</text>
</g>
<!-- ConfirmedLocations&#45;&gt;MultiplePlatformsDetectDirection -->
<g id="edge31" class="edge">
<title>ConfirmedLocations-&gt;MultiplePlatformsDetectDirection</title>
<path fill="none" stroke="#a52a2a" d="M690.3369,-243.7816C715.2699,-226.5716 744.8562,-206.1497 773.015,-186.713"/>
<polygon fill="#a52a2a" stroke="#a52a2a" points="775.0647,-189.5511 781.3063,-180.99 771.0882,-183.7902 775.0647,-189.5511"/>
<text text-anchor="middle" x="578.5153" y="-202.6473" font-family="Times,serif" font-size="14.00" fill="#a52a2a">DcoEvent::NoTrigger [!availablePlatforms().empty()]/</text>
</g>
<!-- MultiplePlausibleLocations&#45;&gt;ConfirmedLocations -->
<g id="edge20" class="edge">
<title>MultiplePlausibleLocations-&gt;ConfirmedLocations</title>
<path fill="none" stroke="#ffc0cb" d="M518.0347,-760.0493C547.0067,-651.787 591.1264,-472.4598 614.4098,-368.0601"/>
<polygon fill="#ffc0cb" stroke="#ffc0cb" points="617.8492,-368.7162 616.5968,-358.1957 611.0152,-367.2011 617.8492,-368.7162"/>
<text text-anchor="middle" x="695.8748" y="-585.0547" font-family="Times,serif" font-size="14.00" fill="#ffc0cb">DcoEvent::OnTmcStationSelectedMessage []/</text>
<text text-anchor="middle" x="695.8748" y="-568.2547" font-family="Times,serif" font-size="14.00" fill="#ffc0cb">clearPlatformIfLocationChanged()</text>
</g>
<!-- MultiplePlausibleLocations&#45;&gt;ConfirmedLocations -->
<g id="edge21" class="edge">
<title>MultiplePlausibleLocations-&gt;ConfirmedLocations</title>
<path fill="none" stroke="#ffc0cb" d="M508.0521,-757.5888C532.7106,-648.2634 576.9821,-468.9735 604.8826,-365.7119"/>
<polygon fill="#ffc0cb" stroke="#ffc0cb" points="608.2875,-366.5288 607.5303,-355.961 601.5321,-364.6944 608.2875,-366.5288"/>
<text text-anchor="middle" x="927.6276" y="-549.0503" font-family="Times,serif" font-size="14.00" fill="#ffc0cb">DcoEvent::GuiButtonConfirmSelectionClicked [_state.selectedStation() != nullptr &amp;&amp; filterStopboards( *_state.selectedStation() )]/</text>
</g>
<!-- MultiplePlausibleLocations&#45;&gt;MultiplePlausibleLocations -->
<g id="edge22" class="edge">
<title>MultiplePlausibleLocations-&gt;MultiplePlausibleLocations</title>
<path fill="none" stroke="#a52a2a" d="M585.5165,-856.6114C596.3018,-855.5403 603.2918,-853.6336 603.2918,-850.8914 603.2918,-849.1347 600.4231,-847.7209 595.5256,-846.6499"/>
<polygon fill="#a52a2a" stroke="#a52a2a" points="595.9207,-843.1704 585.5165,-845.1714 594.8977,-850.0952 595.9207,-843.1704"/>
<text text-anchor="middle" x="697.572" y="-855.0914" font-family="Times,serif" font-size="14.00" fill="#a52a2a">DcoEvent::GuiStationSelected []/</text>
<text text-anchor="middle" x="697.572" y="-838.2914" font-family="Times,serif" font-size="14.00" fill="#a52a2a">handleStationSelected()</text>
</g>
<!-- MultiplePlausibleLocations&#45;&gt;ConsistView -->
<g id="edge23" class="edge">
<title>MultiplePlausibleLocations-&gt;ConsistView</title>
<path fill="none" stroke="#ff0000" d="M585.1156,-843.2122C828.1272,-817.8889 1468.2234,-739.934 1665.8546,-711.2872"/>
<polygon fill="#ff0000" stroke="#ff0000" points="1666.3696,-714.7492 1675.7575,-709.8382 1665.3561,-707.8229 1666.3696,-714.7492"/>
<text text-anchor="middle" x="1191.0933" y="-764.6497" font-family="Times,serif" font-size="14.00" fill="#ff0000">DcoEvent::GuiButtonAsdoOverrideClicked []/</text>
<text text-anchor="middle" x="1191.0933" y="-747.8497" font-family="Times,serif" font-size="14.00" fill="#ff0000">handleOverrideInUnknownLocation()</text>
</g>
<!-- MultiplePlausibleLocations&#45;&gt;ConsistView -->
<g id="edge24" class="edge">
<title>MultiplePlausibleLocations-&gt;ConsistView</title>
<path fill="none" stroke="#ffa500" d="M584.1996,-835.6684C826.21,-802.0994 1466.362,-724.6041 1665.106,-705.1222"/>
<polygon fill="#ffa500" stroke="#ffa500" points="1665.4512,-708.6052 1675.068,-704.1591 1664.7775,-701.6377 1665.4512,-708.6052"/>
<text text-anchor="middle" x="949.916" y="-757.7953" font-family="Times,serif" font-size="14.00" fill="#ffa500">DcoEvent::OnDriverOverrideInUnknownLocationMessage []/</text>
<text text-anchor="middle" x="949.916" y="-740.9953" font-family="Times,serif" font-size="14.00" fill="#ffa500">handleOverrideInUnknownLocation()</text>
</g>
<!-- MultiplePlausibleLocations&#45;&gt;NoPlausibleLocations -->
<g id="edge18" class="edge">
<title>MultiplePlausibleLocations-&gt;NoPlausibleLocations</title>
<path fill="none" stroke="#40e0d0" d="M584.5375,-866.2598C804.7799,-896.8673 1350.9342,-963.1403 1565.0058,-985.1836"/>
<polygon fill="#40e0d0" stroke="#40e0d0" points="1564.9493,-988.696 1575.2533,-986.2307 1565.6609,-981.7322 1564.9493,-988.696"/>
<text text-anchor="middle" x="1210.2867" y="-946.7217" font-family="Times,serif" font-size="14.00" fill="#40e0d0">DcoEvent::GuiButtonLocationClicked []/</text>
<text text-anchor="middle" x="1210.2867" y="-929.9217" font-family="Times,serif" font-size="14.00" fill="#40e0d0">}), true); _state.reactToLocationMessages(false)</text>
</g>
<!-- MultiplePlausibleLocations&#45;&gt;NoPlausibleLocations -->
<g id="edge19" class="edge">
<title>MultiplePlausibleLocations-&gt;NoPlausibleLocations</title>
<path fill="none" stroke="#ff0000" d="M585.4785,-858.5102C806.6459,-881.4995 1352.7901,-947.8556 1565.9164,-977.6835"/>
<polygon fill="#ff0000" stroke="#ff0000" points="1565.7265,-981.1912 1576.1168,-979.1193 1566.7023,-974.2595 1565.7265,-981.1912"/>
<text text-anchor="middle" x="936.6936" y="-905.4969" font-family="Times,serif" font-size="14.00" fill="#ff0000">DcoEvent::GuiButtonListAllLocationsClicked []/</text>
<text text-anchor="middle" x="936.6936" y="-888.6969" font-family="Times,serif" font-size="14.00" fill="#ff0000">}), true); _state.reactToLocationMessages(false)</text>
</g>
<!-- HandleNvmPlatform&#45;&gt;ApplyLockoutPattern -->
<g id="edge9" class="edge">
<title>HandleNvmPlatform-&gt;ApplyLockoutPattern</title>
<path fill="none" stroke="#bf3eff" d="M1384.2797,-158.9808C1345.1658,-144.1468 1296.2314,-125.5885 1255.411,-110.1073"/>
<polygon fill="#bf3eff" stroke="#bf3eff" points="1256.6194,-106.8224 1246.028,-106.5489 1254.1371,-113.3675 1256.6194,-106.8224"/>
<text text-anchor="middle" x="1173.546" y="-155.5441" font-family="Times,serif" font-size="14.00" fill="#bf3eff">DcoEvent::NoTrigger [_state.nvmLop() == nullptr]/</text>
<text text-anchor="middle" x="1173.546" y="-138.7441" font-family="Times,serif" font-size="14.00" fill="#bf3eff">clearNvmStateData()</text>
</g>
<!-- HandleNvmPlatform&#45;&gt;ConsistView -->
<g id="edge10" class="edge">
<title>HandleNvmPlatform-&gt;ConsistView</title>
<path fill="none" stroke="#000000" d="M1488.9655,-251.6021C1543.1937,-354.9252 1647.0076,-552.7261 1696.8147,-647.6256"/>
<polygon fill="#000000" stroke="#000000" points="1693.8605,-649.5284 1701.6069,-656.7564 1700.0587,-646.2753 1693.8605,-649.5284"/>
<text text-anchor="middle" x="1448.2078" y="-470.6139" font-family="Times,serif" font-size="14.00" fill="#000000">DcoEvent::NoTrigger [_state.nvmLop() != nullptr]/</text>
<text text-anchor="middle" x="1448.2078" y="-453.8139" font-family="Times,serif" font-size="14.00" fill="#000000">_state.nvmStopBoard().reset()</text>
</g>
<!-- ApplyLockoutPattern&#45;&gt;LocationSelection -->
<g id="edge40" class="edge">
<title>ApplyLockoutPattern-&gt;LocationSelection</title>
<path fill="none" stroke="#ff0000" d="M1110.8956,-122.774C980.709,-212.6353 683.6138,-417.7053 553.4327,-507.5629"/>
<polygon fill="#ff0000" stroke="#ff0000" points="551.3444,-504.7514 545.1028,-513.3126 555.3209,-510.5123 551.3444,-504.7514"/>
<text text-anchor="middle" x="998.755" y="-319.3684" font-family="Times,serif" font-size="14.00" fill="#ff0000">DcoEvent::EnforceStopboardSelectionDueToEmptyLop []/</text>
</g>
<!-- ApplyLockoutPattern&#45;&gt;ConsistView -->
<g id="edge39" class="edge">
<title>ApplyLockoutPattern-&gt;ConsistView</title>
<path fill="none" stroke="#ffc0cb" d="M1218.4286,-141.7739C1321.6531,-269.317 1575.7643,-555.7446 1679.6791,-661.2042"/>
<polygon fill="#ffc0cb" stroke="#ffc0cb" points="1677.3696,-663.8458 1686.8973,-668.4798 1682.339,-658.9157 1677.3696,-663.8458"/>
<text text-anchor="middle" x="1379.2751" y="-405.689" font-family="Times,serif" font-size="14.00" fill="#ffc0cb">DcoEvent::NoTrigger []/</text>
</g>
<!-- ConsistView&#45;&gt;LocationSelection -->
<g id="edge47" class="edge">
<title>ConsistView-&gt;LocationSelection</title>
<path fill="none" stroke="#000000" d="M1675.6345,-692.141C1485.4502,-664.0363 797.4563,-580.2992 566.5304,-556.8728"/>
<polygon fill="#000000" stroke="#000000" points="566.8375,-553.3861 556.5376,-555.8683 566.1374,-560.351 566.8375,-553.3861"/>
<text text-anchor="middle" x="1344.2159" y="-611.9069" font-family="Times,serif" font-size="14.00" fill="#000000">DcoEvent::OnLocationMessage [!_state.driverOverrideInUnknownLocation()]/</text>
<text text-anchor="middle" x="1344.2159" y="-595.1069" font-family="Times,serif" font-size="14.00" fill="#000000">clearPlatformIfLocationChanged()</text>
</g>
<!-- ConsistView&#45;&gt;LocationSelection -->
<g id="edge48" class="edge">
<title>ConsistView-&gt;LocationSelection</title>
<path fill="none" stroke="#a52a2a" d="M1674.9442,-697.8265C1483.5604,-679.6004 795.5188,-596.2565 565.6968,-563.738"/>
<polygon fill="#a52a2a" stroke="#a52a2a" points="566.1476,-560.267 555.754,-562.3218 565.1605,-567.1971 566.1476,-560.267"/>
<text text-anchor="middle" x="1341.1236" y="-651.7822" font-family="Times,serif" font-size="14.00" fill="#a52a2a">DcoEvent::OnLocationMessage [_state.driverOverrideInUnknownLocation()]/</text>
<text text-anchor="middle" x="1341.1236" y="-634.9822" font-family="Times,serif" font-size="14.00" fill="#a52a2a">clearPlatformIfLocationChanged()</text>
</g>
<!-- ConsistView&#45;&gt;ConfirmedLocations -->
<g id="edge50" class="edge">
<title>ConsistView-&gt;ConfirmedLocations</title>
<path fill="none" stroke="#ffa500" d="M1678.1197,-683.2849C1508.2362,-618.8566 921.9916,-396.5234 708.3492,-315.4995"/>
<polygon fill="#ffa500" stroke="#ffa500" points="709.3567,-312.1384 698.7654,-311.8648 706.8745,-318.6835 709.3567,-312.1384"/>
<text text-anchor="middle" x="1063.5818" y="-520.3922" font-family="Times,serif" font-size="14.00" fill="#ffa500">DcoEvent::OnTmcStationSelectedMessage []/</text>
<text text-anchor="middle" x="1063.5818" y="-503.5922" font-family="Times,serif" font-size="14.00" fill="#ffa500">clearPlatformIfLocationChanged()</text>
</g>
<!-- ConsistView&#45;&gt;ApplyLockoutPattern -->
<g id="edge43" class="edge">
<title>ConsistView-&gt;ApplyLockoutPattern</title>
<path fill="none" stroke="#00ff00" d="M1697.1282,-659.4397C1612.5775,-551.5677 1357.9266,-263.213 1237.7886,-138.2124"/>
<polygon fill="#00ff00" stroke="#00ff00" points="1240.2338,-135.7058 1230.7716,-130.9394 1235.1961,-140.5662 1240.2338,-135.7058"/>
<text text-anchor="middle" x="1213.4697" y="-386.226" font-family="Times,serif" font-size="14.00" fill="#00ff00">DcoEvent::OnDoorMapMessage [_state.nvmLop()==nullptr &amp;&amp; hasDoorMapChanged()]/</text>
<text text-anchor="middle" x="1213.4697" y="-369.426" font-family="Times,serif" font-size="14.00" fill="#00ff00">updateGuiWithDoorMap()</text>
</g>
<!-- ConsistView&#45;&gt;ApplyLockoutPattern -->
<g id="edge46" class="edge">
<title>ConsistView-&gt;ApplyLockoutPattern</title>
<path fill="none" stroke="#00ff00" d="M1691.6099,-663.5043C1600.6141,-560.7912 1346.4778,-273.9307 1231.6291,-144.2933"/>
<polygon fill="#00ff00" stroke="#00ff00" points="1234.1849,-141.9001 1224.9339,-136.7359 1228.9453,-146.542 1234.1849,-141.9001"/>
<text text-anchor="middle" x="1327.3063" y="-424.8988" font-family="Times,serif" font-size="14.00" fill="#00ff00">DcoEvent::OnTmcPlatformSelectedMessage []/</text>
<text text-anchor="middle" x="1327.3063" y="-408.0988" font-family="Times,serif" font-size="14.00" fill="#00ff00">clearNvmStateData()</text>
</g>
<!-- ConsistView&#45;&gt;ConsistView -->
<g id="edge41" class="edge">
<title>ConsistView-&gt;ConsistView</title>
<path fill="none" stroke="#ff0000" d="M1774.804,-703.1696C1785.18,-702.9411 1792.6413,-702.2174 1792.6413,-700.9987 1792.6413,-700.237 1789.7267,-699.6686 1785.0076,-699.2937"/>
<polygon fill="#ff0000" stroke="#ff0000" points="1784.9533,-695.7877 1774.804,-698.8278 1784.6339,-702.7804 1784.9533,-695.7877"/>
<text text-anchor="middle" x="1899.7525" y="-705.1987" font-family="Times,serif" font-size="14.00" fill="#ff0000">DcoEvent::OnConsistMapMessage []/</text>
<text text-anchor="middle" x="1899.7525" y="-688.3987" font-family="Times,serif" font-size="14.00" fill="#ff0000">updateGuiWithConsistMap()</text>
</g>
<!-- ConsistView&#45;&gt;ConsistView -->
<g id="edge42" class="edge">
<title>ConsistView-&gt;ConsistView</title>
<path fill="none" stroke="#ffc0cb" d="M1774.7089,-704.147C1950.4902,-709.8352 2519.5017,-708.7858 2519.5017,-700.9987 2519.5017,-693.3561 1971.4099,-692.2034 1784.8936,-697.5407"/>
<polygon fill="#ffc0cb" stroke="#ffc0cb" points="1784.5979,-694.048 1774.7089,-697.8504 1784.8107,-701.0448 1784.5979,-694.048"/>
<text text-anchor="middle" x="2616.885" y="-705.1987" font-family="Times,serif" font-size="14.00" fill="#ffc0cb">DcoEvent::OnTmcLopMessage []/</text>
<text text-anchor="middle" x="2616.885" y="-688.3987" font-family="Times,serif" font-size="14.00" fill="#ffc0cb">sendLockOutPattern()</text>
</g>
<!-- ConsistView&#45;&gt;ConsistView -->
<g id="edge44" class="edge">
<title>ConsistView-&gt;ConsistView</title>
<path fill="none" stroke="#ffc0cb" d="M1774.5756,-704.191C1856.7868,-706.68 2006.8637,-705.6159 2006.8637,-700.9987 2006.8637,-696.5664 1868.5641,-695.4083 1784.763,-697.5245"/>
<polygon fill="#ffc0cb" stroke="#ffc0cb" points="1784.4749,-694.031 1774.5756,-697.8063 1784.6686,-701.0283 1784.4749,-694.031"/>
<text text-anchor="middle" x="2263.1827" y="-705.1987" font-family="Times,serif" font-size="14.00" fill="#ffc0cb">DcoEvent::OnDoorMapMessage [_state.nvmLop()==nullptr &amp;&amp; !hasDoorMapChanged()]/</text>
<text text-anchor="middle" x="2263.1827" y="-688.3987" font-family="Times,serif" font-size="14.00" fill="#ffc0cb">updateGuiWithDoorMap()</text>
</g>
<!-- ApplyNvmLockoutPattern -->
<g id="node11" class="node">
<title>ApplyNvmLockoutPattern</title>
<ellipse fill="#d3d3d3" stroke="#000000" cx="1888.7847" cy="-700.9987" rx="91.9154" ry="91.9154"/>
<text text-anchor="middle" x="1888.7847" y="-697.3987" font-family="Times,serif" font-size="12.00" fill="#0000ff">ApplyNvmLockoutPattern</text>
</g>
<!-- ConsistView&#45;&gt;ApplyNvmLockoutPattern -->
<g id="edge45" class="edge">
<title>ConsistView-&gt;ApplyNvmLockoutPattern</title>
<path fill="none" stroke="#bf3eff" d="M1774.4647,-707.2583C1778.3821,-707.3833 1782.4167,-707.4844 1786.5239,-707.5616"/>
<polygon fill="#bf3eff" stroke="#bf3eff" points="1786.8094,-711.0658 1796.8568,-707.7043 1786.9062,-704.0665 1786.8094,-711.0658"/>
<text text-anchor="middle" x="1608.5995" y="-728.41" font-family="Times,serif" font-size="14.00" fill="#bf3eff">DcoEvent::OnDoorMapMessage [_state.nvmLop()!=nullptr]/</text>
<text text-anchor="middle" x="1608.5995" y="-711.61" font-family="Times,serif" font-size="14.00" fill="#bf3eff">updateGuiWithDoorMap()</text>
</g>
<!-- ConsistView&#45;&gt;NoPlausibleLocations -->
<g id="edge49" class="edge">
<title>ConsistView-&gt;NoPlausibleLocations</title>
<path fill="none" stroke="#bf3eff" d="M1698.6364,-743.4668C1682.8602,-785.4254 1665.629,-850.7945 1655.714,-903.9878"/>
<polygon fill="#bf3eff" stroke="#bf3eff" points="1652.2188,-903.6493 1653.8905,-914.1114 1659.1079,-904.8903 1652.2188,-903.6493"/>
<text text-anchor="middle" x="1560.7267" y="-844.7273" font-family="Times,serif" font-size="14.00" fill="#bf3eff">DcoEvent::GuiButtonLocationClicked []/</text>
<text text-anchor="middle" x="1560.7267" y="-827.9273" font-family="Times,serif" font-size="14.00" fill="#bf3eff">}), true)</text>
</g>
<!-- ConsistView&#45;&gt;NoPlausibleLocations -->
<g id="edge52" class="edge">
<title>ConsistView-&gt;NoPlausibleLocations</title>
<path fill="none" stroke="#bf3eff" d="M1728.2818,-750.7737C1722.7518,-795.2578 1707.6308,-861.147 1691.6898,-912.8551"/>
<polygon fill="#bf3eff" stroke="#bf3eff" points="1688.2655,-912.0769 1688.5998,-922.6665 1694.9422,-914.1797 1688.2655,-912.0769"/>
<text text-anchor="middle" x="1884.7226" y="-852.8144" font-family="Times,serif" font-size="14.00" fill="#bf3eff">DcoEvent::OnDriverOverrideInUnknownLocationMessage []/</text>
<text text-anchor="middle" x="1884.7226" y="-836.0144" font-family="Times,serif" font-size="14.00" fill="#bf3eff">handleOverrideInUnknownLocation()</text>
</g>
<!-- ManualOverride -->
<g id="node15" class="node">
<title>ManualOverride</title>
<ellipse fill="#d3d3d3" stroke="#000000" cx="1454.2892" cy="-1216.4655" rx="60.7313" ry="60.7313"/>
<text text-anchor="middle" x="1454.2892" y="-1212.8655" font-family="Times,serif" font-size="12.00" fill="#0000ff">ManualOverride</text>
</g>
<!-- ConsistView&#45;&gt;ManualOverride -->
<g id="edge51" class="edge">
<title>ConsistView-&gt;ManualOverride</title>
<path fill="none" stroke="#40e0d0" d="M1697.9881,-743.5359C1646.7948,-833.6431 1536.0726,-1044.1681 1483.2711,-1151.3291"/>
<polygon fill="#40e0d0" stroke="#40e0d0" points="1480.0684,-1149.9108 1478.8048,-1160.43 1486.3525,-1152.9948 1480.0684,-1149.9108"/>
<text text-anchor="middle" x="1398.782" y="-951.6325" font-family="Times,serif" font-size="14.00" fill="#40e0d0">DcoEvent::GuiButtonAsdoOverrideClicked [canManualOverride()]/</text>
</g>
<!-- ApplyNvmLockoutPattern&#45;&gt;ConsistView -->
<g id="edge11" class="edge">
<title>ApplyNvmLockoutPattern-&gt;ConsistView</title>
<path fill="none" stroke="#40e0d0" d="M1796.7413,-694.2941C1792.7083,-694.3307 1788.7082,-694.3893 1784.7811,-694.47"/>
<polygon fill="#40e0d0" stroke="#40e0d0" points="1784.4886,-690.9764 1774.5831,-694.7353 1784.6707,-697.974 1784.4886,-690.9764"/>
<text text-anchor="middle" x="1720.9824" y="-681.7821" font-family="Times,serif" font-size="14.00" fill="#40e0d0">DcoEvent::NoTrigger []/</text>
<text text-anchor="middle" x="1720.9824" y="-664.9821" font-family="Times,serif" font-size="14.00" fill="#40e0d0">_state.nvmLop().reset()</text>
</g>
<!-- NoPlausibleLocations&#45;&gt;ConfirmedLocations -->
<g id="edge25" class="edge">
<title>NoPlausibleLocations-&gt;ConfirmedLocations</title>
<path fill="none" stroke="#000000" d="M1590.6626,-944.7389C1410.6462,-815.2547 891.3639,-456.7761 700.8355,-330.4038"/>
<polygon fill="#000000" stroke="#000000" points="702.5563,-327.3455 692.286,-324.7432 698.6919,-333.1822 702.5563,-327.3455"/>
<text text-anchor="middle" x="774.5887" y="-624.9714" font-family="Times,serif" font-size="14.00" fill="#000000">DcoEvent::GuiButtonConfirmSelectionClicked [_state.selectedStation() != nullptr &amp;&amp; filterStopboards( *_state.selectedStation() )]/</text>
</g>
<!-- NoPlausibleLocations&#45;&gt;ConfirmedLocations -->
<g id="edge26" class="edge">
<title>NoPlausibleLocations-&gt;ConfirmedLocations</title>
<path fill="none" stroke="#40e0d0" d="M1586.6909,-950.4929C1401.7864,-828.0904 882.463,-469.6713 696.7405,-336.3364"/>
<polygon fill="#40e0d0" stroke="#40e0d0" points="698.5782,-333.3469 688.4161,-330.3498 694.4911,-339.0299 698.5782,-333.3469"/>
<text text-anchor="middle" x="1348.929" y="-664.4147" font-family="Times,serif" font-size="14.00" fill="#40e0d0">DcoEvent::OnTmcStationSelectedMessage []/</text>
<text text-anchor="middle" x="1348.929" y="-647.6147" font-family="Times,serif" font-size="14.00" fill="#40e0d0">clearPlatformIfLocationChanged(); _state.notifyStationConsistWide(true)</text>
</g>
<!-- NoPlausibleLocations&#45;&gt;ConsistView -->
<g id="edge28" class="edge">
<title>NoPlausibleLocations-&gt;ConsistView</title>
<path fill="none" stroke="#ffa500" d="M1677.5775,-917.7937C1690.7572,-869.0481 1706.0979,-806.1464 1715.8176,-760.6618"/>
<polygon fill="#ffa500" stroke="#ffa500" points="1719.2892,-761.1607 1717.9231,-750.6543 1712.4391,-759.7195 1719.2892,-761.1607"/>
<text text-anchor="middle" x="1827.9139" y="-826.6278" font-family="Times,serif" font-size="14.00" fill="#ffa500">DcoEvent::GuiButtonAsdoOverrideClicked []/</text>
<text text-anchor="middle" x="1827.9139" y="-809.8278" font-family="Times,serif" font-size="14.00" fill="#ffa500">handleOverrideInUnknownLocation()</text>
</g>
<!-- NoPlausibleLocations&#45;&gt;ConsistView -->
<g id="edge29" class="edge">
<title>NoPlausibleLocations-&gt;ConsistView</title>
<path fill="none" stroke="#ffa500" d="M1665.9148,-914.9191C1676.898,-865.6322 1692.5463,-802.8062 1705.0777,-758.0147"/>
<polygon fill="#ffa500" stroke="#ffa500" points="1708.5069,-758.7503 1707.8641,-748.175 1701.7718,-756.843 1708.5069,-758.7503"/>
<text text-anchor="middle" x="1510.7595" y="-823.8669" font-family="Times,serif" font-size="14.00" fill="#ffa500">DcoEvent::OnDriverOverrideInUnknownLocationMessage []/</text>
<text text-anchor="middle" x="1510.7595" y="-807.0669" font-family="Times,serif" font-size="14.00" fill="#ffa500">handleOverrideInUnknownLocation()</text>
</g>
<!-- NoPlausibleLocations&#45;&gt;NoPlausibleLocations -->
<g id="edge27" class="edge">
<title>NoPlausibleLocations-&gt;NoPlausibleLocations</title>
<path fill="none" stroke="#ffc0cb" d="M1730.9806,-998.0961C1741.776,-997.1041 1748.9918,-995.0963 1748.9918,-992.0729 1748.9918,-990.136 1746.0304,-988.6159 1741.0637,-987.5127"/>
<polygon fill="#ffc0cb" stroke="#ffc0cb" points="1741.3796,-984.022 1730.9806,-986.0496 1740.3743,-990.9494 1741.3796,-984.022"/>
<text text-anchor="middle" x="1843.272" y="-996.2729" font-family="Times,serif" font-size="14.00" fill="#ffc0cb">DcoEvent::GuiStationSelected []/</text>
<text text-anchor="middle" x="1843.272" y="-979.4729" font-family="Times,serif" font-size="14.00" fill="#ffc0cb">handleStationSelected()</text>
</g>
<!-- MultiplePlatformsDetectDirection&#45;&gt;ApplyLockoutPattern -->
<g id="edge54" class="edge">
<title>MultiplePlatformsDetectDirection-&gt;ApplyLockoutPattern</title>
<path fill="none" stroke="#00ff00" d="M991.0195,-101.4426C1023.0895,-97.5486 1057.3979,-93.3828 1087.539,-89.723"/>
<polygon fill="#00ff00" stroke="#00ff00" points="1088.0866,-93.1823 1097.5918,-88.5023 1087.2428,-86.2333 1088.0866,-93.1823"/>
<text text-anchor="middle" x="1186.2267" y="-99.7828" font-family="Times,serif" font-size="14.00" fill="#00ff00">DcoEvent::NoTrigger [_state.platformConfirmed()]/</text>
</g>
<!-- MultiplePlatforms -->
<g id="node14" class="node">
<title>MultiplePlatforms</title>
<ellipse fill="#d3d3d3" stroke="#000000" cx="1653.0837" cy="-409.9245" rx="66.3384" ry="66.3384"/>
<text text-anchor="middle" x="1653.0837" y="-406.3245" font-family="Times,serif" font-size="12.00" fill="#0000ff">MultiplePlatforms</text>
</g>
<!-- MultiplePlatformsDetectDirection&#45;&gt;MultiplePlatforms -->
<g id="edge53" class="edge">
<title>MultiplePlatformsDetectDirection-&gt;MultiplePlatforms</title>
<path fill="none" stroke="#bf3eff" d="M984.3819,-156.3194C1145.475,-217.4139 1444.3796,-330.7735 1581.2598,-382.6853"/>
<polygon fill="#bf3eff" stroke="#bf3eff" points="1580.2397,-386.0416 1590.8311,-386.3152 1582.722,-379.4965 1580.2397,-386.0416"/>
<text text-anchor="middle" x="1133.5431" y="-273.7023" font-family="Times,serif" font-size="14.00" fill="#bf3eff">DcoEvent::NoTrigger [!_state.platformConfirmed()]/</text>
</g>
<!-- MultiplePlatforms&#45;&gt;ConfirmedLocations -->
<g id="edge32" class="edge">
<title>MultiplePlatforms-&gt;ConfirmedLocations</title>
<path fill="none" stroke="#0000ff" d="M1587.1158,-401.9145C1407.7758,-380.1387 911.5024,-319.8802 713.1561,-295.7966"/>
<polygon fill="#0000ff" stroke="#0000ff" points="713.4326,-292.3046 703.0836,-294.5736 712.5888,-299.2535 713.4326,-292.3046"/>
<text text-anchor="middle" x="1279.7885" y="-336.2556" font-family="Times,serif" font-size="14.00" fill="#0000ff">DcoEvent::OnTmcStationSelectedMessage []/</text>
<text text-anchor="middle" x="1279.7885" y="-319.4556" font-family="Times,serif" font-size="14.00" fill="#0000ff">clearPlatformIfLocationChanged()</text>
</g>
<!-- MultiplePlatforms&#45;&gt;ApplyLockoutPattern -->
<g id="edge33" class="edge">
<title>MultiplePlatforms-&gt;ApplyLockoutPattern</title>
<path fill="none" stroke="#a52a2a" d="M1600.6779,-368.2908C1515.3243,-305.9281 1346.0942,-188.9211 1248.3446,-124.5053"/>
<polygon fill="#a52a2a" stroke="#a52a2a" points="1249.9727,-121.3871 1239.6937,-118.8195 1246.128,-127.2367 1249.9727,-121.3871"/>
<text text-anchor="middle" x="1290.1981" y="-250.598" font-family="Times,serif" font-size="14.00" fill="#a52a2a">DcoEvent::OnTmcPlatformSelectedMessage []/</text>
</g>
<!-- MultiplePlatforms&#45;&gt;ApplyLockoutPattern -->
<g id="edge35" class="edge">
<title>MultiplePlatforms-&gt;ApplyLockoutPattern</title>
<path fill="none" stroke="#ffa500" d="M1595.5721,-375.6877C1506.9952,-317.9949 1337.582,-201.2532 1242.6897,-132.6979"/>
<polygon fill="#ffa500" stroke="#ffa500" points="1244.4576,-129.6568 1234.3057,-126.6254 1240.3514,-135.326 1244.4576,-129.6568"/>
<text text-anchor="middle" x="1664.133" y="-275.1928" font-family="Times,serif" font-size="14.00" fill="#ffa500">DcoEvent::GuiButtonConfirmSelectionClicked [_state.selectedStopBoard() != nullptr]/</text>
<text text-anchor="middle" x="1664.133" y="-258.3928" font-family="Times,serif" font-size="14.00" fill="#ffa500">_state.clearTheRealNvmLop(); _state.notifyStopBoardConsistWide(true)</text>
</g>
<!-- MultiplePlatforms&#45;&gt;ConsistView -->
<g id="edge37" class="edge">
<title>MultiplePlatforms-&gt;ConsistView</title>
<path fill="none" stroke="#ff0000" d="M1663.4521,-475.8922C1674.4915,-526.6909 1691.6838,-596.1586 1705.2046,-644.4361"/>
<polygon fill="#ff0000" stroke="#ff0000" points="1701.8492,-645.4328 1707.9436,-654.0993 1708.5839,-643.5239 1701.8492,-645.4328"/>
<text text-anchor="middle" x="1509.5915" y="-547.5641" font-family="Times,serif" font-size="14.00" fill="#ff0000">DcoEvent::OnDriverOverrideInUnknownLocationMessage []/</text>
<text text-anchor="middle" x="1509.5915" y="-530.7641" font-family="Times,serif" font-size="14.00" fill="#ff0000">handleOverrideInUnknownLocation()</text>
</g>
<!-- MultiplePlatforms&#45;&gt;ConsistView -->
<g id="edge38" class="edge">
<title>MultiplePlatforms-&gt;ConsistView</title>
<path fill="none" stroke="#ffc0cb" d="M1674.5597,-473.1544C1688.3921,-523.2647 1705.4523,-592.7649 1715.9159,-641.796"/>
<polygon fill="#ffc0cb" stroke="#ffc0cb" points="1712.4997,-642.5588 1717.9814,-651.6252 1719.3501,-641.1192 1712.4997,-642.5588"/>
<text text-anchor="middle" x="1826.4542" y="-578.4752" font-family="Times,serif" font-size="14.00" fill="#ffc0cb">DcoEvent::GuiButtonAsdoOverrideClicked []/</text>
<text text-anchor="middle" x="1826.4542" y="-561.6752" font-family="Times,serif" font-size="14.00" fill="#ffc0cb">handleOverrideInUnknownLocation()</text>
</g>
<!-- MultiplePlatforms&#45;&gt;NoPlausibleLocations -->
<g id="edge34" class="edge">
<title>MultiplePlatforms-&gt;NoPlausibleLocations</title>
<path fill="none" stroke="#a52a2a" d="M1653.0837,-476.4207C1653.0837,-581.6486 1653.0837,-786.6162 1653.0837,-903.9608"/>
<polygon fill="#a52a2a" stroke="#a52a2a" points="1649.5838,-903.9931 1653.0837,-913.9931 1656.5838,-903.9932 1649.5838,-903.9931"/>
<text text-anchor="middle" x="1536.6352" y="-677.5907" font-family="Times,serif" font-size="14.00" fill="#a52a2a">DcoEvent::GuiButtonLocationClicked []/</text>
<text text-anchor="middle" x="1536.6352" y="-660.7907" font-family="Times,serif" font-size="14.00" fill="#a52a2a">}), true)</text>
</g>
<!-- MultiplePlatforms&#45;&gt;MultiplePlatforms -->
<g id="edge36" class="edge">
<title>MultiplePlatforms-&gt;MultiplePlatforms</title>
<path fill="none" stroke="#000000" d="M1719.2681,-416.1698C1730.0755,-415.2758 1737.5028,-413.194 1737.5028,-409.9245 1737.5028,-407.83 1734.4547,-406.2229 1729.4223,-405.1032"/>
<polygon fill="#000000" stroke="#000000" points="1729.6573,-401.602 1719.2681,-403.6792 1728.685,-408.5342 1729.6573,-401.602"/>
<text text-anchor="middle" x="1836.4436" y="-414.1245" font-family="Times,serif" font-size="14.00" fill="#000000">DcoEvent::GuiPlatformSelected []/</text>
<text text-anchor="middle" x="1836.4436" y="-397.3245" font-family="Times,serif" font-size="14.00" fill="#000000">handlePlatformSelected()</text>
</g>
<!-- ManualOverride&#45;&gt;ConsistView -->
<g id="edge56" class="edge">
<title>ManualOverride-&gt;ConsistView</title>
<path fill="none" stroke="#00ff00" d="M1486.5721,-1164.2922C1541.5913,-1066.4053 1651.9304,-856.1458 1700.7777,-756.0795"/>
<polygon fill="#00ff00" stroke="#00ff00" points="1703.9491,-757.561 1705.1692,-747.0367 1697.6523,-754.5031 1703.9491,-757.561"/>
<text text-anchor="middle" x="1433.7102" y="-964.3858" font-family="Times,serif" font-size="14.00" fill="#00ff00">DcoEvent::OnDoorReleaseMessage [!allDoorsClosed()]/</text>
</g>
<!-- ManualOverride&#45;&gt;NoPlausibleLocations -->
<g id="edge57" class="edge">
<title>ManualOverride-&gt;NoPlausibleLocations</title>
<path fill="none" stroke="#ff0000" d="M1494.7579,-1170.7858C1523.48,-1138.3652 1562.4766,-1094.3472 1594.5799,-1058.11"/>
<polygon fill="#ff0000" stroke="#ff0000" points="1597.3082,-1060.3085 1601.3196,-1050.5025 1592.0686,-1055.6666 1597.3082,-1060.3085"/>
<text text-anchor="middle" x="1405.665" y="-1135.4479" font-family="Times,serif" font-size="14.00" fill="#ff0000">DcoEvent::GuiButtonListAllLocationsClicked []/</text>
<text text-anchor="middle" x="1405.665" y="-1118.6479" font-family="Times,serif" font-size="14.00" fill="#ff0000">}), true)</text>
</g>
<!-- ManualOverride&#45;&gt;ManualOverride -->
<g id="edge55" class="edge">
<title>ManualOverride-&gt;ManualOverride</title>
<path fill="none" stroke="#a52a2a" d="M1515.1327,-1222.7936C1525.7611,-1221.9498 1533.1547,-1219.8405 1533.1547,-1216.4655 1533.1547,-1214.3034 1530.1204,-1212.6607 1525.1451,-1211.5374"/>
<polygon fill="#a52a2a" stroke="#a52a2a" points="1525.5211,-1208.056 1515.1327,-1210.1373 1524.5517,-1214.9885 1525.5211,-1208.056"/>
<text text-anchor="middle" x="1631.3143" y="-1212.2655" font-family="Times,serif" font-size="14.00" fill="#a52a2a">DcoEvent::OnLocationMessage []/</text>
</g>
</g>
</svg>