<?xml version="1.0" encoding="UTF-8" standalone="no"?><!DOCTYPE svg PUBLIC "-//W3C//DTD SVG 1.1//EN" "http://www.w3.org/Graphics/SVG/1.1/DTD/svg11.dtd"><!-- Generated by graphviz version 2.40.1 (20161225.0304)
 --><!-- Title: G Pages: 1 --><svg xmlns="http://www.w3.org/2000/svg" xmlns:xlink="http://www.w3.org/1999/xlink" width="2629pt" height="383pt" viewBox="0.00 0.00 2629.19 382.70">
<g id="graph0" class="graph" transform="scale(1 1) rotate(0) translate(4 378.6988)">
<title>G</title>
<polygon fill="#ffffff" stroke="transparent" points="-4,4 -4,-378.6988 2625.1936,-378.6988 2625.1936,4 -4,4"/>
<!-- Initial -->
<g id="node1" class="node">
<title>Initial</title>
<ellipse fill="none" stroke="#000000" cx="38.1012" cy="-102.7029" rx="34.1919" ry="34.1919"/>
<ellipse fill="none" stroke="#000000" cx="38.1012" cy="-102.7029" rx="38.2026" ry="38.2026"/>
<text text-anchor="middle" x="38.1012" y="-98.5029" font-family="Times,serif" font-size="14.00" fill="#000000">Initial</text>
</g>
<!-- Evacuation -->
<g id="node2" class="node">
<title>Evacuation</title>
<ellipse fill="#d3d3d3" stroke="#000000" cx="748.1915" cy="-102.7029" rx="44.8943" ry="44.8943"/>
<text text-anchor="middle" x="748.1915" y="-99.1029" font-family="Times,serif" font-size="12.00" fill="#0000ff">Evacuation</text>
</g>
<!-- Initial&#45;&gt;Evacuation -->
<g id="edge1" class="edge">
<title>Initial-&gt;Evacuation</title>
<path fill="none" stroke="#ffa500" d="M76.2787,-102.7029C194.3375,-102.7029 553.8923,-102.7029 692.6989,-102.7029"/>
<polygon fill="#ffa500" stroke="#ffa500" points="693.0899,-106.203 703.0899,-102.7029 693.0899,-99.203 693.0899,-106.203"/>
<text text-anchor="middle" x="352.1362" y="-123.7029" font-family="Times,serif" font-size="14.00" fill="#ffa500">DcoEvent::NoTrigger [reEnterEvacuationMode()]/</text>
<text text-anchor="middle" x="352.1362" y="-106.9029" font-family="Times,serif" font-size="14.00" fill="#ffa500">setEvacModeLop(); exitCsde(); _state.makeSureSelectedStationMatchesLocationMessage()</text>
</g>
<!-- Journey -->
<g id="node3" class="node">
<title>Journey</title>
<ellipse fill="#d3d3d3" stroke="#000000" cx="2403.3032" cy="-95.7029" rx="34.4647" ry="34.4647"/>
<text text-anchor="middle" x="2403.3032" y="-92.1029" font-family="Times,serif" font-size="12.00" fill="#0000ff">Journey</text>
</g>
<!-- Initial&#45;&gt;Journey -->
<g id="edge2" class="edge">
<title>Initial-&gt;Journey</title>
<path fill="none" stroke="#000000" d="M76.0337,-97.3031C195.0883,-80.663 572.1052,-30.3054 886.3129,-13.9029 1250.5358,5.1106 2290.4712,6.1275 2350.8209,-24.7029 2364.1118,-31.4927 2374.8846,-43.3884 2383.1321,-55.5238"/>
<polygon fill="#000000" stroke="#000000" points="2380.3945,-57.7441 2388.6912,-64.3331 2386.3144,-54.0083 2380.3945,-57.7441"/>
<text text-anchor="middle" x="1096.7007" y="-18.9029" font-family="Times,serif" font-size="14.00" fill="#000000">DcoEvent::NoTrigger [!_state.lowSpeed()]/</text>
</g>
<!-- LowSpeed -->
<g id="node4" class="node">
<title>LowSpeed</title>
<ellipse fill="#d3d3d3" stroke="#000000" cx="1368.0845" cy="-127.7029" rx="42.992" ry="42.992"/>
<text text-anchor="middle" x="1368.0845" y="-124.1029" font-family="Times,serif" font-size="12.00" fill="#0000ff">LowSpeed</text>
</g>
<!-- Initial&#45;&gt;LowSpeed -->
<g id="edge3" class="edge">
<title>Initial-&gt;LowSpeed</title>
<path fill="none" stroke="#0000ff" d="M67.6277,-127.1287C75.7696,-132.5839 84.9275,-137.6512 94.2023,-140.7029 428.8879,-250.823 534.0484,-165.5903 886.3129,-172.7029 1073.2862,-176.478 1129.4422,-231.1412 1307.0885,-172.7029 1314.2216,-170.3563 1321.2054,-166.8201 1327.7519,-162.7411"/>
<polygon fill="#0000ff" stroke="#0000ff" points="1330.0597,-165.4056 1336.381,-156.9032 1326.1372,-159.6078 1330.0597,-165.4056"/>
<text text-anchor="middle" x="748.1915" y="-186.9029" font-family="Times,serif" font-size="14.00" fill="#0000ff">DcoEvent::NoTrigger [_state.lowSpeed()]/</text>
</g>
<!-- Evacuation&#45;&gt;LowSpeed -->
<g id="edge17" class="edge">
<title>Evacuation-&gt;LowSpeed</title>
<path fill="none" stroke="#000000" d="M787.6954,-81.6859C814.6421,-68.576 851.6061,-52.9382 886.3129,-46.1029 932.1846,-37.0687 1265.2883,-25.1609 1307.0885,-46.1029 1322.0174,-53.5823 1334.2307,-66.6424 1343.7009,-80.1501"/>
<polygon fill="#000000" stroke="#000000" points="1340.8221,-82.1425 1349.2428,-88.5724 1346.6698,-78.2947 1340.8221,-82.1425"/>
<text text-anchor="middle" x="1096.7007" y="-67.7029" font-family="Times,serif" font-size="14.00" fill="#000000">DcoEvent::GuiButtonEvacuationClicked []/</text>
<text text-anchor="middle" x="1096.7007" y="-50.9029" font-family="Times,serif" font-size="14.00" fill="#000000">_state.hsm().sendEvent(DcoEvent::GuiButtonAsdoClicked); return true; })</text>
</g>
<!-- Evacuation&#45;&gt;LowSpeed -->
<g id="edge18" class="edge">
<title>Evacuation-&gt;LowSpeed</title>
<path fill="none" stroke="#ff0000" d="M790.9032,-116.448C817.9305,-124.4126 853.788,-133.6461 886.3129,-137.7029 1071.8863,-160.8492 1120.6941,-152.8808 1307.0885,-137.7029 1309.8025,-137.4819 1312.5778,-137.2064 1315.3755,-136.8895"/>
<polygon fill="#ff0000" stroke="#ff0000" points="1316.0628,-140.33 1325.5349,-135.5836 1315.1703,-133.3872 1316.0628,-140.33"/>
<text text-anchor="middle" x="1096.7007" y="-155.9029" font-family="Times,serif" font-size="14.00" fill="#ff0000">DcoEvent::ManualOverrideCancelled []/</text>
</g>
<!-- Journey&#45;&gt;Journey -->
<g id="edge12" class="edge">
<title>Journey-&gt;Journey</title>
<path fill="none" stroke="#0000ff" d="M2375.436,-116.1735C2365.0142,-132.0215 2374.3032,-148.1852 2403.3032,-148.1852 2426.4126,-148.1852 2437.0053,-137.9211 2435.0814,-125.7319"/>
<polygon fill="#0000ff" stroke="#0000ff" points="2438.1968,-124.1033 2431.1704,-116.1735 2431.7181,-126.7542 2438.1968,-124.1033"/>
<text text-anchor="middle" x="2403.3032" y="-152.3852" font-family="Times,serif" font-size="14.00" fill="#0000ff">DcoEvent::OnLowSpeedMessage []/</text>
</g>
<!-- Journey&#45;&gt;Journey -->
<g id="edge13" class="edge">
<title>Journey-&gt;Journey</title>
<path fill="none" stroke="#00ff00" d="M2370.5933,-107.6571C2319.8999,-132.2674 2330.8032,-166.1852 2403.3032,-166.1852 2470.9888,-166.1852 2484.9868,-136.6226 2445.2974,-112.6704"/>
<polygon fill="#00ff00" stroke="#00ff00" points="2446.4753,-109.3289 2436.0132,-107.6571 2443.1493,-115.4882 2446.4753,-109.3289"/>
<text text-anchor="middle" x="2403.3032" y="-187.1852" font-family="Times,serif" font-size="14.00" fill="#00ff00">DcoEvent::OnLocationMessage []/</text>
<text text-anchor="middle" x="2403.3032" y="-170.3852" font-family="Times,serif" font-size="14.00" fill="#00ff00">updateGuiWithLocationInJourneyPhase(); clearPlatformIfLocationChanged()</text>
</g>
<!-- Journey&#45;&gt;Journey -->
<g id="edge14" class="edge">
<title>Journey-&gt;Journey</title>
<path fill="none" stroke="#000000" d="M2370.0703,-105.305C2276.4756,-138.7905 2287.5532,-199.7852 2403.3032,-199.7852 2514.9839,-199.7852 2529.2226,-143.0038 2446.0193,-108.9349"/>
<polygon fill="#000000" stroke="#000000" points="2447.1266,-105.6111 2436.5361,-105.305 2444.6242,-112.1486 2447.1266,-105.6111"/>
<text text-anchor="middle" x="2403.3032" y="-220.7852" font-family="Times,serif" font-size="14.00" fill="#000000">DcoEvent::GuiScreenTouched [!_state.lowSpeed()]/</text>
<text text-anchor="middle" x="2403.3032" y="-203.9852" font-family="Times,serif" font-size="14.00" fill="#000000">screenTouched()</text>
</g>
<!-- Journey&#45;&gt;LowSpeed -->
<g id="edge11" class="edge">
<title>Journey-&gt;LowSpeed</title>
<path fill="none" stroke="#40e0d0" d="M2368.8707,-93.7529C2362.8561,-93.4821 2356.6576,-93.2473 2350.8209,-93.1029 2248.4366,-90.5683 1528.1065,-66.9722 1429.0805,-93.1029 1423.7096,-94.5201 1418.3157,-96.5312 1413.0777,-98.8794"/>
<polygon fill="#40e0d0" stroke="#40e0d0" points="1411.2847,-95.8608 1403.856,-103.4149 1414.3741,-102.1422 1411.2847,-95.8608"/>
<text text-anchor="middle" x="1889.9507" y="-114.7029" font-family="Times,serif" font-size="14.00" fill="#40e0d0">DcoEvent::NoTrigger [_state.lowSpeed() &amp;&amp; isWithinGeofence() &amp;&amp; ( _state.icmType() == IcmType::Asdo || _state.monitorFailureMode() )]/</text>
<text text-anchor="middle" x="1889.9507" y="-97.9029" font-family="Times,serif" font-size="14.00" fill="#40e0d0">unblankScreenIfActiveCab()</text>
</g>
<!-- Journey&#45;&gt;LowSpeed -->
<g id="edge15" class="edge">
<title>Journey-&gt;LowSpeed</title>
<path fill="none" stroke="#bf3eff" d="M2382.5243,-67.7821C2373.8763,-58.4145 2363.0014,-49.0878 2350.8209,-44.1029 2303.4284,-24.7072 1474.7303,-20.9009 1429.0805,-44.1029 1413.6947,-51.9228 1401.2671,-65.6456 1391.7439,-79.74"/>
<polygon fill="#bf3eff" stroke="#bf3eff" points="1388.5809,-78.193 1386.1893,-88.5143 1394.4954,-81.9372 1388.5809,-78.193"/>
<text text-anchor="middle" x="1889.9507" y="-65.7029" font-family="Times,serif" font-size="14.00" fill="#bf3eff">DcoEvent::GuiScreenTouched [_state.lowSpeed()]/</text>
<text text-anchor="middle" x="1889.9507" y="-48.9029" font-family="Times,serif" font-size="14.00" fill="#bf3eff">_state.unblankScreen(true); updateOthersWithLowSpeedMessageIfActiveCab()</text>
</g>
<!-- Journey&#45;&gt;LowSpeed -->
<g id="edge16" class="edge">
<title>Journey-&gt;LowSpeed</title>
<path fill="none" stroke="#40e0d0" d="M2388.0856,-127.0003C2379.3358,-141.2785 2366.8672,-156.7473 2350.8209,-164.7029 1983.7907,-346.6702 1823.6126,-275.01 1429.0805,-164.7029 1423.3494,-163.1005 1417.621,-160.7963 1412.0961,-158.1101"/>
<polygon fill="#40e0d0" stroke="#40e0d0" points="1413.4982,-154.8916 1403.0258,-153.2854 1410.2108,-161.0717 1413.4982,-154.8916"/>
<text text-anchor="middle" x="1889.9507" y="-279.9029" font-family="Times,serif" font-size="14.00" fill="#40e0d0">DcoEvent::OnScreenTouchedInTheActiveCab [_state.lowSpeed() &amp;&amp; (_state.icmType() == IcmType::Asdo || _state.monitorFailureMode()) &amp;&amp; !amIActiveCab()]/</text>
</g>
<!-- LowSpeed&#45;&gt;Evacuation -->
<g id="edge6" class="edge">
<title>LowSpeed-&gt;Evacuation</title>
<path fill="none" stroke="#a52a2a" d="M1328.6709,-110.0562C1321.6135,-107.5919 1314.2303,-105.4456 1307.0885,-104.1029 1125.0052,-69.8698 903.6168,-85.9246 802.8527,-96.2956"/>
<polygon fill="#a52a2a" stroke="#a52a2a" points="802.4833,-92.815 792.9042,-97.3417 803.2155,-99.7766 802.4833,-92.815"/>
<text text-anchor="middle" x="1096.7007" y="-124.7029" font-family="Times,serif" font-size="14.00" fill="#a52a2a">DcoEvent::GuiButtonEvacuationClicked [amIActiveCab()]/</text>
<text text-anchor="middle" x="1096.7007" y="-107.9029" font-family="Times,serif" font-size="14.00" fill="#a52a2a">exitCsde(); _state.makeSureSelectedStationMatchesLocationMessage()</text>
</g>
<!-- LowSpeed&#45;&gt;Journey -->
<g id="edge5" class="edge">
<title>LowSpeed-&gt;Journey</title>
<path fill="none" stroke="#0000ff" d="M1411.0627,-130.082C1417.1108,-130.3394 1423.2509,-130.5596 1429.0805,-130.7029 1531.4651,-133.2192 2252.802,-160.3889 2350.8209,-130.7029 2356.5956,-128.9539 2362.3155,-126.3367 2367.7367,-123.306"/>
<polygon fill="#0000ff" stroke="#0000ff" points="2369.8504,-126.1151 2376.5352,-117.8953 2366.1836,-120.1523 2369.8504,-126.1151"/>
<text text-anchor="middle" x="1889.9507" y="-147.9029" font-family="Times,serif" font-size="14.00" fill="#0000ff">DcoEvent::OnLowSpeedMessage [!_state.lowSpeed()]/</text>
</g>
<!-- LowSpeed&#45;&gt;LowSpeed -->
<g id="edge4" class="edge">
<title>LowSpeed-&gt;LowSpeed</title>
<path fill="none" stroke="#0000ff" d="M1358.0639,-169.6105C1358.6798,-180.4929 1362.02,-188.6988 1368.0845,-188.6988 1372.0643,-188.6988 1374.8708,-185.1649 1376.5041,-179.6596"/>
<polygon fill="#0000ff" stroke="#0000ff" points="1379.9881,-180.0367 1378.105,-169.6105 1373.0753,-178.9353 1379.9881,-180.0367"/>
<text text-anchor="middle" x="1368.0845" y="-192.8988" font-family="Times,serif" font-size="14.00" fill="#0000ff">DcoEvent::OnDistanceAlarmMessage []/</text>
</g>
<!-- LowSpeed&#45;&gt;LowSpeed -->
<g id="edge7" class="edge">
<title>LowSpeed-&gt;LowSpeed</title>
<path fill="none" stroke="#a52a2a" d="M1348.7355,-166.3141C1345.2872,-187.3926 1351.7368,-206.6988 1368.0845,-206.6988 1381.7501,-206.6988 1388.4991,-193.2078 1388.3314,-176.4682"/>
<polygon fill="#a52a2a" stroke="#a52a2a" points="1391.8009,-175.9669 1387.4335,-166.3141 1384.8281,-176.5836 1391.8009,-175.9669"/>
<text text-anchor="middle" x="1368.0845" y="-227.6988" font-family="Times,serif" font-size="14.00" fill="#a52a2a">DcoEvent::OnLocationMessage []/</text>
<text text-anchor="middle" x="1368.0845" y="-210.8988" font-family="Times,serif" font-size="14.00" fill="#a52a2a">clearPlatformIfLocationChanged()</text>
</g>
<!-- LowSpeed&#45;&gt;LowSpeed -->
<g id="edge8" class="edge">
<title>LowSpeed-&gt;LowSpeed</title>
<path fill="none" stroke="#0000ff" d="M1343.6277,-163.2176C1330.7438,-198.6087 1338.896,-240.2988 1368.0845,-240.2988 1394.6506,-240.2988 1403.7906,-205.7634 1395.5045,-172.8743"/>
<polygon fill="#0000ff" stroke="#0000ff" points="1398.8209,-171.7508 1392.5412,-163.2176 1392.1288,-173.8044 1398.8209,-171.7508"/>
<text text-anchor="middle" x="1368.0845" y="-244.4988" font-family="Times,serif" font-size="14.00" fill="#0000ff">DcoEvent::OnCabActiveMessage [(amIActiveCab() &amp;&amp; (_state.icmType() == IcmType::Asdo || _state.monitorFailureMode()))]/</text>
</g>
<!-- LowSpeed&#45;&gt;LowSpeed -->
<g id="edge9" class="edge">
<title>LowSpeed-&gt;LowSpeed</title>
<path fill="none" stroke="#ffc0cb" d="M1339.6969,-160.3615C1316.8563,-203.106 1326.3189,-258.2988 1368.0845,-258.2988 1406.9135,-258.2988 1417.8223,-210.5946 1400.8109,-169.539"/>
<polygon fill="#ffc0cb" stroke="#ffc0cb" points="1403.9104,-167.9062 1396.4721,-160.3615 1397.582,-170.8981 1403.9104,-167.9062"/>
<text text-anchor="middle" x="1368.0845" y="-262.4988" font-family="Times,serif" font-size="14.00" fill="#ffc0cb">DcoEvent::ManualOverrideCancelled []/</text>
</g>
<!-- LowSpeed&#45;&gt;LowSpeed -->
<g id="edge10" class="edge">
<title>LowSpeed-&gt;LowSpeed</title>
<path fill="none" stroke="#ffc0cb" d="M1337.2349,-157.8782C1302.9575,-207.4683 1313.2407,-276.2988 1368.0845,-276.2988 1419.8219,-276.2988 1431.9036,-215.0447 1404.3297,-166.4738"/>
<polygon fill="#ffc0cb" stroke="#ffc0cb" points="1407.215,-164.4871 1398.9341,-157.8782 1401.2863,-168.2086 1407.215,-164.4871"/>
<text text-anchor="middle" x="1368.0845" y="-297.2988" font-family="Times,serif" font-size="14.00" fill="#ffc0cb">DcoEvent::OnCabActiveMessage []/</text>
<text text-anchor="middle" x="1368.0845" y="-280.4988" font-family="Times,serif" font-size="14.00" fill="#ffc0cb">updateGuiWithActiveCab(); sendTmcAsdoEnabledEvent()</text>
</g>
</g>
</svg>