<?xml version="1.0" encoding="UTF-8" standalone="no"?><!DOCTYPE svg PUBLIC "-//W3C//DTD SVG 1.1//EN" "http://www.w3.org/Graphics/SVG/1.1/DTD/svg11.dtd"><!-- Generated by graphviz version 2.40.1 (20161225.0304)
 --><!-- Title: G Pages: 1 --><svg xmlns="http://www.w3.org/2000/svg" xmlns:xlink="http://www.w3.org/1999/xlink" width="746pt" height="378pt" viewBox="0.00 0.00 745.54 378.32">
<g id="graph0" class="graph" transform="scale(1 1) rotate(0) translate(4 374.3186)">
<title>G</title>
<polygon fill="#ffffff" stroke="transparent" points="-4,4 -4,-374.3186 741.5399,-374.3186 741.5399,4 -4,4"/>
<!-- Initial -->
<g id="node1" class="node">
<title>Initial</title>
<ellipse fill="none" stroke="#000000" cx="38.1012" cy="-165.1068" rx="34.1919" ry="34.1919"/>
<ellipse fill="none" stroke="#000000" cx="38.1012" cy="-165.1068" rx="38.2026" ry="38.2026"/>
<text text-anchor="middle" x="38.1012" y="-160.9068" font-family="Times,serif" font-size="14.00" fill="#000000">Initial</text>
</g>
<!-- DoorsReleased -->
<g id="node2" class="node">
<title>DoorsReleased</title>
<ellipse fill="#d3d3d3" stroke="#000000" cx="580.3045" cy="-262.1068" rx="56.7238" ry="56.7238"/>
<text text-anchor="middle" x="580.3045" y="-258.5068" font-family="Times,serif" font-size="12.00" fill="#0000ff">DoorsReleased</text>
</g>
<!-- Initial&#45;&gt;DoorsReleased -->
<g id="edge1" class="edge">
<title>Initial-&gt;DoorsReleased</title>
<path fill="none" stroke="#0000ff" d="M75.7974,-171.8507C166.8306,-188.1365 399.6009,-229.779 514.3409,-250.306"/>
<polygon fill="#0000ff" stroke="#0000ff" points="513.94,-253.7897 524.4001,-252.1056 515.1728,-246.8991 513.94,-253.7897"/>
<text text-anchor="middle" x="294.2" y="-249.3068" font-family="Times,serif" font-size="14.00" fill="#0000ff">DcoEvent::NoTrigger [leftDoorReleased() || rightDoorReleased()]/</text>
</g>
<!-- DoorsNotReleased -->
<g id="node3" class="node">
<title>DoorsNotReleased</title>
<ellipse fill="#d3d3d3" stroke="#000000" cx="580.3045" cy="-68.1068" rx="68.2138" ry="68.2138"/>
<text text-anchor="middle" x="580.3045" y="-64.5068" font-family="Times,serif" font-size="12.00" fill="#0000ff">DoorsNotReleased</text>
</g>
<!-- Initial&#45;&gt;DoorsNotReleased -->
<g id="edge2" class="edge">
<title>Initial-&gt;DoorsNotReleased</title>
<path fill="none" stroke="#00ff00" d="M75.5063,-157.8268C81.7467,-156.635 88.1553,-155.425 94.2023,-154.3068 238.4837,-127.6279 407.1748,-98.0831 503.109,-81.4358"/>
<polygon fill="#00ff00" stroke="#00ff00" points="503.7616,-84.8749 513.0165,-79.7175 502.5654,-77.9779 503.7616,-84.8749"/>
<text text-anchor="middle" x="294.2" y="-158.3068" font-family="Times,serif" font-size="14.00" fill="#00ff00">DcoEvent::NoTrigger [!leftDoorReleased() &amp;&amp; !rightDoorReleased()]/</text>
</g>
<!-- DoorsReleased&#45;&gt;DoorsReleased -->
<g id="edge4" class="edge">
<title>DoorsReleased-&gt;DoorsReleased</title>
<path fill="none" stroke="#ff0000" d="M532.4531,-292.7633C516.8736,-314.7838 532.8241,-336.7186 580.3045,-336.7186 621.2935,-336.7186 638.7847,-320.3716 632.7779,-301.7345"/>
<polygon fill="#ff0000" stroke="#ff0000" points="635.8473,-300.0499 628.156,-292.7633 629.6246,-303.2559 635.8473,-300.0499"/>
<text text-anchor="middle" x="580.3045" y="-357.7186" font-family="Times,serif" font-size="14.00" fill="#ff0000">DcoEvent::OnDoorReleaseMessage [!doorsReleased()]/</text>
<text text-anchor="middle" x="580.3045" y="-340.9186" font-family="Times,serif" font-size="14.00" fill="#ff0000">exitEvacuationMode()</text>
</g>
<!-- DoorsNotReleased&#45;&gt;DoorsNotReleased -->
<g id="edge3" class="edge">
<title>DoorsNotReleased-&gt;DoorsNotReleased</title>
<path fill="none" stroke="#a52a2a" d="M528.2637,-112.4105C521.0631,-134.5054 538.41,-154.2137 580.3045,-154.2137 615.6531,-154.2137 633.5258,-140.1831 633.9228,-122.5266"/>
<polygon fill="#a52a2a" stroke="#a52a2a" points="637.3444,-121.7519 632.3454,-112.4105 630.4279,-122.8304 637.3444,-121.7519"/>
<text text-anchor="middle" x="580.3045" y="-175.2137" font-family="Times,serif" font-size="14.00" fill="#a52a2a">DcoEvent::OnDoorReleaseMessage [!doorsReleased()]/</text>
<text text-anchor="middle" x="580.3045" y="-158.4137" font-family="Times,serif" font-size="14.00" fill="#a52a2a">exitEvacuationMode()</text>
</g>
</g>
</svg>