<?xml version="1.0" encoding="UTF-8" standalone="no"?><!DOCTYPE svg PUBLIC "-//W3C//DTD SVG 1.1//EN" "http://www.w3.org/Graphics/SVG/1.1/DTD/svg11.dtd"><!-- Generated by graphviz version 2.40.1 (20161225.0304)
 --><!-- Title: G Pages: 1 --><svg xmlns="http://www.w3.org/2000/svg" xmlns:xlink="http://www.w3.org/1999/xlink" width="1719pt" height="1161pt" viewBox="0.00 0.00 1718.99 1161.25">
<g id="graph0" class="graph" transform="scale(1 1) rotate(0) translate(4 1157.2467)">
<title>G</title>
<polygon fill="#ffffff" stroke="transparent" points="-4,4 -4,-1157.2467 1714.9861,-1157.2467 1714.9861,4 -4,4"/>
<!-- Initial -->
<g id="node1" class="node">
<title>Initial</title>
<ellipse fill="none" stroke="#000000" cx="38.1012" cy="-418.0003" rx="34.1919" ry="34.1919"/>
<ellipse fill="none" stroke="#000000" cx="38.1012" cy="-418.0003" rx="38.2026" ry="38.2026"/>
<text text-anchor="middle" x="38.1012" y="-413.8003" font-family="Times,serif" font-size="14.00" fill="#000000">Initial</text>
</g>
<!-- Otcm -->
<g id="node2" class="node">
<title>Otcm</title>
<ellipse fill="#d3d3d3" stroke="#000000" cx="1084.4085" cy="-718.0003" rx="27.4951" ry="27.4951"/>
<text text-anchor="middle" x="1084.4085" y="-714.4003" font-family="Times,serif" font-size="12.00" fill="#0000ff">Otcm</text>
</g>
<!-- Initial&#45;&gt;Otcm -->
<g id="edge1" class="edge">
<title>Initial-&gt;Otcm</title>
<path fill="none" stroke="#ffa500" d="M40.1307,-456.1477C44.6583,-524.7996 58.1812,-664.8386 94.2023,-695.0003 384.5676,-938.1335 908.2055,-779.9514 1048.8366,-731.0129"/>
<polygon fill="#ffa500" stroke="#ffa500" points="1050.3954,-734.1747 1058.6653,-727.552 1048.0704,-727.572 1050.3954,-734.1747"/>
<text text-anchor="middle" x="454.9753" y="-847.0003" font-family="Times,serif" font-size="14.00" fill="#ffa500">DcoEvent::GuiButtonOtcmClicked [_state.dualScreenShowOtcmMessage() == nullptr]</text>
<text text-anchor="middle" x="454.9753" y="-830.2003" font-family="Times,serif" font-size="14.00" fill="#ffa500">&lt; setDistanceAlarm(true); _state.wantToShowOtcm(true); handleShowOtcm(true); &gt;</text>
</g>
<!-- Initial&#45;&gt;Otcm -->
<g id="edge4" class="edge">
<title>Initial-&gt;Otcm</title>
<path fill="none" stroke="#0000ff" d="M42.3107,-455.9742C49.4632,-512.7425 66.0225,-615.4908 94.2023,-638.0003 156.8659,-688.0546 744.7218,-620.1525 815.7483,-657.4003 827.7462,-663.6922 822.1345,-675.0248 833.7483,-682.0003 900.5647,-722.1315 995.0512,-723.9443 1046.8389,-721.265"/>
<polygon fill="#0000ff" stroke="#0000ff" points="1047.14,-724.7533 1056.9114,-720.6583 1046.7191,-717.766 1047.14,-724.7533"/>
<text text-anchor="middle" x="454.9753" y="-678.0003" font-family="Times,serif" font-size="14.00" fill="#0000ff">DcoEvent::GuiButtonOtcmClicked [_state.icmType() == IcmType::Otcm]</text>
<text text-anchor="middle" x="454.9753" y="-661.2003" font-family="Times,serif" font-size="14.00" fill="#0000ff">&lt;  setDistanceAlarm(true); startTimeoutToOtcmGuiButtonOtcmClickedThread();  handleShowOtcm(true); &gt;</text>
</g>
<!-- Initial&#45;&gt;Otcm -->
<g id="edge5" class="edge">
<title>Initial-&gt;Otcm</title>
<path fill="none" stroke="#ffa500" d="M45.9344,-455.498C55.7566,-498.5085 73.8023,-565.0374 94.2023,-580.0003 158.8747,-627.4359 753.9412,-549.2873 815.7483,-600.4003 844.3682,-624.0683 806.528,-656.7351 833.7483,-682.0003 891.9005,-735.9757 992.632,-731.7412 1047.0103,-724.5438"/>
<polygon fill="#ffa500" stroke="#ffa500" points="1047.8376,-727.9613 1057.2416,-723.0812 1046.8469,-721.0317 1047.8376,-727.9613"/>
<text text-anchor="middle" x="454.9753" y="-621.0003" font-family="Times,serif" font-size="14.00" fill="#ffa500">DcoEvent::ShowOtcmOnDoorClosed []</text>
<text text-anchor="middle" x="454.9753" y="-604.2003" font-family="Times,serif" font-size="14.00" fill="#ffa500">&lt; handleShowOtcm(false); &gt;</text>
</g>
<!-- Initial&#45;&gt;Otcm -->
<g id="edge6" class="edge">
<title>Initial-&gt;Otcm</title>
<path fill="none" stroke="#ffc0cb" d="M48.1665,-455.0169C56.5002,-477.9607 70.8489,-505.6986 94.2023,-520.0003 162.605,-561.8903 756.3426,-488.5052 815.7483,-542.4003 862.0803,-584.4344 789.833,-637.4474 833.7483,-682.0003 889.8512,-738.9176 992.6688,-733.154 1047.5684,-725.0286"/>
<polygon fill="#ffc0cb" stroke="#ffc0cb" points="1048.2322,-728.4672 1057.5607,-723.4443 1047.1359,-721.5535 1048.2322,-728.4672"/>
<text text-anchor="middle" x="454.9753" y="-563.0003" font-family="Times,serif" font-size="14.00" fill="#ffc0cb">DcoEvent::ShowOtcmOnDoorReleased []</text>
<text text-anchor="middle" x="454.9753" y="-546.2003" font-family="Times,serif" font-size="14.00" fill="#ffc0cb">&lt; handleShowOtcm(false); &gt;</text>
</g>
<!-- Initial&#45;&gt;Otcm -->
<g id="edge8" class="edge">
<title>Initial-&gt;Otcm</title>
<path fill="none" stroke="#000000" d="M67.2424,-442.8971C75.4582,-448.5726 84.7482,-453.8533 94.2023,-457.0003 132.26,-469.6685 786.6201,-454.8247 815.7483,-482.4003 848.0899,-513.0179 803.0977,-649.69 833.7483,-682.0003 888.7511,-739.9814 992.031,-733.7708 1047.2911,-725.2968"/>
<polygon fill="#000000" stroke="#000000" points="1048.0497,-728.7192 1057.3513,-723.6467 1046.9166,-721.8115 1048.0497,-728.7192"/>
<text text-anchor="middle" x="454.9753" y="-503.0003" font-family="Times,serif" font-size="14.00" fill="#000000">DcoEvent::NoTrigger [_state.icmType() == IcmType::Otcm]</text>
<text text-anchor="middle" x="454.9753" y="-486.2003" font-family="Times,serif" font-size="14.00" fill="#000000">&lt; handleShowOtcm(false); &gt;</text>
</g>
<!-- DualScreenOtcm -->
<g id="node3" class="node">
<title>DualScreenOtcm</title>
<ellipse fill="#d3d3d3" stroke="#000000" cx="1084.4085" cy="-304.0003" rx="62.9894" ry="62.9894"/>
<text text-anchor="middle" x="1084.4085" y="-300.4003" font-family="Times,serif" font-size="12.00" fill="#0000ff">DualScreenOtcm</text>
</g>
<!-- Initial&#45;&gt;DualScreenOtcm -->
<g id="edge2" class="edge">
<title>Initial-&gt;DualScreenOtcm</title>
<path fill="none" stroke="#ffa500" d="M76.2366,-418.4372C212.0001,-419.7565 671.3838,-422.1365 815.7483,-396.0003 886.4551,-383.1993 963.7339,-355.1535 1017.1825,-333.371"/>
<polygon fill="#ffa500" stroke="#ffa500" points="1018.6288,-336.5607 1026.5456,-329.5198 1015.966,-330.0869 1018.6288,-336.5607"/>
<text text-anchor="middle" x="454.9753" y="-440.0003" font-family="Times,serif" font-size="14.00" fill="#ffa500">DcoEvent::GuiButtonOtcmClicked [_state.icmType() == IcmType::Asdo &amp;&amp; _state.dualScreenShowOtcmMessage() != nullptr]</text>
<text text-anchor="middle" x="454.9753" y="-423.2003" font-family="Times,serif" font-size="14.00" fill="#ffa500">&lt;  setDistanceAlarm(true); _state.wantToShowOtcm(true); handleShowOtcm(true); &gt;</text>
</g>
<!-- Initial&#45;&gt;DualScreenOtcm -->
<g id="edge9" class="edge">
<title>Initial-&gt;DualScreenOtcm</title>
<path fill="none" stroke="#000000" d="M59.6849,-386.3085C68.9281,-375.4127 80.7157,-364.4433 94.2023,-358.4003 130.797,-342.003 775.7705,-342.1335 815.7483,-339.0003 882.4894,-333.7696 958.0612,-323.5366 1012.0151,-315.4804"/>
<polygon fill="#000000" stroke="#000000" points="1012.8019,-318.9015 1022.1694,-313.9518 1011.7598,-311.9795 1012.8019,-318.9015"/>
<text text-anchor="middle" x="454.9753" y="-379.0003" font-family="Times,serif" font-size="14.00" fill="#000000">DcoEvent::GuiButtonOtcmClicked [_state.icmType() == IcmType::Asdo &amp;&amp; _state.dualScreenShowOtcmMessage() != nullptr]</text>
<text text-anchor="middle" x="454.9753" y="-362.2003" font-family="Times,serif" font-size="14.00" fill="#000000">&lt; setDistanceAlarm(true);  handleShowOtcm(true); handleDualScreenOtcmShowCameras(); &gt;</text>
</g>
<!-- Initial&#45;&gt;DualScreenOtcm -->
<g id="edge10" class="edge">
<title>Initial-&gt;DualScreenOtcm</title>
<path fill="none" stroke="#ff0000" d="M45.1933,-380.4599C52.4877,-353.3566 66.815,-318.6156 94.2023,-301.4003 365.7059,-130.7368 495.065,-299.8486 815.7483,-301.4003 881.8068,-301.7199 956.9985,-302.4816 1011.0013,-303.0984"/>
<polygon fill="#ff0000" stroke="#ff0000" points="1011.1307,-306.6001 1021.1704,-303.2157 1011.2115,-299.6005 1011.1307,-306.6001"/>
<text text-anchor="middle" x="454.9753" y="-322.0003" font-family="Times,serif" font-size="14.00" fill="#ff0000">DcoEvent::DualScreenOtcmEnable []</text>
<text text-anchor="middle" x="454.9753" y="-305.2003" font-family="Times,serif" font-size="14.00" fill="#ff0000">&lt; handleShowOtcm(false); handleDualScreenOtcmShowCameras(); &gt;</text>
</g>
<!-- Asdo -->
<g id="node4" class="node">
<title>Asdo</title>
<ellipse fill="#d3d3d3" stroke="#000000" cx="1613.2101" cy="-189.0003" rx="26.2948" ry="26.2948"/>
<text text-anchor="middle" x="1613.2101" y="-185.4003" font-family="Times,serif" font-size="12.00" fill="#0000ff">Asdo</text>
</g>
<!-- Initial&#45;&gt;Asdo -->
<g id="edge3" class="edge">
<title>Initial-&gt;Asdo</title>
<path fill="none" stroke="#bf3eff" d="M43.5296,-380.1315C51.7692,-328.5893 69.1674,-240.5086 94.2023,-221.0003 214.47,-127.2824 1356.5906,-176.7489 1576.6296,-187.2064"/>
<polygon fill="#bf3eff" stroke="#bf3eff" points="1576.534,-190.7058 1586.69,-187.688 1576.8688,-183.7138 1576.534,-190.7058"/>
<text text-anchor="middle" x="1084.4085" y="-197.0003" font-family="Times,serif" font-size="14.00" fill="#bf3eff">DcoEvent::GuiButtonAsdoClicked []</text>
<text text-anchor="middle" x="1084.4085" y="-180.2003" font-family="Times,serif" font-size="14.00" fill="#bf3eff">&lt; handleShowAsdo(_state.hsm().currentEventType()); checkForEvacForInactiveCab();&gt;</text>
</g>
<!-- Initial&#45;&gt;Asdo -->
<g id="edge7" class="edge">
<title>Initial-&gt;Asdo</title>
<path fill="none" stroke="#000000" d="M40.812,-379.971C46.2873,-315.2388 61.0817,-187.9182 94.2023,-160.0003 199.6579,-71.1099 1197.8142,-113.8518 1335.0687,-127.4003 1440.4871,-137.8062 1466.478,-146.6344 1568.8129,-174.0003 1571.9568,-174.841 1575.2021,-175.7852 1578.4405,-176.78"/>
<polygon fill="#000000" stroke="#000000" points="1577.4346,-180.133 1588.026,-179.8635 1579.5782,-173.4693 1577.4346,-180.133"/>
<text text-anchor="middle" x="1084.4085" y="-149.0003" font-family="Times,serif" font-size="14.00" fill="#000000">DcoEvent::NoTrigger [_state.icmType() == IcmType::Asdo]</text>
<text text-anchor="middle" x="1084.4085" y="-132.2003" font-family="Times,serif" font-size="14.00" fill="#000000">&lt; handleShowAsdo(_state.hsm().currentEventType()); checkForEvacForInactiveCab(); &gt;</text>
</g>
<!-- Settings -->
<g id="node5" class="node">
<title>Settings</title>
<ellipse fill="#d3d3d3" stroke="#000000" cx="1084.4085" cy="-48.0003" rx="34.8341" ry="34.8341"/>
<text text-anchor="middle" x="1084.4085" y="-44.4003" font-family="Times,serif" font-size="12.00" fill="#0000ff">Settings</text>
</g>
<!-- Initial&#45;&gt;Settings -->
<g id="edge11" class="edge">
<title>Initial-&gt;Settings</title>
<path fill="none" stroke="#bf3eff" d="M41.5294,-379.987C49.6431,-294.2208 71.0842,-91.5531 94.2023,-71.4003 236.7899,52.8981 865.6286,-19.1644 1039.643,-41.8861"/>
<polygon fill="#bf3eff" stroke="#bf3eff" points="1039.3587,-45.3788 1049.7301,-43.2148 1040.2728,-38.4388 1039.3587,-45.3788"/>
<text text-anchor="middle" x="454.9753" y="-93.0003" font-family="Times,serif" font-size="14.00" fill="#bf3eff">DcoEvent::GuiButtonSettingsClicked []</text>
<text text-anchor="middle" x="454.9753" y="-76.2003" font-family="Times,serif" font-size="14.00" fill="#bf3eff">&lt; handleShowSettings(); &gt;</text>
</g>
<!-- Otcm&#45;&gt;Otcm -->
<g id="edge13" class="edge">
<title>Otcm-&gt;Otcm</title>
<path fill="none" stroke="#ffc0cb" d="M1075.6498,-744.0382C1075.155,-754.4813 1078.0745,-763.2467 1084.4085,-763.2467 1088.4662,-763.2467 1091.1227,-759.6494 1092.3778,-754.3182"/>
<polygon fill="#ffc0cb" stroke="#ffc0cb" points="1095.8912,-754.2768 1093.1672,-744.0382 1088.9117,-753.7408 1095.8912,-754.2768"/>
<text text-anchor="middle" x="1084.4085" y="-784.2467" font-family="Times,serif" font-size="14.00" fill="#ffc0cb">DcoEvent::OnDoorReleaseMessage []</text>
<text text-anchor="middle" x="1084.4085" y="-767.4467" font-family="Times,serif" font-size="14.00" fill="#ffc0cb">&lt; updateGuiWithDoorRelease(); handleShowOtcm(false); &gt;</text>
</g>
<!-- Otcm&#45;&gt;Otcm -->
<g id="edge14" class="edge">
<title>Otcm-&gt;Otcm</title>
<path fill="none" stroke="#ffa500" d="M1070.4023,-741.5913C1062.6656,-766.3533 1067.3343,-796.8467 1084.4085,-796.8467 1099.2818,-796.8467 1104.7417,-773.7082 1100.7882,-751.3753"/>
<polygon fill="#ffa500" stroke="#ffa500" points="1104.1737,-750.4842 1098.4147,-741.5913 1097.371,-752.1346 1104.1737,-750.4842"/>
<text text-anchor="middle" x="1084.4085" y="-817.8467" font-family="Times,serif" font-size="14.00" fill="#ffa500">DcoEvent::OnCameraMapMessage []</text>
<text text-anchor="middle" x="1084.4085" y="-801.0467" font-family="Times,serif" font-size="14.00" fill="#ffa500">&lt; handleShowOtcm(false); &gt;</text>
</g>
<!-- Otcm&#45;&gt;Otcm -->
<g id="edge15" class="edge">
<title>Otcm-&gt;Otcm</title>
<path fill="none" stroke="#000000" d="M1067.6628,-739.7287C1050.5302,-775.4395 1056.1121,-830.4467 1084.4085,-830.4467 1110.2732,-830.4467 1117.1597,-784.4876 1105.068,-749.3157"/>
<polygon fill="#000000" stroke="#000000" points="1108.1742,-747.6641 1101.1542,-739.7287 1101.6934,-750.3098 1108.1742,-747.6641"/>
<text text-anchor="middle" x="1084.4085" y="-851.4467" font-family="Times,serif" font-size="14.00" fill="#000000">DcoEvent::OnCameraSectionMapMessage []</text>
<text text-anchor="middle" x="1084.4085" y="-834.6467" font-family="Times,serif" font-size="14.00" fill="#000000">&lt; updateGuiWithSectionsMap(); handleShowOtcm(false); &gt;</text>
</g>
<!-- Otcm&#45;&gt;Otcm -->
<g id="edge16" class="edge">
<title>Otcm-&gt;Otcm</title>
<path fill="none" stroke="#0000ff" d="M1066.0095,-738.3107C1038.5275,-783.2531 1044.6605,-864.0467 1084.4085,-864.0467 1121.6723,-864.0467 1129.3916,-793.0367 1107.5665,-747.129"/>
<polygon fill="#0000ff" stroke="#0000ff" points="1110.6369,-745.4487 1102.8075,-738.3107 1104.4767,-748.7732 1110.6369,-745.4487"/>
<text text-anchor="middle" x="1084.4085" y="-885.0467" font-family="Times,serif" font-size="14.00" fill="#0000ff">DcoEvent::OnLowSpeedMessage [_state.icmType() == IcmType::Otcm]</text>
<text text-anchor="middle" x="1084.4085" y="-868.2467" font-family="Times,serif" font-size="14.00" fill="#0000ff">&lt; _state.markEventOnHighSpeedCamerasNotViewed(false); &gt;</text>
</g>
<!-- Otcm&#45;&gt;Otcm -->
<g id="edge17" class="edge">
<title>Otcm-&gt;Otcm</title>
<path fill="none" stroke="#bf3eff" d="M1064.8737,-737.2966C1026.6054,-790.5071 1033.117,-897.6467 1084.4085,-897.6467 1133.0954,-897.6467 1141.4348,-801.1122 1109.4269,-745.799"/>
<polygon fill="#bf3eff" stroke="#bf3eff" points="1112.3047,-743.8035 1103.9434,-737.2966 1106.422,-747.5975 1112.3047,-743.8035"/>
<text text-anchor="middle" x="1084.4085" y="-918.6467" font-family="Times,serif" font-size="14.00" fill="#bf3eff">DcoEvent::GuiButtonOtcmClicked [( _state.icmType() == IcmType::Otcm &amp;&amp; !_state.monitorFailureMode() )]</text>
<text text-anchor="middle" x="1084.4085" y="-901.8467" font-family="Times,serif" font-size="14.00" fill="#bf3eff">&lt;  setDistanceAlarm(true); _state.wantToShowOtcm( true ); handleShowOtcm(true); &gt;</text>
</g>
<!-- Otcm&#45;&gt;Otcm -->
<g id="edge18" class="edge">
<title>Otcm-&gt;Otcm</title>
<path fill="none" stroke="#bf3eff" d="M1064.1294,-736.4286C1014.722,-797.2709 1021.4818,-931.2467 1084.4085,-931.2467 1144.6314,-931.2467 1153.4104,-808.5371 1110.7454,-744.6602"/>
<polygon fill="#bf3eff" stroke="#bf3eff" points="1113.4338,-742.4082 1104.6876,-736.4286 1107.7959,-746.5572 1113.4338,-742.4082"/>
<text text-anchor="middle" x="1084.4085" y="-952.2467" font-family="Times,serif" font-size="14.00" fill="#bf3eff">DcoEvent::GuiButtonOtcmClicked []</text>
<text text-anchor="middle" x="1084.4085" y="-935.4467" font-family="Times,serif" font-size="14.00" fill="#bf3eff">&lt;  setDistanceAlarm(true); _state.wantToShowOtcm( false ); &gt;</text>
</g>
<!-- Otcm&#45;&gt;Otcm -->
<g id="edge19" class="edge">
<title>Otcm-&gt;Otcm</title>
<path fill="none" stroke="#0000ff" d="M1063.4444,-735.9015C1002.8814,-804.0676 1009.8694,-964.8467 1084.4085,-964.8467 1156.1815,-964.8467 1165.3239,-815.779 1111.8359,-743.8599"/>
<polygon fill="#0000ff" stroke="#0000ff" points="1114.3937,-741.4576 1105.3726,-735.9015 1108.9599,-745.8705 1114.3937,-741.4576"/>
<text text-anchor="middle" x="1084.4085" y="-985.8467" font-family="Times,serif" font-size="14.00" fill="#0000ff">DcoEvent::OnDistanceAlarmMessage []</text>
<text text-anchor="middle" x="1084.4085" y="-969.0467" font-family="Times,serif" font-size="14.00" fill="#0000ff">&lt; handleDistanceAlarmMessage(); &gt;</text>
</g>
<!-- Otcm&#45;&gt;Otcm -->
<g id="edge26" class="edge">
<title>Otcm-&gt;Otcm</title>
<path fill="none" stroke="#bf3eff" d="M1063.1733,-735.1896C991.041,-810.2251 998.1194,-998.4467 1084.4085,-998.4467 1167.8325,-998.4467 1177.2186,-822.5167 1112.5668,-743.0271"/>
<polygon fill="#bf3eff" stroke="#bf3eff" points="1114.8872,-740.3672 1105.6437,-735.1896 1109.6409,-745.0015 1114.8872,-740.3672"/>
<text text-anchor="middle" x="1084.4085" y="-1019.4467" font-family="Times,serif" font-size="14.00" fill="#bf3eff">DcoEvent::GuiOtcmStatusChangeEvent []</text>
<text text-anchor="middle" x="1084.4085" y="-1002.6467" font-family="Times,serif" font-size="14.00" fill="#bf3eff">&lt; handleGuiOtcmStatusChangeEvent(); &gt;</text>
</g>
<!-- DualScreenOtcm&#45;&gt;DualScreenOtcm -->
<g id="edge21" class="edge">
<title>DualScreenOtcm-&gt;DualScreenOtcm</title>
<path fill="none" stroke="#000000" d="M1073.3477,-366.1442C1074.7854,-377.2427 1078.4723,-384.995 1084.4085,-384.995 1088.3041,-384.995 1091.2311,-381.6563 1093.1894,-376.2244"/>
<polygon fill="#000000" stroke="#000000" points="1096.6769,-376.67 1095.4693,-366.1442 1089.8494,-375.1257 1096.6769,-376.67"/>
<text text-anchor="middle" x="1084.4085" y="-405.995" font-family="Times,serif" font-size="14.00" fill="#000000">DcoEvent::OnLowSpeedMessage [!_state.lowSpeed()]</text>
<text text-anchor="middle" x="1084.4085" y="-389.195" font-family="Times,serif" font-size="14.00" fill="#000000">&lt; _state.markEventOnHighSpeedCamerasNotViewed(false); &gt;</text>
</g>
<!-- DualScreenOtcm&#45;&gt;DualScreenOtcm -->
<g id="edge22" class="edge">
<title>DualScreenOtcm-&gt;DualScreenOtcm</title>
<path fill="none" stroke="#bf3eff" d="M1061.3994,-362.8292C1058.8078,-391.8731 1066.4775,-418.595 1084.4085,-418.595 1100.2382,-418.595 1108.0707,-397.7691 1107.906,-372.905"/>
<polygon fill="#bf3eff" stroke="#bf3eff" points="1111.3977,-372.648 1107.4176,-362.8292 1104.4059,-372.9869 1111.3977,-372.648"/>
<text text-anchor="middle" x="1084.4085" y="-439.595" font-family="Times,serif" font-size="14.00" fill="#bf3eff">DcoEvent::OnDoorReleaseMessage []</text>
<text text-anchor="middle" x="1084.4085" y="-422.795" font-family="Times,serif" font-size="14.00" fill="#bf3eff">&lt; updateGuiWithDoorRelease(); markEvacAsCompleteIfPending(); &gt;</text>
</g>
<!-- DualScreenOtcm&#45;&gt;DualScreenOtcm -->
<g id="edge23" class="edge">
<title>DualScreenOtcm-&gt;DualScreenOtcm</title>
<path fill="none" stroke="#a52a2a" d="M1053.2297,-359.1108C1042.5292,-403.1881 1052.9222,-452.195 1084.4085,-452.195 1113.558,-452.195 1124.6289,-410.1926 1117.6213,-368.9843"/>
<polygon fill="#a52a2a" stroke="#a52a2a" points="1121.0331,-368.1989 1115.5874,-359.1108 1114.1771,-369.6113 1121.0331,-368.1989"/>
<text text-anchor="middle" x="1084.4085" y="-473.195" font-family="Times,serif" font-size="14.00" fill="#a52a2a">DcoEvent::GuiButtonOtcmClicked []</text>
<text text-anchor="middle" x="1084.4085" y="-456.395" font-family="Times,serif" font-size="14.00" fill="#a52a2a">&lt;  setDistanceAlarm(true); handleDualScreenOtcmShowCameras(); &gt;</text>
</g>
<!-- DualScreenOtcm&#45;&gt;DualScreenOtcm -->
<g id="edge24" class="edge">
<title>DualScreenOtcm-&gt;DualScreenOtcm</title>
<path fill="none" stroke="#00ff00" d="M1047.5643,-355.4602C1026.2287,-412.4116 1038.5101,-485.795 1084.4085,-485.795 1127.7969,-485.795 1141.1445,-420.2185 1124.4515,-364.9365"/>
<polygon fill="#00ff00" stroke="#00ff00" points="1127.7672,-363.8156 1121.2528,-355.4602 1121.1349,-366.0544 1127.7672,-363.8156"/>
<text text-anchor="middle" x="1084.4085" y="-506.795" font-family="Times,serif" font-size="14.00" fill="#00ff00">DcoEvent::DualScreenOtcmShowCameras []</text>
<text text-anchor="middle" x="1084.4085" y="-489.995" font-family="Times,serif" font-size="14.00" fill="#00ff00">&lt; handleDualScreenOtcmShowCameras(); &gt;</text>
</g>
<!-- DualScreenOtcm&#45;&gt;DualScreenOtcm -->
<g id="edge25" class="edge">
<title>DualScreenOtcm-&gt;DualScreenOtcm</title>
<path fill="none" stroke="#ffa500" d="M1043.6075,-352.1217C1009.9928,-420.3057 1023.5931,-519.395 1084.4085,-519.395 1142.492,-519.395 1157.5071,-429.0083 1129.4538,-361.4859"/>
<polygon fill="#ffa500" stroke="#ffa500" points="1132.5256,-359.7849 1125.2095,-352.1217 1126.1499,-362.6747 1132.5256,-359.7849"/>
<text text-anchor="middle" x="1084.4085" y="-540.395" font-family="Times,serif" font-size="14.00" fill="#ffa500">DcoEvent::GuiImageClicked []</text>
<text text-anchor="middle" x="1084.4085" y="-523.595" font-family="Times,serif" font-size="14.00" fill="#ffa500">&lt; handleImageClickedInDualScreenOtcmMode(); &gt;</text>
</g>
<!-- DualScreenOtcm&#45;&gt;DualScreenOtcm -->
<g id="edge27" class="edge">
<title>DualScreenOtcm-&gt;DualScreenOtcm</title>
<path fill="none" stroke="#000000" d="M1040.5937,-349.5577C993.8876,-427.7661 1008.4925,-552.995 1084.4085,-552.995 1157.5073,-552.995 1173.7611,-436.888 1133.1697,-358.45"/>
<polygon fill="#000000" stroke="#000000" points="1136.1431,-356.5953 1128.2233,-349.5577 1130.0259,-359.9981 1136.1431,-356.5953"/>
<text text-anchor="middle" x="1084.4085" y="-573.995" font-family="Times,serif" font-size="14.00" fill="#000000">DcoEvent::GuiOtcmStatusChangeEvent []</text>
<text text-anchor="middle" x="1084.4085" y="-557.195" font-family="Times,serif" font-size="14.00" fill="#000000">&lt; handleGuiOtcmStatusChangeEvent(); &gt;</text>
</g>
<!-- DualScreenOtcm&#45;&gt;Asdo -->
<g id="edge20" class="edge">
<title>DualScreenOtcm-&gt;Asdo</title>
<path fill="none" stroke="#ff0000" d="M1146.808,-293.0536C1239.5059,-276.3271 1418.7858,-242.1906 1568.8129,-203.0003 1571.9407,-202.1832 1575.1751,-201.2797 1578.4062,-200.3367"/>
<polygon fill="#ff0000" stroke="#ff0000" points="1579.4248,-203.6852 1587.9805,-197.4361 1577.3952,-196.9859 1579.4248,-203.6852"/>
<text text-anchor="middle" x="1460.9408" y="-273.0003" font-family="Times,serif" font-size="14.00" fill="#ff0000">DcoEvent::DualScreenOtcmDisable []</text>
<text text-anchor="middle" x="1460.9408" y="-256.2003" font-family="Times,serif" font-size="14.00" fill="#ff0000">&lt;}); &gt;</text>
</g>
<!-- Asdo&#45;&gt;Asdo -->
<g id="edge12" class="edge">
<title>Asdo-&gt;Asdo</title>
<path fill="none" stroke="#ffa500" d="M1590.5618,-203.552C1578.0513,-217.7728 1585.6007,-233.3975 1613.2101,-233.3975 1635.2113,-233.3975 1644.4743,-223.4757 1640.999,-212.2488"/>
<polygon fill="#ffa500" stroke="#ffa500" points="1643.9599,-210.3796 1635.8584,-203.552 1637.9339,-213.9415 1643.9599,-210.3796"/>
<text text-anchor="middle" x="1613.2101" y="-254.3975" font-family="Times,serif" font-size="14.00" fill="#ffa500">DcoEvent::ExitEvacuationMode []</text>
<text text-anchor="middle" x="1613.2101" y="-237.5975" font-family="Times,serif" font-size="14.00" fill="#ffa500">&lt;&gt;</text>
</g>
</g>
</svg>