<?xml version="1.0" encoding="UTF-8" standalone="no"?><!DOCTYPE svg PUBLIC "-//W3C//DTD SVG 1.1//EN" "http://www.w3.org/Graphics/SVG/1.1/DTD/svg11.dtd"><!-- Generated by graphviz version 2.40.1 (20161225.0304)
 --><!-- Title: G Pages: 1 --><svg xmlns="http://www.w3.org/2000/svg" xmlns:xlink="http://www.w3.org/1999/xlink" width="740pt" height="378pt" viewBox="0.00 0.00 739.70 378.32">
<g id="graph0" class="graph" transform="scale(1 1) rotate(0) translate(4 374.3186)">
<title>G</title>
<polygon fill="#ffffff" stroke="transparent" points="-4,4 -4,-374.3186 735.704,-374.3186 735.704,4 -4,4"/>
<!-- Initial -->
<g id="node1" class="node">
<title>Initial</title>
<ellipse fill="none" stroke="#000000" cx="38.1012" cy="-164.1068" rx="34.1919" ry="34.1919"/>
<ellipse fill="none" stroke="#000000" cx="38.1012" cy="-164.1068" rx="38.2026" ry="38.2026"/>
<text text-anchor="middle" x="38.1012" y="-159.9068" font-family="Times,serif" font-size="14.00" fill="#000000">Initial</text>
</g>
<!-- DoorsReleased -->
<g id="node2" class="node">
<title>DoorsReleased</title>
<ellipse fill="#d3d3d3" stroke="#000000" cx="576.4139" cy="-262.1068" rx="56.7238" ry="56.7238"/>
<text text-anchor="middle" x="576.4139" y="-258.5068" font-family="Times,serif" font-size="12.00" fill="#0000ff">DoorsReleased</text>
</g>
<!-- Initial&#45;&gt;DoorsReleased -->
<g id="edge1" class="edge">
<title>Initial-&gt;DoorsReleased</title>
<path fill="none" stroke="#ffc0cb" d="M72.2114,-181.7893C79.3346,-184.9453 86.9012,-187.9193 94.2023,-190.1068 238.3972,-233.3091 414.9525,-251.2334 509.3271,-258.1515"/>
<polygon fill="#ffc0cb" stroke="#ffc0cb" points="509.3643,-261.663 519.5881,-258.8839 509.8627,-254.6808 509.3643,-261.663"/>
<text text-anchor="middle" x="292.2547" y="-277.1068" font-family="Times,serif" font-size="14.00" fill="#ffc0cb">DcoEvent::NoTrigger [leftDoorReleased() || rightDoorReleased()]</text>
<text text-anchor="middle" x="292.2547" y="-260.3068" font-family="Times,serif" font-size="14.00" fill="#ffc0cb">&lt;&gt;</text>
</g>
<!-- DoorsNotReleased -->
<g id="node3" class="node">
<title>DoorsNotReleased</title>
<ellipse fill="#d3d3d3" stroke="#000000" cx="576.4139" cy="-68.1068" rx="68.2138" ry="68.2138"/>
<text text-anchor="middle" x="576.4139" y="-64.5068" font-family="Times,serif" font-size="12.00" fill="#0000ff">DoorsNotReleased</text>
</g>
<!-- Initial&#45;&gt;DoorsNotReleased -->
<g id="edge2" class="edge">
<title>Initial-&gt;DoorsNotReleased</title>
<path fill="none" stroke="#0000ff" d="M75.9543,-157.3563C163.6224,-141.722 382.0294,-102.7724 499.2168,-81.8738"/>
<polygon fill="#0000ff" stroke="#0000ff" points="499.9694,-85.2949 509.1996,-80.0935 498.7404,-78.4036 499.9694,-85.2949"/>
<text text-anchor="middle" x="292.2547" y="-173.1068" font-family="Times,serif" font-size="14.00" fill="#0000ff">DcoEvent::NoTrigger [!leftDoorReleased() &amp;&amp; !rightDoorReleased()]</text>
<text text-anchor="middle" x="292.2547" y="-156.3068" font-family="Times,serif" font-size="14.00" fill="#0000ff">&lt;&gt;</text>
</g>
<!-- DoorsReleased&#45;&gt;DoorsReleased -->
<g id="edge4" class="edge">
<title>DoorsReleased-&gt;DoorsReleased</title>
<path fill="none" stroke="#ffa500" d="M528.6274,-293.1519C513.614,-315.0411 529.5429,-336.7186 576.4139,-336.7186 616.6938,-336.7186 634.122,-320.7092 628.6986,-302.3141"/>
<polygon fill="#ffa500" stroke="#ffa500" points="631.7493,-300.586 624.2005,-293.1519 625.4657,-303.6709 631.7493,-300.586"/>
<text text-anchor="middle" x="576.4139" y="-357.7186" font-family="Times,serif" font-size="14.00" fill="#ffa500">DcoEvent::OnDoorReleaseMessage [!doorsReleased()]</text>
<text text-anchor="middle" x="576.4139" y="-340.9186" font-family="Times,serif" font-size="14.00" fill="#ffa500">&lt; exitEvacuationMode(); &gt;</text>
</g>
<!-- DoorsNotReleased&#45;&gt;DoorsNotReleased -->
<g id="edge3" class="edge">
<title>DoorsNotReleased-&gt;DoorsNotReleased</title>
<path fill="none" stroke="#0000ff" d="M524.5972,-112.8521C517.8175,-134.7673 535.0897,-154.2137 576.4139,-154.2137 611.2813,-154.2137 629.0256,-140.3695 629.647,-122.8793"/>
<polygon fill="#0000ff" stroke="#0000ff" points="633.095,-122.2643 628.2306,-112.8521 626.1638,-123.2434 633.095,-122.2643"/>
<text text-anchor="middle" x="576.4139" y="-175.2137" font-family="Times,serif" font-size="14.00" fill="#0000ff">DcoEvent::OnDoorReleaseMessage [!doorsReleased()]</text>
<text text-anchor="middle" x="576.4139" y="-158.4137" font-family="Times,serif" font-size="14.00" fill="#0000ff">&lt; exitEvacuationMode(); &gt;</text>
</g>
</g>
</svg>